<svg width="21" height="25" viewBox="0 0 21 25" fill="none" xmlns="http://www.w3.org/2000/svg">
<path d="M16.2511 23.8702C16.216 23.8702 12.6728 24.0957 9.47596 23.9522C8.76332 23.9215 6.96665 23.5986 5.83245 21.2921L1.39599 12.3685C1.38049 12.3376 1.36205 12.3084 1.34078 12.2813C0.841305 11.6974 0.897388 10.8111 1.46625 10.2977C2.07607 9.84952 2.92529 9.98419 3.37332 10.6002L5.38077 13.4243L5.41088 13.45C5.45504 13.4981 5.50573 13.5396 5.56144 13.573L5.64676 13.6037H5.74713H5.78226H5.83746H5.93784L6.02817 13.5627H6.07836L6.10345 13.5371C6.12967 13.5143 6.15326 13.4885 6.17371 13.4602C6.19284 13.4363 6.20966 13.4106 6.2239 13.3833C6.23651 13.3553 6.24654 13.3261 6.25401 13.2962C6.25733 13.2621 6.25733 13.2278 6.25401 13.1937C6.25401 13.1937 6.25401 13.1937 6.25401 13.1578V2.47616C6.25401 1.66088 6.9011 1 7.69937 1C8.49764 1 9.14473 1.66088 9.14473 2.47616V11.5484C9.14473 11.8314 9.36944 12.0609 9.64659 12.0609C9.92375 12.0609 10.1485 11.8314 10.1485 11.5484V9.43153C10.071 8.69698 10.5913 8.03732 11.3106 7.95826C12.0298 7.87913 12.6757 8.41052 12.7531 9.14514C12.7632 9.24035 12.7632 9.33639 12.7531 9.4316V13.1169C12.7531 13.3999 12.9778 13.6294 13.255 13.6294C13.5321 13.6294 13.7568 13.3999 13.7568 13.1169V10.8821C13.6794 10.1476 14.1997 9.48791 14.919 9.40885C15.6382 9.32973 16.2841 9.86112 16.3615 10.5957C16.3715 10.6909 16.3715 10.787 16.3615 10.8822V14.9826C16.3615 15.2657 16.5862 15.4952 16.8634 15.4952C17.1405 15.4952 17.3652 15.2657 17.3652 14.9826V11.9996C17.2878 11.265 17.8081 10.6053 18.5273 10.5263C19.2466 10.4472 19.8925 10.9786 19.9699 11.7132C19.9799 11.8084 19.9799 11.9044 19.9699 11.9996L20 18.7807C20 18.9907 19.8796 23.9061 16.2511 23.8702Z" stroke="white"/>
</svg>
