<svg width="12" height="12" viewBox="0 0 12 12" fill="none" xmlns="http://www.w3.org/2000/svg">
<path d="M10.75 9.5C10.5895 9.5 10.437 9.533 10.2955 9.5885L8.799 8.0925C9.237 7.508 9.5 6.785 9.5 6C9.5 5.215 9.237 4.492 8.799 3.9075L10.2955 2.4115C10.437 2.467 10.5895 2.5 10.75 2.5C11.4395 2.5 12 1.939 12 1.25C12 0.561 11.4395 0 10.75 0C10.0605 0 9.5 0.561 9.5 1.25C9.5 1.4105 9.533 1.563 9.5885 1.7045L8.092 3.201C7.5075 2.763 6.785 2.5 6 2.5C5.215 2.5 4.4925 2.763 3.908 3.2005L2.4115 1.7045C2.467 1.563 2.5 1.4105 2.5 1.25C2.5 0.561 1.9395 0 1.25 0C0.5605 0 0 0.561 0 1.25C0 1.939 0.5605 2.5 1.25 2.5C1.4105 2.5 1.563 2.467 1.7045 2.4115L3.201 3.908C2.763 4.492 2.5 5.215 2.5 6C2.5 6.785 2.763 7.508 3.201 8.0925L1.7045 9.589C1.563 9.533 1.4105 9.5 1.25 9.5C0.5605 9.5 0 10.061 0 10.75C0 11.439 0.5605 12 1.25 12C1.9395 12 2.5 11.439 2.5 10.75C2.5 10.5895 2.467 10.437 2.4115 10.2955L3.908 8.799C4.4925 9.237 5.215 9.5 6 9.5C6.785 9.5 7.5075 9.237 8.092 8.7995L9.5885 10.296C9.533 10.437 9.5 10.5895 9.5 10.75C9.5 11.439 10.0605 12 10.75 12C11.4395 12 12 11.439 12 10.75C12 10.061 11.4395 9.5 10.75 9.5ZM6 3.5C6.5525 3.5 7 3.9475 7 4.5C7 5.0525 6.5525 5.5 6 5.5C5.4475 5.5 5 5.0525 5 4.5C5 3.9475 5.4475 3.5 6 3.5ZM4.375 8C4.168 8 4 7.832 4 7.625V7.375C4 6.6165 4.6165 6 5.375 6H6.625C7.3835 6 8 6.6165 8 7.375V7.625C8 7.832 7.832 8 7.625 8H4.375Z" fill="#44D7B6"/>
</svg>
