<svg width="100" height="55" viewBox="0 0 100 55" fill="none" xmlns="http://www.w3.org/2000/svg">
<path d="M11.6898 52.1907C9.29005 52.1907 7.17733 51.603 5.41028 50.4275C3.01447 48.8455 1.47488 46.3134 0.958367 43.1131C0.47265 40.1069 0.90473 36.5569 2.20494 32.8473C3.50515 29.1377 5.65165 25.3537 8.41398 21.8763C12.5004 16.7346 17.578 12.686 22.7103 10.4761C25.4627 9.29381 28.081 8.69824 30.4967 8.69824C32.8965 8.69824 35.0092 9.28598 36.7763 10.4615C38.5215 11.6144 39.8247 13.2924 40.5975 15.3661C40.7447 15.0953 40.867 14.8121 40.963 14.5198L41.7576 11.9945L42.2175 14.5991C43.1661 19.9798 41.6762 24.8718 40.0174 28.3384C40.4512 28.0828 40.8578 27.7848 41.2312 27.449L43.184 25.6397L42.2811 28.1278C40.817 32.1607 38.3536 35.8193 34.9496 39.0244C35.7105 38.9559 36.4912 38.8217 37.107 38.5699L39.5833 37.559L37.8451 39.571C33.6435 44.4375 27.8337 46.9442 23.6669 48.1912C22.3301 49.0359 20.929 49.7774 19.4762 50.4089C16.7238 51.5863 14.1045 52.1907 11.6898 52.1907ZM30.4888 12.9015C28.677 12.9015 26.6358 13.3845 24.4218 14.3376C19.9252 16.2732 15.4355 19.874 11.7782 24.475C6.90517 30.6061 4.37527 37.4973 5.17586 42.451C5.50563 44.4953 6.38469 46.0019 7.78721 46.9285C8.84308 47.625 10.1582 47.9786 11.6978 47.9786C13.5095 47.9786 15.5507 47.4957 17.7648 46.5426C22.2614 44.607 26.751 41.0061 30.4083 36.4051C35.2814 30.2731 37.8113 23.3858 37.0107 18.4292C36.6809 16.3849 35.8019 14.8783 34.3993 13.9516C33.3435 13.2552 32.0284 12.9015 30.4888 12.9015Z" fill="#56A4CB"/>
<path d="M38.2158 23.0699C39.4244 21.2949 39.877 18.9488 40.1266 17.397C39.1712 18.6869 38.4364 19.2532 38.4364 19.2532C38.5466 20.4243 38.6128 21.5722 38.2158 23.0699Z" fill="#277DAD"/>
<path d="M20.2539 13.4257C31.643 6.14465 38.8668 13.9526 38.9796 15.8839C38.5174 12.8363 36.3843 10.6954 33.855 9.49149C31.658 8.34397 25.0551 9.93981 25.0551 9.93981L20.2539 13.4257Z" fill="#DDEDF5"/>
<path d="M16.4325 49.8301C14.434 51.1512 9.42017 50.6243 8.40723 50.2637C8.40723 48.9999 8.81926 47.6525 8.81926 47.6525H11.2797C11.2797 47.6525 11.2484 48.647 13.8419 48.0151C15.2434 48.7286 16.4325 49.8301 16.4325 49.8301Z" fill="#277DAD"/>
<path d="M1.52832 38.9539C3.79904 31.2535 11.5679 16.4481 26.3685 9.94857C24.019 8.96782 13.9873 14.3353 8.73124 21.7835C2.26653 30.9508 2.26653 33.2305 1.52832 38.9539Z" fill="#DDEDF5"/>
<path d="M33.6299 31.7686C33.6299 31.7686 36.1426 30.9272 37.6891 29.767C38.8771 27.792 40.8909 23.0538 40.8909 18.9099C37.9861 25.6487 35.9406 26.431 35.9406 26.431C34.8625 29.6686 34.4556 30.1508 33.6299 31.7686Z" fill="#277DAD"/>
<path d="M35.2396 40.2465C30.6473 43.8195 27.5137 45.2509 23.4607 46.5973L20.8617 48.0306L20.2539 45.5225C20.2539 45.5225 30.0493 40.3325 33.3059 32.2025C34.883 32.9519 39.1187 30.949 40.126 29.499C38.1718 33.0164 31.5276 40.182 31.5276 40.182L35.2396 40.2465Z" fill="#277DAD"/>
<path d="M30.1974 9.5789C32.4289 9.5789 34.4255 10.1231 36.0823 11.2115C38.064 12.5129 39.4158 14.5193 40.0319 17.0476C40.5256 16.3698 40.9857 15.6048 41.2168 14.8863C42.2141 20.5114 40.4585 25.6029 38.4876 29.2544C38.4155 29.4297 38.3415 29.6059 38.2655 29.7812C39.3516 29.297 40.5078 28.6763 41.3076 27.9414C39.4839 32.938 36.2719 36.7629 32.891 39.6165H33.1172C34.2675 39.6165 35.874 39.5197 37.0144 39.0569C33.0194 43.6564 27.5354 46.1111 23.1375 47.4116C21.8143 48.2481 20.426 48.9811 18.9855 49.6039C16.3195 50.7446 13.7898 51.315 11.504 51.315C9.27244 51.315 7.27591 50.7708 5.61906 49.6824C3.38951 48.2182 1.95482 45.8642 1.47198 42.8759C1.00592 40.0058 1.42557 36.6021 2.68549 33.0329C3.94936 29.4394 6.04956 25.7529 8.75306 22.3706C12.7501 17.3682 17.7098 13.4338 22.7159 11.2899C25.3819 10.1492 27.9116 9.5789 30.1974 9.5789ZM11.5099 48.4138C13.3761 48.4138 15.5069 47.9219 17.7976 46.941C22.3634 44.9869 26.9143 41.3615 30.6151 36.7319C35.5649 30.5346 38.1292 23.5422 37.3067 18.475C36.9493 16.2739 35.9826 14.6423 34.4343 13.6246C33.2702 12.8606 31.8325 12.48 30.1885 12.48C28.3214 12.48 26.1915 12.9719 23.9008 13.9519C19.335 15.9069 14.7831 19.5324 11.0833 24.162C6.13349 30.3593 3.56921 37.3516 4.39172 42.4189C4.74916 44.6199 5.71582 46.2516 7.26406 47.2693C8.42722 48.0333 9.86586 48.4138 11.5099 48.4138ZM30.1974 8.32491C27.7072 8.32491 25.0175 8.93593 22.1995 10.1415C17.0018 12.3687 11.8663 16.4357 7.73999 21.5988C4.95256 25.0848 2.78324 28.902 1.46901 32.6213C0.139974 36.3852 -0.296456 40 0.197244 43.0735C0.740314 46.4171 2.36952 49.0646 4.89924 50.7233C6.76345 51.9483 8.98411 52.569 11.499 52.569C13.9883 52.569 16.6789 51.9579 19.497 50.7524C20.9451 50.1275 22.3424 49.3949 23.6766 48.561C26.1756 47.8214 28.5842 46.8148 30.859 45.5592C35.869 42.7627 37.7155 40.7853 41.2336 36.3765L36.576 37.8648C41.2632 32.8673 42.4461 29.8374 43.9479 24.1145L41.2563 26.2584C44.2353 19.4443 42.2605 12.0123 41.6285 10.5037C41.2158 11.6976 40.5424 13.3748 40.1879 13.8822C39.3907 12.3859 38.2252 11.1085 36.7972 10.1657C34.933 8.94077 32.7123 8.32007 30.1974 8.32007V8.32491ZM11.5099 47.155C10.1088 47.155 8.92092 46.8413 7.97993 46.2235C6.73976 45.4081 5.95971 44.0622 5.66053 42.2214C4.89233 37.4882 7.35787 30.8667 12.0944 24.9386C15.6658 20.4707 20.041 16.9789 24.4152 15.1061C26.5342 14.1988 28.4774 13.7389 30.1895 13.7389C31.5906 13.7389 32.7775 14.0526 33.7195 14.6704C34.9596 15.4857 35.7397 16.8317 36.0389 18.6725C36.8071 23.4057 34.3415 30.0272 29.605 35.9553C26.0335 40.4251 21.6584 43.9111 17.2842 45.7877C15.1643 46.6951 13.222 47.155 11.5099 47.155Z" fill="#083751"/>
<path d="M11.7788 46.8965C10.364 46.8965 9.16452 46.5804 8.21434 45.9581C6.96206 45.1369 6.1744 43.7811 5.8723 41.9269C5.0966 37.1592 7.58621 30.4896 12.369 24.5183C15.9753 20.0179 20.3932 16.5007 24.81 14.6143C26.9497 13.7004 28.9119 13.2371 30.6407 13.2371C32.0555 13.2371 33.254 13.5531 34.2051 14.1754C35.4574 14.9966 36.2451 16.3524 36.5472 18.2066C37.3229 22.9743 34.8333 29.6439 30.0505 35.6152C26.4442 40.1176 22.0263 43.6289 17.6094 45.5192C15.4688 46.4332 13.5076 46.8965 11.7788 46.8965Z" fill="#083751"/>
<path d="M5.56595 2.12985C5.50813 2.86023 5.55811 6.35722 6.87731 6.95231C5.96289 4.79549 6.93415 0.775955 11.519 0.756348C10.68 1.38183 10.0371 2.40828 9.75483 3.09356C9.45147 3.42445 9.18313 3.78584 8.95411 4.17197C9.28439 3.9759 10.3566 2.15436 14.3799 2.14162C15.4481 2.14162 16.6086 2.25828 17.5553 2.79749C15.9284 2.39455 14.1956 3.28767 12.845 4.19648C13.7967 3.8906 15.1816 2.97395 17.13 3.35532C18.4394 3.6112 18.9774 4.81804 20.0585 5.44057C20.9405 5.94939 22.1931 5.91115 22.7704 4.96215C22.9143 4.72649 22.9862 4.45387 22.9772 4.17785C23.2246 4.4396 23.4411 4.7291 23.622 5.04058C24.0235 5.7359 24.1911 6.54177 24.1003 7.33956C23.1467 7.24838 22.2078 7.57779 21.2512 7.46701C20.3249 7.34377 19.4496 6.97102 18.7187 6.3886C19.2389 7.16797 20.0242 7.73198 20.9288 7.97582C22.0794 8.28464 23.1996 7.85328 24.3493 8.05719C25.6616 8.28856 27.315 9.14443 28.8126 8.14837C29.0777 7.96766 29.3004 7.7315 29.4653 7.45622C29.7043 8.11446 29.7228 8.83255 29.5182 9.50226C29.4124 9.87884 29.2151 10.2234 28.9439 10.5052C28.6979 10.7493 28.397 10.8326 28.1148 11.0013C27.166 10.6091 26.1046 10.4768 25.0765 10.413C26.0007 10.7071 26.9475 11.0013 27.8207 11.4199C28.694 11.8385 29.284 12.4983 29.8956 13.2336C30.4042 13.8453 30.9972 14.4022 31.794 14.5914C32.3413 14.7218 32.9143 14.6939 33.4464 14.511C33.5885 15.31 32.8486 16.6129 31.8165 16.7855C32.3159 17.1041 32.8537 17.3581 33.417 17.5413C33.025 17.8943 32.089 18.158 31.4872 18.1894C32.9338 18.9482 33.662 20.9697 33.6287 22.6108C33.3964 22.1099 33.1298 21.5324 32.5242 21.0952C32.6947 21.7962 32.6633 22.652 32.534 23.4481C32.2478 23.1755 31.1618 21.9167 30.6992 21.3079C30.9237 20.607 30.8845 20.1236 30.7296 19.4099C30.5336 20.5864 29.6917 21.9363 29.2595 22.4775C29.4555 21.7452 29.3791 20.957 29.2595 20.2227C29.1131 19.395 28.8717 18.5871 28.5401 17.8149C27.8256 16.0708 27.8256 16.0708 27.2082 14.5522C26.8504 16.0021 26.5437 16.6786 26.0683 17.2658C26.0929 16.8013 26.0613 16.3356 25.9742 15.8786C25.9409 15.6884 25.644 14.2012 24.2532 12.2042C24.3738 13.1296 24.7433 14.2286 24.3052 15.2639C24.2767 14.4875 23.7642 12.2395 22.2107 11.3424C22.6459 12.0914 23.0281 14.4375 22.5047 15.0394C22.5547 13.7453 21.654 12.5522 20.672 11.7689C19.9448 11.1885 15.9127 8.93757 15.9186 8.94737C15.9245 8.95718 16.6664 12.1924 15.0443 12.4483C15.5403 11.3297 14.2936 8.9758 12.8882 8.54248C13.0528 7.75328 13.0087 6.80428 12.7363 6.09154C12.0384 6.84937 10.2704 6.88172 9.31282 7.71308C8.90118 8.06798 8.46308 8.60914 8.28569 9.23756L7.75448 9.97088C7.74342 9.90782 7.72011 9.84754 7.68588 9.79344L5.04063 7.2778C4.43788 6.13076 4.27322 3.36218 5.56595 2.12985Z" fill="#E61C3F"/>
<path d="M2.6748 6.05103L4.08187 7.52573C4.00564 7.66786 3.90369 7.8262 3.75307 7.86245C3.93273 7.90579 4.1202 7.83604 4.2325 7.68407L4.89746 8.38136C4.76244 8.6971 4.54018 9.08438 4.19484 9.14447C4.63662 9.27611 4.97461 8.98422 5.13166 8.62747L5.97847 9.51458C5.86642 9.93333 5.62119 10.4685 4.91491 10.5639C5.68181 10.7546 6.11624 10.2939 6.2586 9.80647L6.85559 10.4322C7.05122 11.0999 5.94908 11.8764 5.29423 11.698L2.6748 6.05103Z" fill="white"/>
<path d="M8.40718 48.1975C8.29194 49.7304 7.85978 52.6026 6.24538 53.3254C5.74864 53.1268 5.3135 52.4656 4.96777 51.6863C5.1466 50.5435 5.66321 50.197 6.65668 49.4494C7.2319 49.0176 7.6273 48.2581 7.8707 47.6525C8.0992 47.8927 8.29492 48.0873 8.40718 48.1975Z" fill="#9EA7AC"/>
<path d="M19.0416 44.4503C19.2161 44.8754 19.4508 45.4578 19.6865 46.0693C19.8344 46.4542 19.9823 46.8511 20.1154 47.2319C20.4674 48.2324 20.7228 49.1119 20.6084 49.3144C20.494 49.5169 19.8413 49.5884 18.9736 49.5159C18.453 48.7572 18.4687 48.1931 18.5792 47.2652C18.594 47.1362 18.6117 46.9992 18.6295 46.8541C18.664 46.4983 18.6379 46.139 18.5525 45.7922C18.4188 45.2546 18.2201 44.7362 17.9609 44.2488C18.3275 44.2735 18.6901 44.3411 19.0416 44.4503Z" fill="#9EA7AC"/>
<path d="M34.7759 28.4066C33.5468 31.0349 32.0101 33.511 30.1976 35.784C29.5209 36.6424 28.8175 37.4635 28.0875 38.2474C28.3269 36.4543 27.8045 34.571 26.6461 33.6832C27.7204 35.9585 27.4375 37.8751 26.5343 39.3243C25.1859 41.4712 22.6653 42.3952 21.1478 42.3629C19.9976 42.3284 18.8748 42.0072 17.8832 41.4291C17.8832 41.4291 13.6709 40.4031 13.3949 41.3487C13.1189 42.2943 14.5761 44.7146 14.5761 44.7146C14.5761 44.7146 15.5821 44.6675 15.6722 45.3848C16.0747 45.0544 16.5596 44.8374 17.0759 44.7567C17.4758 45.0202 17.7747 45.4091 17.9247 45.861C18.1978 46.7066 17.9059 47.6444 17.7506 48.3195C17.719 48.4445 17.6946 48.5711 17.6774 48.6987C17.6568 48.8518 17.6632 49.0073 17.6962 49.1583C17.7407 49.3514 17.8253 49.5333 17.9445 49.6923C17.6036 49.6272 17.2667 49.5427 16.9355 49.4395C16.576 49.3286 16.2258 49.1903 15.8878 49.026C15.36 48.7826 14.8916 48.4289 14.5147 47.9893C12.9665 48.0941 12.4373 48.4224 11.9634 47.567C11.8214 47.2912 11.7048 47.0032 11.6152 46.7066C10.9999 44.8194 9.6149 42.9008 9.04904 42.1208C8.48318 41.3409 9.1994 39.7006 10.5537 39.1107C11.908 38.5208 17.4143 37.1235 18.2284 36.0466C19.0426 34.9698 18.6716 32.6759 22.6277 31.2149C21.497 30.8514 18.2265 32.4633 17.4143 35.3147C15.8799 36.3102 11.9575 37.439 10.8901 37.7526C9.1262 38.27 8.13594 39.534 7.85005 40.3336C6.9785 40.6393 5.55693 41.1263 5.54407 41.8034C5.52923 42.5608 6.07332 43.6563 6.0387 45.2261C6.0387 45.473 6.28997 45.8865 6.63918 46.3314C6.8588 46.6126 7.11601 46.9065 7.36629 47.1789C7.3076 47.707 7.05772 48.1961 6.66293 48.5557C6.38038 48.8183 6.06876 49.0484 5.73401 49.2416C5.4026 49.4434 5.09098 49.609 4.8773 49.7678C4.69232 49.9063 4.54622 50.0895 4.45291 50.2998C4.29371 49.7704 4.18637 49.227 4.13238 48.6772C3.28063 47.5239 2.97 47.2074 2.8127 46.7174C2.80031 46.6735 2.79203 46.6286 2.78797 46.5832C2.72466 46.007 2.87503 44.2834 2.97 43.2869C3.08772 43.2732 3.33602 43.4398 3.81285 43.7063L3.91178 43.7651L3.78416 43.5691C3.09168 42.5167 2.30719 41.3566 2.65244 40.3032C2.83842 39.7368 3.20148 39.4213 3.77625 39.0813C3.77948 39.0784 3.78316 39.0761 3.78713 39.0744C4.00774 38.9422 4.26099 38.806 4.54788 38.6492C5.58265 38.0818 9.75142 36.7472 10.2935 35.6537C10.602 35.0463 10.9462 34.4574 11.3243 33.8899C11.4131 34.688 11.5876 35.4744 11.8447 36.2358C11.7834 30.7485 13.7955 27.3111 14.5879 26.1695C14.6794 27.2651 14.681 28.3661 14.5929 29.4619C15.6989 28.434 15.7691 23.9041 14.3594 20.2306C14.242 19.9242 14.1137 19.6247 13.9746 19.332C13.8262 19.0194 13.6659 18.7167 13.4938 18.4266C13.7735 17.8255 13.8956 17.1643 13.849 16.5041C13.8276 16.1922 13.7725 15.8834 13.6847 15.583C13.5356 15.0405 13.2696 14.5365 12.9052 14.1054C13.0615 14.8001 13.202 15.3998 13.2188 15.9946C13.2328 16.4111 13.1753 16.8269 13.0486 17.2243C13.013 17.335 12.9715 17.4467 12.924 17.5614C12.9319 17.482 12.9378 17.4036 12.9398 17.3252C12.9515 16.9931 12.9182 16.6609 12.8409 16.3375C12.7958 16.1481 12.7363 15.9624 12.6628 15.7819C12.6519 15.7565 12.6124 15.7751 12.6183 15.8006C12.6691 16.0171 12.6993 16.2379 12.7083 16.46C12.7242 16.8659 12.6802 17.2719 12.5777 17.6653C12.5338 17.8404 12.4807 18.0131 12.4185 18.1826C12.3267 18.4327 12.222 18.678 12.1049 18.9175C11.3263 19.8641 10.0858 20.161 9.44771 21.2849C9.38835 21.2604 9.32108 21.233 9.24986 21.2045C9.00957 21.1112 8.76255 21.0359 8.51087 20.9792C8.06274 20.8812 7.56217 20.8459 7.14964 21.0105C6.93636 21.0764 6.73378 21.1725 6.54817 21.2957C6.37885 21.4041 6.23729 21.55 6.13466 21.7219C6.37703 21.4525 7.12392 21.232 7.71748 21.2408C7.88176 21.2573 8.03872 21.3165 8.17255 21.4123C8.36754 21.5531 8.51787 21.7462 8.60584 21.9688C8.60584 21.9845 8.59793 21.9943 8.59694 22.0002C8.60139 21.993 8.60535 21.9854 8.60881 21.9777V21.9855C8.74434 22.3118 8.8215 22.7821 8.76314 23.4602C8.59595 24.1373 8.43668 24.7429 8.20519 25.0192C7.76398 25.5522 6.31668 26.4067 5.53912 26.5566C5.48048 26.5705 5.42101 26.5806 5.36105 26.587C5.15452 26.5986 4.9476 26.5723 4.75068 26.5096C4.68242 26.4909 4.61317 26.4674 4.54392 26.441C4.67772 26.3362 4.81672 26.2381 4.9604 26.147C5.11246 26.0497 5.27038 25.9617 5.43327 25.8834C5.62387 25.7926 5.80358 25.7051 5.97242 25.6208C7.2001 25.0172 7.85202 24.6155 8.05581 24.2431C8.24278 23.9011 8.10231 23.4259 7.81047 23.0134C7.67824 22.8226 7.51974 22.6511 7.33958 22.5039C7.25312 22.4329 7.16079 22.3694 7.06358 22.3138C7.20389 22.2761 7.35094 22.2701 7.49391 22.2961C7.62228 22.3175 7.74941 22.3457 7.87478 22.3804C7.80058 22.2981 7.42367 22.2079 7.31485 22.1452C6.95872 21.9375 6.64215 22.0267 6.39978 22.2971C6.08322 22.6499 5.64893 23.9002 4.90896 24.7566C4.40443 25.3445 3.44979 25.5591 2.89382 25.6385C2.10241 25.0839 1.60778 24.3235 1.54347 23.7199C1.47126 23.0016 1.6424 22.0325 2.37743 21.5857C2.93339 20.2649 3.9187 16.6482 3.98103 16.0857C4.04335 15.5233 3.35086 14.0162 3.41319 13.3117C3.45869 12.812 4.19174 11.6185 4.38761 11.3069L4.62998 11.8605C4.63592 11.8664 4.66065 11.8948 4.70319 11.933C4.34211 12.8149 4.30748 13.9349 4.53007 14.8246C4.5825 14.2612 4.629 13.7046 4.78827 13.1588C4.88719 12.8129 5.01481 12.4788 5.13847 12.1437C5.48966 12.2191 6.04167 12.1672 6.85484 11.6616C7.20717 11.4604 7.48835 11.1566 7.66011 10.7915L8.25367 10.1183C8.29501 10.2827 8.35682 10.4413 8.43767 10.5906C8.43767 10.1575 8.73445 9.43533 9.0797 8.89444C9.72273 7.87146 10.9563 7.56476 11.7398 7.18555C11.4272 7.47363 11.1008 7.74603 10.7971 8.04293C10.155 8.66809 9.76625 9.41475 9.86914 10.3143C10.2243 9.354 10.7832 8.64849 11.5786 8.0057C11.7764 7.84304 12.0732 7.62649 12.3255 7.37662C12.2167 8.08801 12.1276 8.79939 11.6577 9.41279C11.1018 10.1448 10.1451 10.8581 11.0048 11.8056C10.7674 11.1736 11.63 10.57 11.9941 10.1751C12.314 9.82653 12.5677 9.42353 12.743 8.98557C14.3258 9.9233 15.3695 12.2907 13.7965 12.7248C14.4692 13.1049 17.2946 13.3225 16.8771 10.1546C17.6685 10.6445 18.5124 11.0521 19.3503 11.5176L19.4165 11.5538C19.6664 11.6925 19.9091 11.8436 20.1437 12.0065C20.9123 12.5415 21.3891 13.0844 21.6721 13.5988C21.8298 13.8781 21.9398 14.1814 21.9975 14.4964C22.1459 15.3165 21.8531 15.9319 21.7077 16.0641C22.4813 16.0446 23.3894 15.487 23.431 13.7615C23.431 13.6948 23.431 13.6262 23.431 13.5567L23.4369 13.5714C23.4557 13.6262 23.4735 13.6791 23.4923 13.7321C24.072 15.486 24.078 16.4816 24.078 16.4816C24.5726 16.0436 25.1286 15.4752 25.2018 14.4013C25.2364 14.5806 25.7498 16.3542 25.6291 18.1464C25.9823 18.0278 26.8964 17.826 27.4217 16.4316C27.5869 16.9215 28.1043 17.9641 28.4347 19.1174C28.6543 19.8827 28.8185 20.7009 28.7839 21.5005C28.7275 22.8145 28.0914 23.4602 28.041 23.6091C28.0865 23.616 29.5654 23.7346 30.4726 22.2148C31.351 23.7836 32.7113 26.1705 34.7759 28.4066Z" fill="#E5ECEF"/>
<path d="M6.87891 16.6409C7.20192 16.0901 7.73714 15.3166 8.43575 14.7499C8.62355 14.9058 8.73435 15.2551 8.77191 15.4761C8.92027 16.3209 8.12683 16.0197 6.87891 16.6409Z" fill="#FFCE55"/>
<path d="M1.41623 24.5831C1.41623 24.5831 1.58665 23.0258 2.98586 22.6734C2.80285 21.9374 3.34414 20.5739 4.31245 20.8558C4.52355 18.9472 5.03966 16.5491 5.03966 16.5491C5.03966 16.5491 6.07382 16.8672 6.20163 16.3044C6.32945 15.7416 6.78262 13.9553 8.40745 13.4659C7.02179 13.4659 6.23552 14.8098 5.70392 15.7396C4.91281 15.7152 4.27663 14.9321 4.52645 13.7086C4.77628 12.4851 4.91378 11.6776 4.91378 11.6776L4.31633 10.968C4.31633 10.968 2.83384 12.4646 3.0827 13.4659C3.33155 14.4672 3.99775 15.7064 3.66368 16.416C3.32962 17.1256 2.0863 21.1377 2.0863 21.1377C1.04052 22.4229 0.947564 23.3322 1.41623 24.5831Z" fill="white"/>
<path d="M23.191 31.3904C21.9908 31.3904 18.6466 33.8427 18.6466 36.398C16.8036 37.2213 12.2295 38.9543 12.2295 38.9543L19.2487 37.7533C19.2487 37.7533 21.2765 38.628 22.6356 37.7533C23.9947 36.8786 23.6569 35.1723 23.6569 35.1723C21.9858 36.6728 19.2924 33.6544 23.191 31.3904Z" fill="white"/>
<path d="M17.1973 15.8844C19.5476 18.0679 24.4337 23.3346 22.4778 27.9867C21.8692 24.6629 19.6951 19.8703 17.1973 15.8844Z" fill="white"/>
<path d="M1.91113 25.1533C1.91113 25.1533 2.47108 25.5755 2.9666 25.1533C3.70494 24.5244 3.09247 22.903 3.56123 22.4876C4.03 22.0723 4.99231 22.163 5.09043 22.3258C4.83573 21.6433 4.61869 20.8954 4.78419 20.6029C4.9497 20.3104 5.54036 18.5554 6.76629 17.7754C6.24302 18.6666 5.33323 20.8389 5.73362 21.8051C6.10526 21.2981 7.82275 20.8233 8.58289 21.5584C9.34303 22.2936 9.39357 24.348 8.58289 25.3356C7.77221 26.3233 5.65235 27.3627 5.09043 27.2164C3.42447 26.5632 2.6901 26.026 1.91113 25.1533Z" fill="#9EA7AC"/>
<path d="M5.73242 21.7755C6.86653 20.0293 8.09498 20.7743 9.10892 18.465C9.23987 18.8003 9.23987 19.1726 9.10892 19.5079C10.8151 18.764 13.1051 15.527 12.3325 12.4807C13.0277 13.4402 13.6483 16.4537 13.2511 17.869C12.8539 19.2844 11.0663 20.2777 10.7187 20.8488C10.3711 21.4199 9.18142 22.3138 9.18142 22.3138C8.58954 21.261 6.91519 21.5073 5.73242 21.7755Z" fill="#9EA7AC"/>
<path d="M6.11426 17.3505C6.11426 17.3505 7.94043 17.5672 8.87796 17.068C9.81549 16.5688 10.318 14.9366 10.318 14.3717C10.0452 15.1421 9.12041 15.669 9.12041 15.669C8.78568 16.0292 8.37564 16.3025 7.92283 16.4671C7.18767 16.7249 6.40754 16.9653 6.40754 16.9653L6.11426 17.3505Z" fill="#9EA7AC"/>
<path d="M5.53306 10.1606C5.53306 10.1606 5.99213 9.69993 5.8868 9.07207C5.71987 9.58849 5.36414 9.68799 5.20516 9.68799C5.04618 9.68799 4.42217 8.69296 4.42217 8.69296C4.42217 8.69296 5.09685 8.05415 4.88819 7.62828C4.67853 8.06311 4.10818 8.44918 4.10818 8.44918L3.43945 7.52181C3.43945 7.52181 4.23437 7.15563 4.10818 6.80737C3.86076 6.80737 6.69165 9.33973 6.69165 9.33973L7.26101 10.2651C7.26101 10.2651 7.26101 10.8124 6.40847 11.3457C5.7467 10.5945 5.53306 10.1606 5.53306 10.1606Z" fill="#9EA7AC"/>
<path d="M13.3488 16.8392C14.2092 16.3781 12.2295 13.5651 12.2295 12.8589C15.3928 15.7452 18.1181 20.3799 16.9015 24.3954C16.6095 23.5651 15.7821 21.8695 15.7821 21.8695C15.7821 21.8695 17.1954 25.7277 14.8828 28.3649C15.1008 24.9463 13.6846 19.7968 13.0082 19.1346C13.6165 18.0748 13.3488 16.8392 13.3488 16.8392Z" fill="#9EA7AC"/>
<path d="M21.4005 31.4013C19.8259 31.2676 17.0398 32.3653 16.3017 34.5452C16.3469 33.7391 16.2121 32.8178 17.2386 31.8005C15.8608 31.8005 14.0893 33.7382 14.0893 35.361C11.7756 36.4267 4.74004 39.7286 4.17317 40.213C3.60631 40.6974 3.69784 41.21 4.64162 43.4257C4.05016 45.0573 3.17526 46.0232 5.39252 47.9154C6.3058 48.6905 6.73291 48.7874 6.73291 48.7874L7.67768 46.8768C7.67768 46.8768 5.44468 42.7931 6.0883 41.7632C7.60682 40.7459 8.18353 40.6006 8.18353 40.6006C8.18353 40.6006 8.72382 39.0019 11.4794 38.2269C14.235 37.4518 17.7346 35.8532 17.7346 35.8532C18.4668 32.2684 20.7303 31.816 21.4005 31.4013Z" fill="#9EA7AC"/>
<path d="M27.4857 38.8198C27.4857 38.8198 27.8841 34.3589 25.7447 32.525C26.2905 33.665 26.5415 35.945 25.7447 37.085C25.7556 36.0712 25.4024 35.0869 24.7487 34.3094C24.7487 34.3094 25.8284 38.3242 22.8075 39.2907C20.426 39.8111 19.4699 38.7207 19.4699 38.7207C16.9301 39.6128 13.2946 39.9598 12.2488 40.2076C11.5516 41.7937 11.5516 44.9956 13.9679 47.2746C13.7902 46.7128 13.6485 46.1403 13.5436 45.5607C13.5436 45.5607 14.3135 46.7998 15.1472 46.6015C15.9809 46.4033 17.1671 45.2742 18.5167 47.0536C17.9808 45.2137 17.3514 44.5198 17.3514 44.5198L15.6332 44.6189L14.438 43.9746L13.5914 41.7441L17.3514 42.0911C17.3514 42.0911 21.0585 44.1798 23.4021 42.785C25.7457 41.3903 27.4857 38.8198 27.4857 38.8198Z" fill="#9EA7AC"/>
<path d="M6.26052 22.6918C6.33353 22.6903 6.40636 22.6994 6.47676 22.7187C6.45389 23.3532 5.6804 24.1595 5.6804 24.1595C6.28859 23.8169 6.70133 23.526 6.94252 23.0116C7.20108 23.2855 7.3117 23.6663 7.23986 24.0353C7.12758 24.5207 5.1325 25.3394 4.2041 25.7172C5.53796 24.8571 5.60554 22.7094 6.26052 22.6918Z" fill="white"/>
<path d="M31.3585 22.8344L30.5588 21.6244C30.5588 21.6244 29.4992 23.178 28.8094 23.4717C29.4332 20.8284 28.2596 17.7397 27.2599 16.1028C27.0834 16.962 26.5131 17.6938 25.7135 18.0872C25.7135 18.0872 25.7414 16.3701 25.3436 14.9995C25.2427 14.6159 25.0797 14.2507 24.8607 13.9177C24.8219 14.3956 24.726 14.8675 24.5748 15.3235C24.4908 15.5997 24.3683 15.8632 24.211 16.1067C24.211 16.1067 24.153 15.8864 24.06 15.5624C23.9601 15.2227 23.8261 14.7675 23.6772 14.3308C23.4712 13.7219 23.2413 13.1501 23.0614 12.9759C23.0364 13.3254 23.1413 13.9705 23.0324 14.6402C22.9688 15.1057 22.7684 15.5431 22.4556 15.8992L22.3876 15.8072C22.3501 15.5533 22.2983 15.3016 22.2326 15.0533C22.0467 14.3377 21.6648 13.2911 20.9431 12.7233C20.8671 12.6636 20.7811 12.5999 20.6872 12.5353C20.3493 12.2994 19.9084 12.0341 19.4396 11.7678C18.0901 11.0052 16.5036 10.2454 16.4326 10.2112C17.3093 10.7546 18.1226 11.3905 18.8578 12.1075C19.1664 12.4133 19.452 12.7405 19.7125 13.0865C20.4892 14.1262 20.7911 15.0749 20.8521 15.8453C20.8786 16.1676 20.8614 16.4918 20.8011 16.8096C19.8844 16.0411 18.7638 15.2158 17.9201 14.9574C18.373 15.3744 19.4196 16.5904 20.3883 17.7544L20.3733 17.7691C20.4163 17.8063 20.4572 17.8474 20.4992 17.8865C20.9761 18.4583 21.4299 19.0104 21.7808 19.4392C23.6182 22.25 24.5379 26.539 23.4622 29.006C24.5868 28.8347 25.8184 26.8875 25.6865 25.2369C25.5865 23.9642 25.0667 22.3831 24.7538 21.5167C31.2826 27.8028 31.8334 32.2436 32.0093 32.6773C31.1236 31.4731 27.9977 28.6076 27.8997 28.5185C27.9557 28.6164 30.4189 32.8545 31.2436 34.7939C32.902 32.503 34.2246 30.1446 35.1582 27.8557L31.3585 22.8344Z" fill="#9EA7AC"/>
<path d="M10.6123 11.0802C11.3688 10.8948 12.3884 10.5491 12.6386 10.018C13.239 10.2594 14.5899 11.5128 14.2146 12.4803C14.9831 11.5852 14.2787 9.37105 12.4455 8.64202C12.4455 8.25578 12.2634 6.80737 12.2634 6.80737C12.2634 6.80737 8.56097 9.30443 9.81178 11.4094C10.0119 10.4815 10.7124 9.53521 10.7124 9.53521L10.6123 11.0802Z" fill="#9EA7AC"/>
<path d="M4.39575 7.5638C4.39575 7.5638 4.25921 5.18915 4.8999 4.41434C4.8999 5.12683 5.29616 6.4681 6.49638 7.14617C5.71151 5.53051 5.54155 1.89087 5.54155 1.89087C3.58892 3.60233 3.43615 5.27007 4.39575 7.5638Z" fill="#F0ABAB"/>
<path d="M6.1501 6.05111C6.1501 6.05111 5.62151 2.13296 8.62409 1.09015C11.6267 0.047331 11.8466 0.457821 11.8466 0.457821C11.8466 0.457821 8.98183 3.31798 8.21255 4.81869C8.21255 4.02899 8.50705 2.52449 9.47927 1.78504C7.82271 1.97464 6.31057 4.35132 6.1501 6.05111Z" fill="#F0ABAB"/>
<path d="M9.55371 2.88627C10.9436 2.56158 13.5646 2.26553 15.5026 2.92638C13.306 3.30838 11.958 4.12012 11.5177 4.82013C13.7393 3.86514 16.4252 3.54522 17.7282 4.54987C19.0312 5.55452 20.5409 7.51034 22.7975 5.55452C22.7975 6.26885 23.0032 6.80938 22.7975 7.41484C24.0126 7.75004 24.4559 7.41484 24.4559 7.41484C24.4559 7.41484 24.5877 4.3264 22.6257 3.56241C22.6058 4.60048 21.3936 5.28139 20.3952 5.02641C19.3967 4.77143 17.6903 2.9579 17.6903 2.9579C17.6903 2.9579 17.5625 1.21599 13.305 1.55693C10.9436 1.513 9.55371 2.88627 9.55371 2.88627Z" fill="#F0ABAB"/>
<path d="M18.7256 6.4292C19.1181 7.36667 19.9031 8.72025 21.2956 8.9629C22.6881 9.20556 23.9667 8.56238 24.685 8.9629C25.4033 9.36342 27.5946 10.0953 28.6102 9.20458C28.9704 9.6129 28.0538 11.1068 27.3021 10.945C25.2414 10.4169 25.7419 10.4471 23.6713 10.4247C25.9165 11.1702 27.6554 12.2099 28.2442 13.1192C28.833 14.0284 29.725 15.8214 31.7769 15.6168C31.5482 16.1723 31.1557 16.4529 30.1744 16.374C30.4688 16.8544 31.2862 17.5288 32.0713 17.5288C31.615 17.7968 30.403 17.7968 30.403 17.7968C30.403 17.7968 32.3745 19.7458 32.6267 21.191C33.2243 22.7755 33.8474 23.0698 33.8474 23.0698C33.8474 23.0698 34.5903 20.2087 32.7582 18.4136C34.1977 17.7968 34.394 17.5531 34.394 17.5531L32.5953 16.6186C32.5953 16.6186 34.812 15.4034 33.871 13.9962C32.2028 14.386 31.6954 14.3919 30.5738 13.5489C29.4522 12.706 28.5719 11.4245 28.5719 11.4245C28.5719 11.4245 31.09 10.1956 29.4561 6.97979C28.2128 8.0956 27.4307 8.33727 25.6624 7.87926C23.8941 7.42124 21.7038 8.09657 21.1798 7.87926C20.6558 7.66194 18.7256 6.4292 18.7256 6.4292Z" fill="#F0ABAB"/>
<path d="M12.6908 35.172C12.3731 33.0243 13.0476 29.7285 14.0123 28.2573C14.0123 29.38 14.7174 31.0718 14.7174 31.0718C14.7174 31.0718 17.2812 27.9733 16.9529 25.7172C17.8174 27.818 16.2182 31.2027 14.7966 32.6016C13.3749 34.0006 12.6908 35.172 12.6908 35.172Z" fill="white"/>
<path d="M11.0362 39.3412C10.0709 39.4414 8.82565 40.895 9.26145 41.8976C9.69726 42.9001 11.0362 45.0053 11.0362 45.0053L10.1222 42.1732C10.1222 42.1732 11.0362 41.5717 11.0362 40.7948C11.0362 40.0179 12.0005 39.2409 11.0362 39.3412Z" fill="white"/>
<path d="M20.2539 17.0189C22.4338 20.0567 23.1987 22.4377 23.3863 24.013C23.4811 24.8276 23.5038 25.9956 23.5711 26.4738C23.9604 25.803 24.1317 25.017 24.0592 24.2346C23.6962 19.9499 20.4008 17.1267 20.2539 17.0189Z" fill="#083751"/>
<path d="M3.10242 21.9886C2.51939 22.1654 2.67444 22.9102 2.75773 23.4481L2.86921 23.3643C3.00375 22.6011 3.20365 22.1805 3.82127 22.1344C3.82127 22.131 3.68673 21.8118 3.10242 21.9886Z" fill="#083751"/>
<path d="M8.79341 16.4695C8.24465 16.7139 7.39273 16.795 6.87891 16.9008C7.52119 17.1242 8.46251 17.003 8.96811 16.7695C9.63095 16.4695 9.90635 15.781 9.93616 15.1281C9.57442 15.6706 9.39561 16.1996 8.79341 16.4695Z" fill="#082E44"/>
<path d="M32.7641 24.3226C32.8426 24.0482 33.0388 23.639 32.9436 22.8919C33.17 23.3189 33.311 23.7855 33.3586 24.266C35.1865 22.0569 33.3881 18.8947 33.132 18.673C33.8315 18.4777 34.3093 17.9123 34.7999 17.1105C34.1131 17.132 33.7089 17.0919 33.0967 16.8751C34.3368 16.2326 34.0641 14.4766 33.8315 13.4971C33.0986 14.003 31.887 13.8712 31.1109 13.3995C30.1759 12.8291 30.0258 12.1133 28.8857 11.4014C29.2253 11.2716 29.5177 11.0429 29.7246 10.7451C29.951 10.4122 30.0986 10.0326 30.1563 9.63472C30.3407 8.52531 30.012 7.17469 29.2988 6.2899C27.9105 8.16104 25.1094 7.4452 24.9122 7.39735C25.0829 6.1815 24.1969 3.19802 22.114 3.16091C22.32 4.81427 21.0564 5.32015 19.8829 4.45489C19.4306 3.46853 18.7939 2.5437 17.8638 1.99193C16.7944 1.35617 15.3914 1.23019 14.1718 1.26926C13.175 1.29758 12.2155 1.56809 11.4394 1.83763C11.6788 1.16281 12.5824 0.487985 12.7443 0.421577C10.3896 -0.768885 6.44258 0.675491 5.92945 3.32791C5.83134 2.03295 5.85488 0.932333 5.89119 0.793658C3.50804 1.78783 3.4482 4.91682 3.47665 6.03403L0.619625 3.32595L3.53159 10.0205C3.45604 10.2343 3.35401 10.4892 3.23725 10.7588C3.04103 11.21 2.82028 11.7041 2.63092 12.1348C2.47189 12.4656 2.33585 12.8069 2.22376 13.1563C2.11191 13.6651 2.89681 15.5265 2.81243 16.1779C2.72496 16.8202 2.59882 17.4568 2.4347 18.0842C2.211 18.9758 1.93335 19.8674 1.69003 20.552C1.58407 20.8508 1.48301 21.1106 1.39569 21.3128C0.416533 22.1106 0.394949 23.4193 0.382992 24.0316C0.363553 25.0511 1.92746 26.2123 2.53575 26.5815C2.63387 26.6401 2.74768 26.7065 2.87228 26.7768C3.29966 27.0187 3.74471 27.2283 4.20366 27.4038C4.49808 27.522 4.80924 27.5939 5.12591 27.6166C6.0825 27.6352 8.43327 26.2328 8.74821 25.8314C9.06315 25.4301 9.3516 23.2337 9.68224 22.4544C10.2493 21.1135 10.6634 21.6731 12.4725 19.6135C12.8326 20.3049 13.6342 22.0462 14.0639 24.5511C11.8309 26.6869 11.0362 29.481 10.9567 31.9625C10.7286 32.1854 10.5149 32.4225 10.317 32.6725C9.84089 33.2595 9.43584 33.9003 9.11024 34.5817C8.68149 35.488 7.60422 36.0798 6.42295 36.5729C6.057 36.7253 5.68024 36.8659 5.31036 37.0095C4.76486 37.2175 4.23113 37.4187 3.7651 37.6335C2.2061 38.3533 1.56346 39.2527 1.3015 40.2781C1.09645 41.0838 1.53894 42.2616 1.7381 42.7303C1.62527 43.6386 1.32799 46.2597 1.57916 46.914C1.88527 47.7109 1.95885 47.8838 3.02729 49.1758C3.41091 51.173 4.39007 53.84 6.33269 54.4601C8.03592 54.1926 9.09847 49.7383 9.1279 47.9981L8.98858 47.6973C8.98858 47.6973 7.00476 45.54 6.91548 44.8154C6.82619 44.0907 6.93706 43.5702 6.38175 41.9549C6.77825 41.7751 7.19039 41.6316 7.61305 41.5262C7.66898 41.9989 7.87894 42.785 8.57651 43.7724C9.74699 45.4257 10.474 48.5362 11.2501 49.0245C12.0261 49.5127 13.5066 49.0664 13.5066 49.0664C13.5066 49.0664 17.5744 52.6124 21.4056 50.6436C21.5538 49.7286 21.2281 48.2881 20.8101 47.0078C20.6796 46.6064 20.5383 46.2216 20.401 45.872C20.0664 45.0243 19.7476 44.3944 19.6161 44.2802C19.6161 44.2802 18.4839 43.5809 15.9624 44.0946C15.7956 43.9218 15.0637 43.7548 14.785 43.7157C14.5535 43.2694 14.114 42.0331 14.3288 41.9041C14.5584 41.7664 15.8358 42.0018 16.6835 42.1874C17.6254 42.3924 18.7056 43.5849 20.7198 43.622C22.8783 43.663 26.066 42.1249 27.0755 40.2039C28.2107 38.0486 27.8251 34.9469 26.2426 33.7262C27.3071 35.9938 27.0275 37.904 26.1317 39.3484C24.7935 41.492 22.2936 42.412 20.7885 42.3837C19.6479 42.3499 18.5343 42.0301 17.5508 41.4539C17.5508 41.4539 13.3673 40.4305 13.0926 41.3729C12.97 41.8006 13.1986 42.5262 13.4851 43.1942C13.7159 43.7204 13.978 44.2323 14.27 44.7275C14.27 44.7275 15.2678 44.6786 15.357 45.3945C15.6026 45.19 15.8817 45.0291 16.1822 44.9189C16.3657 44.8513 16.5553 44.8009 16.7483 44.7685C17.1224 45.0187 17.4075 45.3804 17.5626 45.8017C17.7333 46.2773 17.7166 46.7881 17.6411 47.2666C17.5538 47.8223 17.385 48.333 17.3399 48.6973C17.2933 49.0493 17.3885 49.4053 17.6048 49.6876C16.3342 49.4395 14.9352 48.9063 14.2032 47.9922C12.292 48.1211 11.9418 48.5948 11.3286 46.7129C10.7154 44.831 9.34473 42.9198 8.78353 42.1424C8.62005 41.8915 8.55542 41.5893 8.60202 41.2938C8.66006 40.8693 8.82473 40.4662 9.08081 40.1219C9.38285 39.6931 9.79576 39.3536 10.2758 39.1394C11.6199 38.5535 17.0799 37.1579 17.8864 36.0856C18.6928 35.0133 18.3259 32.7262 22.2494 31.2691C21.128 30.9068 17.8854 32.5133 17.0799 35.3561C15.5572 36.3474 11.668 37.4734 10.6094 37.7849C9.69741 38.0466 8.88012 38.5635 8.2547 39.2742C7.97808 39.5867 7.75858 39.9449 7.60618 40.3328C7.60618 40.3436 7.59735 40.3543 7.59441 40.365C6.72906 40.6688 5.31919 41.1561 5.30644 41.8299C5.29172 42.5848 5.83134 43.6767 5.797 45.2411C5.78915 45.6435 6.47397 46.4873 7.11366 47.1885C6.97238 48.6885 5.32214 49.2676 4.65105 49.7686C4.46621 49.9048 4.31932 50.0856 4.22426 50.294C4.06615 49.7665 3.96001 49.2248 3.90736 48.6768C3.06262 47.5273 2.75356 47.2119 2.59756 46.7236C2.48179 46.3603 2.65054 44.3935 2.75356 43.3055C2.87915 43.2909 3.15288 43.4823 3.69348 43.7811C2.98314 42.6854 2.08444 41.4481 2.44353 40.3328C2.70058 39.5515 3.29514 39.2498 4.32336 38.6843C4.62456 38.5183 5.19459 38.2859 5.86273 38.0144C6.21496 37.8708 6.59367 37.7156 6.97532 37.5525C8.33418 36.9743 9.72246 36.2995 10.0227 35.6969C10.4779 34.775 10.8076 34.3297 11.044 33.9391C11.1327 34.7341 11.3061 35.5175 11.5611 36.2761C11.4993 30.8072 13.4949 27.3803 14.2827 26.2436C14.3717 27.3352 14.3717 28.4323 14.2827 29.5239C15.5709 28.3237 15.4453 22.3216 13.1927 18.5266C14.0266 16.7199 13.2388 14.9132 12.604 14.2198C12.8905 15.503 13.125 16.466 12.6217 17.6642C12.6819 17.0613 12.5933 16.4529 12.3636 15.8917C12.3538 15.8644 12.3136 15.8829 12.3195 15.9093C12.5069 16.7072 12.3999 17.5168 12.1233 18.2834C12.032 18.5314 11.927 18.7775 11.8113 19.0158C11.0391 19.9592 9.80978 20.2561 9.17696 21.3753C8.70111 21.1721 7.65034 20.7991 6.89487 21.1018C6.68499 21.1683 6.48576 21.2643 6.30326 21.387C6.13483 21.4948 5.99405 21.6402 5.89217 21.8118C6.13352 21.5432 6.87329 21.3235 7.46196 21.3323C7.56007 21.3391 8.06731 21.4085 8.34497 22.0589C8.34497 22.0726 8.3381 22.0843 8.33712 22.0892L8.34889 22.0657C8.48429 22.3919 8.5618 22.8636 8.50391 23.5433C8.34202 24.2142 8.18505 24.8207 7.95448 25.099C7.5169 25.6303 6.0825 26.4828 5.31134 26.6303C4.97707 26.6848 4.63411 26.6424 4.32336 26.5082C4.59597 26.2897 4.89212 26.102 5.20636 25.9486C6.77616 25.1957 7.58068 24.7357 7.8083 24.3138C8.11833 23.7415 7.51396 22.7943 6.82718 22.3987C7.10189 22.3147 7.408 22.4095 7.63169 22.4651C7.31872 22.1145 6.42099 21.9192 6.08152 22.2464C5.25346 23.0443 5.26229 24.8197 3.83868 25.4096C3.47015 25.5575 3.08455 25.6592 2.69077 25.7123L2.68292 25.7064C1.88821 25.1586 1.39765 24.4037 1.34075 23.804C1.27698 23.1693 1.4055 22.3392 1.94119 21.8509C2.01082 21.7865 2.08674 21.7293 2.16783 21.68C2.34345 21.26 2.56028 20.6057 2.783 19.8918C3.24903 18.3703 3.71604 16.5802 3.75823 16.1993C3.82004 15.6398 3.13227 14.1368 3.19605 13.4336C3.22842 13.0606 3.64442 12.3008 3.93385 11.8115C4.03196 11.6484 4.11241 11.5186 4.16147 11.4365L4.28607 11.7188L4.40184 11.9834C4.42449 12.0087 4.44874 12.0325 4.47445 12.0547C4.11536 12.9336 4.082 14.0509 4.30275 14.9376C4.35475 14.3761 4.40086 13.8223 4.55784 13.2774C4.65596 12.9327 4.78154 12.6006 4.90614 12.2656C5.25444 12.3408 5.8019 12.2891 6.60839 11.7861C6.94857 11.5881 7.22181 11.2936 7.39328 10.9404C7.39614 10.9328 7.39941 10.9253 7.40309 10.918L7.99176 10.247C8.03181 10.411 8.09281 10.5692 8.17327 10.7178C8.17327 10.3838 8.35085 9.87789 8.58927 9.41694C8.65893 9.28119 8.73447 9.14935 8.811 9.0263C9.45167 8.00772 10.6741 7.70107 11.4512 7.32411C11.1431 7.61025 10.8174 7.88174 10.5172 8.17667C10.2345 8.44477 10.0001 8.75925 9.8245 9.10638C9.62941 9.50421 9.5486 9.94797 9.59099 10.3886V10.4414C9.59884 10.4218 9.60669 10.4013 9.61356 10.3818C9.80978 9.85905 10.0949 9.37377 10.4563 8.9472C10.7071 8.65308 10.985 8.38301 11.2864 8.14054C11.4826 7.97842 11.7769 7.7626 12.0271 7.51454C11.9814 7.88198 11.9116 8.24605 11.8181 8.60442C11.7275 8.94258 11.5741 9.26088 11.3658 9.54292C11.2383 9.71089 11.0911 9.87691 10.9489 10.0459C10.473 10.6113 10.0609 11.2002 10.7173 11.9287C10.4828 11.2988 11.3384 10.6963 11.6984 10.3017C11.8557 10.1322 11.9963 9.94805 12.1184 9.75191C12.2444 9.55009 12.3524 9.33769 12.4411 9.11712C12.6408 9.23699 12.8287 9.3753 13.0023 9.53022C14.2278 10.6142 14.8498 12.4658 13.486 12.8438C14.1542 13.2217 16.9563 13.4385 16.5412 10.2822C17.3497 10.7793 18.2092 11.1982 19.0617 11.6768C22.5379 13.6299 21.6274 15.8966 21.334 16.1779C22.1307 16.1583 23.0706 15.5587 23.0431 13.6768C23.0431 13.6817 23.048 13.6876 23.05 13.6934C23.6789 15.5392 23.6848 16.5919 23.6848 16.5919C24.1812 16.1564 24.7277 15.589 24.7993 14.5196C24.8347 14.6983 25.3429 16.465 25.2242 18.2521C25.5734 18.1349 26.48 17.9328 27.001 16.5431C27.1648 17.0314 27.6789 18.0705 28.0066 19.2199C28.2244 19.9827 28.3863 20.7981 28.353 21.595C28.2961 22.9046 27.6662 23.5482 27.6161 23.6966C27.6613 23.7035 29.129 23.8216 30.0268 22.3079C30.9098 23.8958 32.2912 26.3315 34.3986 28.5932C34.4673 28.6675 34.5723 28.7749 34.693 28.894C34.8411 28.4155 34.9951 27.9389 35.159 27.4653C34.3986 26.7729 33.5401 25.7592 32.7641 24.3226ZM17.6264 44.7275C17.9898 44.7517 18.3493 44.8172 18.6978 44.9228C18.8714 45.3349 19.1049 45.8994 19.3394 46.4922C19.4866 46.8652 19.6337 47.25 19.7662 47.6191C20.1165 48.5889 20.3706 49.4415 20.2568 49.6378C20.1429 49.834 19.4934 49.9034 18.6301 49.8331C18.112 49.0977 18.1277 48.5508 18.2376 47.6514C18.2523 47.5264 18.27 47.3936 18.2876 47.2529C18.322 46.908 18.2961 46.5597 18.2111 46.2236C18.0793 45.7027 17.8829 45.2001 17.6264 44.7275ZM6.37292 49.4385C6.94098 49.0137 7.33147 48.2666 7.57185 47.6709C7.80045 47.9072 7.99373 48.0986 8.10459 48.2071C7.99078 49.7149 7.564 52.5402 5.96968 53.2511C5.47912 53.0558 5.04938 52.4054 4.70795 51.6388C4.88456 50.5147 5.39278 50.1739 6.37292 49.4385ZM6.51224 22.7776C6.58113 22.7763 6.64987 22.7848 6.71631 22.803C6.69472 23.4017 5.96477 24.1625 5.96477 24.1625C6.53873 23.8392 6.92823 23.5648 7.15585 23.0794C7.39985 23.3378 7.50425 23.6971 7.43645 24.0453C7.33049 24.5033 5.44772 25.2758 4.57158 25.6322C5.83036 24.8217 5.89413 22.7952 6.51224 22.7786V22.7776ZM6.29246 11.2148C5.93436 11.4893 5.45066 11.6543 5.09255 11.5605L5.07391 11.5205L4.54509 10.4297L2.28851 5.77914L3.79551 7.28895C3.71408 7.43446 3.60616 7.59658 3.44427 7.63466C3.63666 7.67846 3.83705 7.60676 3.9574 7.45106L4.66773 8.16593C4.52252 8.4882 4.28411 8.8847 3.91619 8.9472C4.38811 9.08197 4.74916 8.78313 4.91693 8.41789L5.82153 9.32709C5.72341 9.67866 5.52719 10.1084 5.04644 10.3037C4.93084 10.3516 4.80948 10.3845 4.68539 10.4013C5.22304 10.5283 5.60862 10.3691 5.85292 10.1084C5.97649 9.97095 6.06767 9.80779 6.11979 9.63081L6.4465 9.95797L6.75751 10.2715C6.86053 10.5967 6.63291 10.956 6.29246 11.2158V11.2148ZM32.2922 23.3743C32.0057 23.1038 30.9186 21.8479 30.4555 21.2425C30.6802 20.5442 30.64 20.0618 30.4859 19.3508C30.2897 20.5227 29.4479 21.8684 29.0142 22.4085C29.2105 21.678 29.1339 20.8928 29.0142 20.1575C28.8682 19.333 28.6269 18.5282 28.2951 17.759C27.5798 16.0206 27.5798 16.0206 26.9617 14.5089C26.6036 15.9532 26.2975 16.6271 25.8207 17.2111C25.8462 16.7488 25.8156 16.2852 25.7294 15.8302C25.6951 15.6398 25.3998 14.1593 24.0056 12.169C24.1283 13.0918 24.4962 14.1856 24.0586 15.2179C24.0292 14.4444 23.517 12.2051 21.9629 11.3115C22.3976 12.0576 22.7802 14.3956 22.2573 14.9942C22.3083 13.7051 21.4066 12.5176 20.4235 11.7354C19.6975 11.1582 15.6788 8.92669 15.6651 8.92669C15.672 8.93646 16.4137 12.1582 14.7899 12.4131C15.1382 11.6318 14.6261 10.2392 13.8029 9.33197C13.4556 8.94817 13.0524 8.64836 12.6344 8.52238C12.6433 8.48039 12.6511 8.4384 12.658 8.39543C12.7934 7.63564 12.7404 6.7528 12.4824 6.08384C11.7789 6.83581 10.0099 6.86804 9.05039 7.69619C8.63244 8.05069 8.19486 8.59367 8.01727 9.21478L7.71116 9.63569L7.48551 9.94527C7.47443 9.88245 7.4511 9.8224 7.41683 9.76851L7.36777 9.72163L4.77369 7.26258C4.1703 6.11997 4.00547 3.36209 5.29957 2.13451C5.24168 2.86207 5.29172 6.34752 6.61231 6.93347C5.69692 4.78498 6.66921 0.785845 11.2599 0.76143C10.4191 1.38547 9.77544 2.40698 9.49386 3.09059C9.19045 3.42067 8.92155 3.78061 8.6913 4.16484C9.02292 3.96952 10.0963 2.15405 14.1238 2.14233C15.1932 2.14233 16.3548 2.25854 17.3026 2.79567C15.6739 2.39429 13.9383 3.28396 12.5864 4.18926C13.54 3.88456 14.9253 2.97145 16.8768 3.35134C18.1876 3.60623 18.7262 4.80841 19.8084 5.42953C20.6914 5.9354 21.9453 5.89829 22.5231 4.95295C22.6665 4.71789 22.7384 4.44654 22.7302 4.17168C22.9778 4.43338 23.1941 4.72275 23.3748 5.03401C23.7764 5.72673 23.9446 6.52932 23.8545 7.32411C23.3937 7.29523 22.9311 7.31684 22.4751 7.38856C21.9845 7.44813 21.4939 7.50673 21.0034 7.45106C20.3155 7.3656 19.653 7.13879 19.0578 6.78503C18.853 6.66377 18.6564 6.52937 18.4692 6.38268C18.5812 6.54377 18.7042 6.69712 18.8371 6.84167C19.3294 7.38634 19.9708 7.776 20.6826 7.9628C21.8334 8.2714 22.9558 7.8417 24.1057 8.04385C24.8484 8.17374 25.699 8.50285 26.5693 8.58586C27.2404 8.64934 27.9222 8.56633 28.5747 8.13468C28.8391 7.95383 29.0616 7.71874 29.2271 7.4452C29.4546 8.06787 29.483 8.74532 29.3086 9.38471L29.2791 9.48237C29.1756 9.84301 28.988 10.1743 28.7317 10.4492L28.7032 10.4785C28.455 10.7217 28.1548 10.8047 27.8722 10.9726C26.9225 10.582 25.8599 10.4492 24.8307 10.3867C25.755 10.6797 26.7027 10.9726 27.5779 11.3887C28.453 11.8047 29.0417 12.4629 29.6539 13.1954C30.1631 13.8067 30.7567 14.3604 31.5544 14.5489C32.1023 14.6783 32.6758 14.6505 33.2085 14.4688C33.3518 15.2648 32.61 16.5626 31.5769 16.7345C32.077 17.0517 32.6153 17.3047 33.1791 17.4875C32.7866 17.84 31.8497 18.1017 31.2463 18.133C32.6954 18.8889 33.4234 20.9026 33.391 22.5384C33.1595 22.0384 32.8916 21.4641 32.2843 21.0276C32.457 21.7337 32.4256 22.5872 32.2961 23.3753L32.2922 23.3743Z" fill="#083751"/>
<path d="M9.17457 15.1616C9.11161 14.817 8.98379 14.4362 8.74149 14.1791C9.09686 13.9274 9.50551 13.7606 9.9358 13.6917C8.87122 13.4365 8.15578 13.8383 7.34495 14.6247C6.83842 15.1159 6.23554 16.3507 6.11248 16.7125C5.96653 17.1409 4.96777 16.7906 4.96777 16.7906C5.17573 17.0533 5.60786 17.3884 6.06765 17.397C6.41201 17.4037 6.4206 17.219 6.57895 16.8915C7.51665 16.4621 8.53067 16.4564 8.91415 16.1432C9.20701 15.9042 9.23848 15.5424 9.17457 15.1616ZM6.78977 16.485C7.11792 15.8966 7.66165 15.0702 8.37137 14.4647C8.56215 14.6313 8.67472 15.0045 8.71287 15.2407C8.85978 16.1441 8.05371 15.8223 6.78595 16.4859L6.78977 16.485Z" fill="#083751"/>
<path d="M3.46902 21.1617C2.52372 21.8537 2.53355 23.5951 2.92366 24.2047C2.82048 23.3821 3.03961 21.6653 3.82671 21.6525C4.34161 21.6417 4.60201 21.7988 4.72189 21.9087L4.80837 22.0118C4.81934 21.9322 4.81534 21.8513 4.79657 21.7732C4.78675 20.7661 5.37142 19.8601 5.73205 18.9099C5.14641 19.5554 4.65363 20.2793 4.26791 21.0606C4.04682 20.9418 3.76971 20.9418 3.46902 21.1617Z" fill="#083751"/>
<path d="M54.6228 35.3544C54.959 35.3544 55.2708 35.3328 55.558 35.2898C55.8453 35.2468 56.0659 35.2037 56.2201 35.1607V23.9484C56.2201 23.3315 56.0449 22.8437 55.6946 22.485C55.3443 22.1263 54.868 21.947 54.2655 21.947H53.4878L51.1339 22.7648C50.111 23.1091 49.5996 23.7117 49.5996 24.5725C49.5996 25.0316 49.7047 25.3903 49.9149 25.6485C50.125 25.9068 50.3352 26.1076 50.5454 26.2511L52.6471 25.584V33.6327C52.6471 34.307 52.8013 34.7625 53.1095 34.9993C53.4178 35.236 53.9222 35.3544 54.6228 35.3544ZM61.2907 23.7547C61.8792 23.7547 62.352 23.5682 62.7093 23.1952C63.0666 22.8221 63.2453 22.363 63.2453 21.8178C63.2453 21.2727 63.0666 20.8135 62.7093 20.4405C62.352 20.0675 61.8792 19.881 61.2907 19.881C60.7022 19.881 60.2293 20.0675 59.872 20.4405C59.5147 20.8135 59.3361 21.2727 59.3361 21.8178C59.3361 22.363 59.5147 22.8221 59.872 23.1952C60.2293 23.5682 60.7022 23.7547 61.2907 23.7547ZM61.4798 35.3544C61.8161 35.3544 62.1279 35.3328 62.4151 35.2898C62.7023 35.2468 62.923 35.2037 63.0771 35.1607V26.4018C63.0771 25.7274 62.923 25.2719 62.6148 25.0352C62.3065 24.7985 61.8021 24.6801 61.1015 24.6801C60.7652 24.6801 60.4535 24.7016 60.1662 24.7447C59.879 24.7877 59.6583 24.8307 59.5042 24.8738V33.6327C59.5042 34.307 59.6583 34.7625 59.9666 34.9993C60.2748 35.236 60.7792 35.3544 61.4798 35.3544ZM74.474 35.3544C74.8102 35.3544 75.122 35.3328 75.4092 35.2898C75.6965 35.2468 75.9171 35.2037 76.0713 35.1607V28.4462C76.0713 27.1693 75.6439 26.1758 74.7892 25.4656C73.9345 24.7554 72.7155 24.4003 71.1322 24.4003C70.2495 24.4003 69.4473 24.5043 68.7257 24.7124C68.0041 24.9204 67.4051 25.1966 66.9287 25.5409C66.6485 25.7418 66.4278 25.9642 66.2667 26.2081C66.1056 26.452 66.025 26.7676 66.025 27.155V33.6327C66.025 34.307 66.1791 34.7625 66.4874 34.9993C66.7956 35.236 67.3 35.3544 68.0006 35.3544C68.3369 35.3544 68.6486 35.3328 68.9359 35.2898C69.2231 35.2468 69.4438 35.2037 69.5979 35.1607V27.65C69.8221 27.5352 70.0568 27.4419 70.302 27.3702C70.5472 27.2985 70.8099 27.2626 71.0902 27.2626C71.5105 27.2626 71.8503 27.3666 72.1095 27.5746C72.3687 27.7827 72.4983 28.1091 72.4983 28.5538V33.6327C72.4983 34.307 72.6525 34.7625 72.9607 34.9993C73.269 35.236 73.7734 35.3544 74.474 35.3544ZM84.2524 35.505C85.2753 35.505 86.0634 35.3328 86.6169 34.9885C87.1703 34.6442 87.4471 34.1851 87.4471 33.6112C87.4471 33.2812 87.3805 33.0014 87.2474 32.7719C87.1143 32.5423 86.9146 32.3271 86.6484 32.1263C86.4102 32.241 86.13 32.3522 85.8077 32.4598C85.4854 32.5674 85.1141 32.6212 84.6938 32.6212C83.9652 32.6212 83.3557 32.406 82.8653 31.9756C82.3749 31.5452 82.1297 30.8852 82.1297 29.9957C82.1297 29.551 82.1997 29.16 82.3399 28.8228C82.48 28.4857 82.6656 28.2023 82.8968 27.9728C83.128 27.7432 83.4012 27.571 83.7165 27.4563C84.0318 27.3415 84.3645 27.2841 84.7148 27.2841C85.1071 27.2841 85.4714 27.3379 85.8077 27.4455C86.144 27.5531 86.4312 27.6643 86.6694 27.7791C86.8376 27.6069 86.9847 27.4025 87.1108 27.1657C87.2369 26.929 87.3 26.6743 87.3 26.4018C87.3 25.8135 87.0267 25.3329 86.4803 24.9599C85.9338 24.5868 85.1562 24.4003 84.1473 24.4003C83.3907 24.4003 82.6726 24.5151 81.9931 24.7447C81.3135 24.9742 80.7145 25.3185 80.1961 25.7777C79.6777 26.2368 79.2678 26.8178 78.9666 27.5208C78.6653 28.2238 78.5147 29.0488 78.5147 29.9957C78.5147 30.8996 78.6478 31.6923 78.914 32.3737C79.1803 33.0552 79.5621 33.6291 80.0595 34.0954C80.5569 34.5617 81.1594 34.9132 81.867 35.1499C82.5746 35.3866 83.3697 35.505 84.2524 35.505ZM98.4025 35.3544C98.7388 35.3544 99.0506 35.3328 99.3378 35.2898C99.625 35.2468 99.8457 35.2037 99.9998 35.1607V28.6399C99.9998 27.2339 99.6145 26.1758 98.8439 25.4656C98.0732 24.7554 96.9944 24.4003 95.6072 24.4003C95.2009 24.4003 94.8226 24.4398 94.4723 24.5187C94.122 24.5976 93.8067 24.6944 93.5265 24.8092V22.6787C93.5265 22.0044 93.3724 21.5488 93.0641 21.3121C92.7559 21.0754 92.2514 20.957 91.5509 20.957C91.2146 20.957 90.9028 20.9785 90.6156 21.0216C90.3284 21.0646 90.1077 21.1077 89.9536 21.1507V33.6327C89.9536 34.307 90.1077 34.7625 90.4159 34.9993C90.7242 35.236 91.2286 35.3544 91.9292 35.3544C92.2655 35.3544 92.5772 35.3328 92.8645 35.2898C93.1517 35.2468 93.3724 35.2037 93.5265 35.1607V27.65C93.7227 27.5352 93.9363 27.4419 94.1675 27.3702C94.3987 27.2985 94.6544 27.2626 94.9347 27.2626C95.355 27.2626 95.7088 27.3809 95.996 27.6177C96.2833 27.8544 96.4269 28.2669 96.4269 28.8551V33.6327C96.4269 34.307 96.581 34.7625 96.8893 34.9993C97.1975 35.236 97.7019 35.3544 98.4025 35.3544Z" fill="#DDDDDD"/>
</svg>
