<svg width="85" height="29" viewBox="0 0 85 29" fill="none" xmlns="http://www.w3.org/2000/svg">
<g clip-path="url(#clip0)">
<path fill-rule="evenodd" clip-rule="evenodd" d="M84.0011 21.6028C84.079 21.6028 84.1157 21.5475 84.1157 21.4821V21.3772C84.1157 21.3061 84.0754 21.263 84.0011 21.263H83.7071V21.6028H84.0011ZM83.7071 21.7631V22.1489H83.506V21.0999H83.9889C84.2029 21.0999 84.3233 21.2199 84.3233 21.4333C84.3233 21.6186 84.2209 21.7199 84.0941 21.7544L84.3261 22.1496H84.1035L83.8865 21.7631H83.7071ZM83.8202 22.5161C84.0852 22.541 84.3475 22.4468 84.5358 22.2593C84.724 22.0717 84.8186 21.8103 84.7939 21.5461C84.7522 21.1154 84.4107 20.7743 83.9788 20.732C83.7135 20.7068 83.4507 20.801 83.2624 20.9889C83.074 21.1769 82.9797 21.4389 83.0052 21.7034C83.0475 22.1335 83.3888 22.4739 83.8202 22.5161ZM83.6833 20.5488C84.2791 20.4297 84.8589 20.8148 84.9783 21.4088C85.0977 22.0029 84.7115 22.5809 84.1157 22.7C83.7303 22.777 83.3329 22.6431 83.0733 22.3489C82.8137 22.0546 82.7313 21.6446 82.8571 21.2733C82.9829 20.902 83.2979 20.6258 83.6833 20.5488ZM42.14 16.0732L41.9757 16.1235C40.7121 16.5003 39.365 16.4966 38.1036 16.1127L37.9393 16.0624L39.8973 9.67774C39.9449 9.52254 40.1661 9.52254 40.213 9.67774L42.14 16.0739V16.0732ZM37.6589 6.85903L32.2403 22.7194H35.8969L37.0803 18.8632L37.246 18.9134C39.0433 19.4638 41.0223 19.4681 42.8189 18.9271L42.9846 18.8768L44.1435 22.7194H47.7943L42.4031 6.8619C42.0629 5.86104 41.1208 5.18778 40.0609 5.18778H39.9997C38.9412 5.18778 38.0001 5.85937 37.6589 6.85831V6.85903ZM75.2746 9.56709H71.3953L67.6082 14.6484V5.18778H64.335V22.7208H67.6082V16.4109L72.0374 22.7208H75.6868L70.844 15.9072C70.6745 15.6687 70.6833 15.3472 70.8656 15.1183L75.2746 9.56781V9.56709ZM58.1121 9.56709H52.8534C51.2319 9.56709 49.9174 10.8776 49.9174 12.4943V22.7201H53.1907V13.2459C53.1907 12.8306 53.5279 12.4943 53.9445 12.4943H57.3582C57.7748 12.4943 58.1121 12.8306 58.1121 13.2459V22.7201H61.3853V12.495C61.3853 10.8784 60.0708 9.56781 58.4493 9.56781H58.1121V9.56709ZM84.9978 9.56709H80.5448C79.766 9.5669 79.0191 9.87521 78.4683 10.4242C77.9176 10.9732 77.6081 11.7178 77.6081 12.4943V22.7201H80.8821V13.2459C80.8821 12.8306 81.2194 12.4943 81.6359 12.4943H84.9978V9.56709ZM15.0129 0.438436L24.2085 5.14251C25.5436 5.82192 26.3824 7.19175 26.3784 8.6862V10.8309H22.9891V8.6862C22.9895 8.4601 22.8625 8.25296 22.6605 8.15019L13.4649 3.44683C13.2918 3.35856 13.0867 3.35856 12.9136 3.44683L3.71864 8.15019C3.51693 8.25316 3.39023 8.46026 3.39074 8.6862V10.8309H1.17329e-05V8.6862C-0.00361853 7.19164 0.835428 5.82185 2.17066 5.14251L11.3663 0.438436C12.5111 -0.146145 13.868 -0.146145 15.0129 0.438436ZM16.0924 13.8674C16.09 12.2705 14.792 10.9766 13.1903 10.9746C11.5883 10.9766 10.2902 12.2709 10.2882 13.8681C10.2902 15.4653 11.5883 16.7595 13.1903 16.7615C14.7923 16.7595 16.0904 15.4653 16.0924 13.8681V13.8674ZM22.6612 19.8719C22.8628 19.7692 22.9895 19.5624 22.9891 19.3366V17.1912H26.3792V19.3366C26.3827 20.8304 25.5443 22.1995 24.2099 22.8789L15.0143 27.5837C14.4496 27.8714 13.8245 28.0216 13.1903 28.022C12.5564 28.0214 11.9316 27.8712 11.367 27.5837L2.17138 22.8796C0.835865 22.2008 -0.00354253 20.8312 1.22245e-05 19.3366V17.1912H3.39074V19.3366C3.39074 19.5637 3.51685 19.7685 3.71936 19.8719L11.4939 23.8496V19.9086C8.84543 19.1685 6.89604 16.7414 6.89604 13.8681C6.89604 10.4085 9.71959 7.59406 13.1896 7.59406C16.6596 7.59406 19.4824 10.4085 19.4824 13.8681C19.4824 16.7421 17.5337 19.1692 14.8846 19.9086V23.8503L22.6605 19.8719H22.6612Z" fill="#CDCDD0"/>
</g>
<defs>
<clipPath id="clip0">
<rect width="85" height="28.3333" fill="white"/>
</clipPath>
</defs>
</svg>
