<svg width="169" height="30" viewBox="0 0 169 30" fill="none" xmlns="http://www.w3.org/2000/svg">
<path d="M14.872 0C6.65828 0 0 6.67226 0 14.9032C0 23.1342 6.65828 29.8065 14.872 29.8065C23.0857 29.8065 29.744 23.1342 29.744 14.9032C29.744 6.6724 23.0856 0 14.872 0ZM20.9882 21.1277L14.7741 24.729V24.7303H14.7716L8.55365 21.1277V8.66581L8.56009 8.66968L14.769 5.07613L18.7542 7.30452H18.7555V12.9303L16.8163 11.8142V8.42581L14.7716 7.25806L10.4915 9.73806V20.0684L14.7716 22.5484L19.0516 20.0761L19.0722 15.831L12.9908 12.2955L14.9441 11.2658L21.0036 14.8065L20.9882 21.129V21.1277ZM15.9433 14.4981L17.4408 15.3613L12.9908 17.9006V12.7806L14.554 13.7045V15.2413L15.9446 14.4981H15.9433Z" fill="#CDCDD0"/>
<path d="M39.2256 6.80261H44.9117C45.4611 6.80261 46.0036 6.86799 46.5393 6.99874C47.0749 7.1295 47.5522 7.34283 47.9711 7.63874C48.39 7.93466 48.7299 8.31659 48.9909 8.78455C49.2518 9.25251 49.3823 9.8168 49.3823 10.4775C49.3823 11.3033 49.1488 11.9845 48.6819 12.5213C48.2149 13.0581 47.6037 13.4435 46.8483 13.6775V13.7187C47.3015 13.7738 47.7239 13.9011 48.1153 14.1007C48.5067 14.3002 48.8398 14.5549 49.1145 14.8645C49.3892 15.1742 49.6055 15.5321 49.7635 15.9381C49.9214 16.3441 50.0004 16.7811 50.0004 17.2491C50.0004 18.0473 49.8424 18.7114 49.5265 19.2413C49.2106 19.7712 48.7952 20.1979 48.2801 20.5213C47.7651 20.8448 47.1745 21.0753 46.5084 21.2129C45.8422 21.3506 45.1658 21.4194 44.4791 21.4194H39.2256V6.80261ZM41.8214 12.7484H44.1906C45.0559 12.7484 45.7049 12.5798 46.1375 12.2426C46.5702 11.9054 46.7865 11.4615 46.7865 10.911C46.7865 10.2779 46.5633 9.80649 46.1169 9.49681C45.6705 9.18713 44.9529 9.03229 43.964 9.03229H41.8214V12.7484ZM41.8214 19.1897H44.2112C44.5409 19.1897 44.8945 19.1691 45.2722 19.1278C45.6499 19.0865 45.9967 18.9901 46.3126 18.8387C46.6285 18.6873 46.8895 18.4706 47.0955 18.1884C47.3015 17.9063 47.4045 17.5243 47.4045 17.0426C47.4045 16.2719 47.1539 15.7351 46.6526 15.4323C46.1513 15.1295 45.3718 14.9781 44.3143 14.9781H41.8214V19.1897ZM58.2205 20.0568H58.1587C57.8016 20.6211 57.3484 21.0306 56.799 21.2852C56.2496 21.5398 55.6453 21.6671 54.986 21.6671C54.5328 21.6671 54.0899 21.6052 53.6572 21.4813C53.2246 21.3575 52.84 21.1716 52.5035 20.9239C52.167 20.6762 51.8958 20.3665 51.6897 19.9949C51.4837 19.6233 51.3807 19.1897 51.3807 18.6942C51.3807 18.1574 51.4768 17.6998 51.6691 17.3213C51.8614 16.9428 52.1189 16.6263 52.4417 16.3716C52.7645 16.117 53.1387 15.914 53.5645 15.7626C53.9903 15.6112 54.4332 15.4977 54.8933 15.422C55.3534 15.3463 55.817 15.2981 56.284 15.2775C56.7509 15.2568 57.1904 15.2465 57.6025 15.2465H58.2205V14.9781C58.2205 14.3587 58.0077 13.8942 57.5819 13.5845C57.1561 13.2749 56.6136 13.12 55.9543 13.12C55.4324 13.12 54.9448 13.2129 54.4916 13.3987C54.0384 13.5845 53.6469 13.8357 53.3173 14.1523L52.0194 12.8516C52.5688 12.2873 53.2108 11.8813 53.9456 11.6336C54.6805 11.3858 55.4393 11.262 56.2222 11.262C56.9226 11.262 57.5132 11.3411 57.9939 11.4994C58.4746 11.6577 58.8729 11.8607 59.1888 12.1084C59.5047 12.3562 59.7485 12.6418 59.9202 12.9652C60.0919 13.2886 60.2155 13.6155 60.291 13.9458C60.3666 14.2762 60.4112 14.5962 60.4249 14.9058C60.4387 15.2155 60.4455 15.4873 60.4455 15.7213V21.4194H58.2205V20.0568ZM58.0763 16.9807H57.5613C57.2179 16.9807 56.8333 16.9944 56.4076 17.022C55.9818 17.0495 55.5801 17.1149 55.2024 17.2181C54.8247 17.3213 54.5053 17.4727 54.2444 17.6723C53.9834 17.8719 53.8529 18.1506 53.8529 18.5084C53.8529 18.7424 53.9044 18.9385 54.0075 19.0968C54.1105 19.2551 54.2444 19.3893 54.4092 19.4994C54.574 19.6095 54.7594 19.6886 54.9654 19.7368C55.1715 19.785 55.3775 19.8091 55.5835 19.8091C56.435 19.8091 57.0634 19.6061 57.4686 19.2C57.8737 18.794 58.0763 18.24 58.0763 17.5381V16.9807ZM62.7942 11.5097H65.1428V13.0994H65.184C65.4175 12.6039 65.7746 12.1738 66.2553 11.8091C66.736 11.4443 67.3884 11.262 68.2125 11.262C68.8717 11.262 69.4314 11.3721 69.8915 11.5923C70.3516 11.8125 70.7259 12.1015 71.0143 12.4594C71.3028 12.8172 71.5088 13.2301 71.6324 13.6981C71.756 14.1661 71.8178 14.6547 71.8178 15.1639V21.4194H69.3456V16.4026C69.3456 16.1273 69.3318 15.8211 69.3044 15.4839C69.2769 15.1467 69.2048 14.8301 69.088 14.5342C68.9713 14.2383 68.7893 13.9906 68.5421 13.791C68.2949 13.5914 67.9584 13.4916 67.5326 13.4916C67.1206 13.4916 66.7738 13.5605 66.4922 13.6981C66.2106 13.8357 65.9772 14.0215 65.7917 14.2555C65.6063 14.4895 65.4724 14.7579 65.39 15.0607C65.3076 15.3635 65.2664 15.68 65.2664 16.0104V21.4194H62.7942V11.5097ZM82.1394 19.9329H82.0981C81.741 20.5385 81.2603 20.979 80.656 21.2542C80.0517 21.5295 79.3993 21.6671 78.6988 21.6671C77.9297 21.6671 77.2464 21.5329 76.6489 21.2645C76.0515 20.9962 75.5399 20.628 75.1141 20.16C74.6883 19.6921 74.3656 19.1415 74.1458 18.5084C73.9261 17.8753 73.8162 17.194 73.8162 16.4645C73.8162 15.7351 73.9329 15.0538 74.1664 14.4207C74.3999 13.7876 74.7261 13.237 75.145 12.7691C75.5639 12.3011 76.0687 11.9329 76.6592 11.6645C77.2498 11.3962 77.8954 11.262 78.5958 11.262C79.0628 11.262 79.4748 11.3101 79.8319 11.4065C80.189 11.5028 80.5049 11.6267 80.7796 11.7781C81.0543 11.9295 81.2878 12.0912 81.4801 12.2633C81.6724 12.4353 81.8303 12.6039 81.9539 12.7691H82.0157V5.81165H84.488V21.4194H82.1394V19.9329ZM76.2884 16.4645C76.2884 16.8499 76.3537 17.2215 76.4841 17.5794C76.6146 17.9372 76.8069 18.2538 77.061 18.5291C77.3151 18.8043 77.6207 19.0245 77.9778 19.1897C78.3349 19.3549 78.74 19.4375 79.1933 19.4375C79.6465 19.4375 80.0517 19.3549 80.4088 19.1897C80.7659 19.0245 81.0715 18.8043 81.3256 18.5291C81.5797 18.2538 81.772 17.9372 81.9024 17.5794C82.0329 17.2215 82.0981 16.8499 82.0981 16.4645C82.0981 16.0792 82.0329 15.7076 81.9024 15.3497C81.772 14.9919 81.5797 14.6753 81.3256 14.4C81.0715 14.1248 80.7659 13.9045 80.4088 13.7394C80.0517 13.5742 79.6465 13.4916 79.1933 13.4916C78.74 13.4916 78.3349 13.5742 77.9778 13.7394C77.6207 13.9045 77.3151 14.1248 77.061 14.4C76.8069 14.6753 76.6146 14.9919 76.4841 15.3497C76.3537 15.7076 76.2884 16.0792 76.2884 16.4645ZM92.9966 6.80261H97.8998C98.6003 6.80261 99.2767 6.87143 99.9291 7.00906C100.581 7.1467 101.155 7.37723 101.649 7.70068C102.144 8.02412 102.539 8.45766 102.834 9.00132C103.129 9.54498 103.277 10.2228 103.277 11.0349C103.277 11.957 103.119 12.7002 102.803 13.2645C102.487 13.8289 102.061 14.2658 101.526 14.5755C100.99 14.8852 100.369 15.0951 99.6613 15.2052C98.9539 15.3153 98.2157 15.3704 97.4466 15.3704H95.5924V21.4194H92.9966V6.80261ZM97.1581 13.1407C97.529 13.1407 97.9135 13.1269 98.3118 13.0994C98.7101 13.0719 99.0775 12.9893 99.414 12.8516C99.7505 12.714 100.025 12.5076 100.238 12.2323C100.451 11.957 100.557 11.5716 100.557 11.0762C100.557 10.622 100.461 10.2607 100.269 9.99229C100.077 9.7239 99.8295 9.51745 99.5274 9.37294C99.2252 9.22842 98.8887 9.13552 98.5179 9.09423C98.147 9.05294 97.7899 9.03229 97.4466 9.03229H95.5924V13.1407H97.1581ZM105.049 11.5097H107.521V13.0787H107.562C107.837 12.5007 108.228 12.0534 108.736 11.7368C109.245 11.4202 109.828 11.262 110.488 11.262C110.639 11.262 110.786 11.2757 110.931 11.3033C111.075 11.3308 111.222 11.3652 111.373 11.4065V13.8013C111.167 13.7463 110.965 13.7015 110.766 13.6671C110.567 13.6327 110.371 13.6155 110.179 13.6155C109.602 13.6155 109.138 13.7222 108.788 13.9355C108.438 14.1489 108.17 14.3931 107.984 14.6684C107.799 14.9437 107.675 15.219 107.614 15.4942C107.552 15.7695 107.521 15.9759 107.521 16.1136V21.4194H105.049V11.5097ZM111.889 16.4645C111.889 15.68 112.029 14.9678 112.311 14.3278C112.592 13.6878 112.974 13.1407 113.454 12.6865C113.935 12.2323 114.505 11.8813 115.164 11.6336C115.823 11.3858 116.524 11.262 117.266 11.262C118.007 11.262 118.708 11.3858 119.367 11.6336C120.026 11.8813 120.596 12.2323 121.077 12.6865C121.558 13.1407 121.939 13.6878 122.22 14.3278C122.502 14.9678 122.643 15.68 122.643 16.4645C122.643 17.2491 122.502 17.9613 122.22 18.6013C121.939 19.2413 121.558 19.7884 121.077 20.2426C120.596 20.6968 120.026 21.0478 119.367 21.2955C118.708 21.5433 118.007 21.6671 117.266 21.6671C116.524 21.6671 115.823 21.5433 115.164 21.2955C114.505 21.0478 113.935 20.6968 113.454 20.2426C112.974 19.7884 112.592 19.2413 112.311 18.6013C112.029 17.9613 111.889 17.2491 111.889 16.4645ZM114.361 16.4645C114.361 16.8499 114.426 17.2215 114.556 17.5794C114.687 17.9372 114.879 18.2538 115.133 18.5291C115.387 18.8043 115.693 19.0245 116.05 19.1897C116.407 19.3549 116.812 19.4375 117.266 19.4375C117.719 19.4375 118.124 19.3549 118.481 19.1897C118.838 19.0245 119.144 18.8043 119.398 18.5291C119.652 18.2538 119.844 17.9372 119.975 17.5794C120.105 17.2215 120.17 16.8499 120.17 16.4645C120.17 16.0792 120.105 15.7076 119.975 15.3497C119.844 14.9919 119.652 14.6753 119.398 14.4C119.144 14.1248 118.838 13.9045 118.481 13.7394C118.124 13.5742 117.719 13.4916 117.266 13.4916C116.812 13.4916 116.407 13.5742 116.05 13.7394C115.693 13.9045 115.387 14.1248 115.133 14.4C114.879 14.6753 114.687 14.9919 114.556 15.3497C114.426 15.7076 114.361 16.0792 114.361 16.4645ZM123.487 13.6155V11.5097H125.527V8.64003H127.999V11.5097H130.719V13.6155H127.999V17.951C127.999 18.4465 128.092 18.8387 128.277 19.1278C128.463 19.4168 128.83 19.5613 129.38 19.5613C129.599 19.5613 129.84 19.5372 130.101 19.4891C130.362 19.4409 130.568 19.3618 130.719 19.2516V21.3368C130.458 21.4607 130.138 21.5467 129.761 21.5949C129.383 21.643 129.05 21.6671 128.761 21.6671C128.102 21.6671 127.563 21.5949 127.144 21.4504C126.725 21.3058 126.396 21.0856 126.155 20.7897C125.915 20.4938 125.75 20.1256 125.661 19.6852C125.572 19.2448 125.527 18.7355 125.527 18.1575V13.6155H123.487ZM131.852 16.4645C131.852 15.68 131.993 14.9678 132.274 14.3278C132.556 13.6878 132.937 13.1407 133.417 12.6865C133.898 12.2323 134.468 11.8813 135.127 11.6336C135.787 11.3858 136.487 11.262 137.229 11.262C137.971 11.262 138.671 11.3858 139.33 11.6336C139.99 11.8813 140.559 12.2323 141.04 12.6865C141.521 13.1407 141.902 13.6878 142.184 14.3278C142.465 14.9678 142.606 15.68 142.606 16.4645C142.606 17.2491 142.465 17.9613 142.184 18.6013C141.902 19.2413 141.521 19.7884 141.04 20.2426C140.559 20.6968 139.99 21.0478 139.33 21.2955C138.671 21.5433 137.971 21.6671 137.229 21.6671C136.487 21.6671 135.787 21.5433 135.127 21.2955C134.468 21.0478 133.898 20.6968 133.417 20.2426C132.937 19.7884 132.556 19.2413 132.274 18.6013C131.993 17.9613 131.852 17.2491 131.852 16.4645ZM134.324 16.4645C134.324 16.8499 134.389 17.2215 134.52 17.5794C134.65 17.9372 134.842 18.2538 135.097 18.5291C135.351 18.8043 135.656 19.0245 136.013 19.1897C136.37 19.3549 136.776 19.4375 137.229 19.4375C137.682 19.4375 138.087 19.3549 138.444 19.1897C138.801 19.0245 139.107 18.8043 139.361 18.5291C139.615 18.2538 139.808 17.9372 139.938 17.5794C140.068 17.2215 140.134 16.8499 140.134 16.4645C140.134 16.0792 140.068 15.7076 139.938 15.3497C139.808 14.9919 139.615 14.6753 139.361 14.4C139.107 14.1248 138.801 13.9045 138.444 13.7394C138.087 13.5742 137.682 13.4916 137.229 13.4916C136.776 13.4916 136.37 13.5742 136.013 13.7394C135.656 13.9045 135.351 14.1248 135.097 14.4C134.842 14.6753 134.65 14.9919 134.52 15.3497C134.389 15.7076 134.324 16.0792 134.324 16.4645ZM151.362 14.4826C151.073 14.1798 150.771 13.939 150.455 13.76C150.139 13.5811 149.817 13.4916 149.487 13.4916C149.034 13.4916 148.629 13.5742 148.271 13.7394C147.914 13.9045 147.609 14.1248 147.355 14.4C147.101 14.6753 146.908 14.9919 146.778 15.3497C146.647 15.7076 146.582 16.0792 146.582 16.4645C146.582 16.8499 146.647 17.2215 146.778 17.5794C146.908 17.9372 147.101 18.2538 147.355 18.5291C147.609 18.8043 147.914 19.0245 148.271 19.1897C148.629 19.3549 149.034 19.4375 149.487 19.4375C149.872 19.4375 150.229 19.3583 150.558 19.2C150.888 19.0418 151.169 18.8112 151.403 18.5084L153.051 20.2839C152.804 20.5316 152.519 20.745 152.196 20.9239C151.873 21.1028 151.547 21.2473 151.218 21.3575C150.888 21.4676 150.572 21.5467 150.27 21.5949C149.968 21.643 149.707 21.6671 149.487 21.6671C148.745 21.6671 148.045 21.5433 147.386 21.2955C146.726 21.0478 146.156 20.6968 145.676 20.2426C145.195 19.7884 144.814 19.2413 144.532 18.6013C144.251 17.9613 144.11 17.2491 144.11 16.4645C144.11 15.68 144.251 14.9678 144.532 14.3278C144.814 13.6878 145.195 13.1407 145.676 12.6865C146.156 12.2323 146.726 11.8813 147.386 11.6336C148.045 11.3858 148.745 11.262 149.487 11.262C150.119 11.262 150.754 11.3824 151.393 11.6233C152.031 11.8641 152.591 12.2461 153.072 12.7691L151.362 14.4826ZM153.731 16.4645C153.731 15.68 153.872 14.9678 154.153 14.3278C154.435 13.6878 154.816 13.1407 155.297 12.6865C155.777 12.2323 156.347 11.8813 157.007 11.6336C157.666 11.3858 158.366 11.262 159.108 11.262C159.85 11.262 160.55 11.3858 161.209 11.6336C161.869 11.8813 162.439 12.2323 162.919 12.6865C163.4 13.1407 163.781 13.6878 164.063 14.3278C164.344 14.9678 164.485 15.68 164.485 16.4645C164.485 17.2491 164.344 17.9613 164.063 18.6013C163.781 19.2413 163.4 19.7884 162.919 20.2426C162.439 20.6968 161.869 21.0478 161.209 21.2955C160.55 21.5433 159.85 21.6671 159.108 21.6671C158.366 21.6671 157.666 21.5433 157.007 21.2955C156.347 21.0478 155.777 20.6968 155.297 20.2426C154.816 19.7884 154.435 19.2413 154.153 18.6013C153.872 17.9613 153.731 17.2491 153.731 16.4645ZM156.203 16.4645C156.203 16.8499 156.268 17.2215 156.399 17.5794C156.529 17.9372 156.722 18.2538 156.976 18.5291C157.23 18.8043 157.535 19.0245 157.893 19.1897C158.25 19.3549 158.655 19.4375 159.108 19.4375C159.561 19.4375 159.966 19.3549 160.324 19.1897C160.681 19.0245 160.986 18.8043 161.24 18.5291C161.494 18.2538 161.687 17.9372 161.817 17.5794C161.948 17.2215 162.013 16.8499 162.013 16.4645C162.013 16.0792 161.948 15.7076 161.817 15.3497C161.687 14.9919 161.494 14.6753 161.24 14.4C160.986 14.1248 160.681 13.9045 160.324 13.7394C159.966 13.5742 159.561 13.4916 159.108 13.4916C158.655 13.4916 158.25 13.5742 157.893 13.7394C157.535 13.9045 157.23 14.1248 156.976 14.4C156.722 14.6753 156.529 14.9919 156.399 15.3497C156.268 15.7076 156.203 16.0792 156.203 16.4645ZM166.525 5.81165H168.997V21.4194H166.525V5.81165Z" fill="#CDCDD0"/>
</svg>
