<svg width="122" height="35" viewBox="0 0 122 35" fill="none" xmlns="http://www.w3.org/2000/svg">
<path d="M7.81691 17.5891L3.90849 21.4976L0 17.5891L3.90849 13.6807L7.81691 17.5891Z" fill="#F0B90B"/>
<path d="M16.117 7.9078L22.5866 14.6567L26.3768 10.7028L16.117 0L5.85742 10.7028L9.64765 14.6567L16.117 7.9078Z" fill="#F0B90B"/>
<path d="M29.3069 13.6807L25.3984 17.5891L29.3069 21.4976L33.2153 17.5891L29.3069 13.6807Z" fill="#F0B90B"/>
<path d="M16.117 26.2909L9.64765 19.542L5.85742 23.4959L16.117 34.1987L26.3768 23.4959L22.5866 19.542L16.117 26.2909Z" fill="#F0B90B"/>
<path d="M16.6203 21.4976L20.5288 17.5891L16.6203 13.6807L12.7119 17.5891L16.6203 21.4976Z" fill="#F0B90B"/>
<path d="M43.9739 4.03516C46.5427 4.03516 48.1425 5.2265 48.1425 7.06578V7.08668C48.1425 8.40347 47.3763 9.15588 46.475 9.61568C47.9397 10.1382 48.841 10.9324 48.841 12.5V12.5418C48.841 14.6946 46.9707 15.7605 44.109 15.7605H38.0928V4.03516H43.9739ZM44.0415 10.9115H40.8192V13.5032H44.1316C45.3484 13.5032 46.0919 13.1061 46.0919 12.2283V12.1865C46.0919 11.3922 45.4611 10.9115 44.0415 10.9115ZM43.5457 6.27154H40.7967V8.75874H43.3655C44.6049 8.75874 45.3709 8.40347 45.3709 7.5256V7.48379C45.3709 6.71046 44.7175 6.27154 43.5457 6.27154Z" fill="#F0B90B"/>
<path d="M54.6843 15.7596V4.03418H51.7529V15.7596H54.6843Z" fill="#F0B90B"/>
<path d="M68.382 15.7596V4.05505H65.7542V11.253L60.0892 4.03418H57.6338V15.7387H60.2616V8.2904L66.1204 15.7387H68.382V15.7596Z" fill="#F0B90B"/>
<path d="M77.8884 4.03418L83.0248 15.7596H80.2328L79.1458 13.1447H74.0947L73.0077 15.7596H70.3223L75.4587 4.03418H77.8884ZM76.6735 7.1056L75.075 10.8827H78.2506L76.6735 7.1056Z" fill="#F0B90B"/>
<path d="M95.7278 15.7596V4.05505H93.0999V11.253L87.435 4.03418H84.9795V15.7387H87.6074V8.2904L93.4661 15.7387H95.7278V15.7596Z" fill="#F0B90B"/>
<path d="M109.411 14.5501L107.772 12.8229C106.859 13.6974 106.05 14.2658 104.701 14.2658C102.709 14.2658 101.319 12.5168 101.319 10.418V10.3743C101.319 8.2755 102.73 6.54837 104.701 6.54837C105.863 6.54837 106.776 7.07307 107.69 7.9257L109.328 5.93622C108.249 4.82123 106.942 4.03418 104.743 4.03418C101.174 4.03418 98.6631 6.89816 98.6631 10.3743V10.418C98.6631 13.9379 101.215 16.7362 104.639 16.7362C106.88 16.7582 108.208 15.9055 109.411 14.5501Z" fill="#F0B90B"/>
<path d="M121.143 15.7596V13.4646H114.861V11.0027H120.319V8.70768H114.861V6.32918H121.06V4.03418H112.349V15.7387H121.143V15.7596Z" fill="#F0B90B"/>
<path d="M40.9509 29.5701C41.6337 29.5701 42.216 29.4639 42.6976 29.2515C43.1792 29.0392 43.5477 28.7436 43.8031 28.3646C44.0585 27.9857 44.1862 27.5465 44.1862 27.0468C44.1862 26.6776 44.1168 26.3556 43.978 26.0808C43.8392 25.806 43.6511 25.5714 43.4138 25.3771C43.1764 25.1828 42.9086 25.0218 42.6102 24.8941C42.3118 24.7664 42.0015 24.6651 41.6795 24.5901L40.8801 24.3903C40.7052 24.3486 40.5317 24.2973 40.3596 24.2362C40.1875 24.1751 40.0307 24.0995 39.8891 24.0093C39.7475 23.9191 39.6358 23.8087 39.5539 23.6782C39.472 23.5478 39.4311 23.3937 39.4311 23.2161C39.4338 23.0023 39.4963 22.8122 39.6184 22.6456C39.7406 22.4791 39.9169 22.3472 40.1473 22.2501C40.3777 22.1529 40.6539 22.1043 40.9759 22.1043C41.4339 22.1043 41.8065 22.2056 42.0938 22.4083C42.3811 22.6109 42.5442 22.8941 42.5831 23.2577H44.0696C44.0613 22.7775 43.9266 22.3521 43.6657 21.9815C43.4048 21.6109 43.046 21.3208 42.5893 21.1112C42.1327 20.9017 41.6018 20.7969 40.9967 20.7969C40.3999 20.7969 39.8655 20.9017 39.3936 21.1112C38.9217 21.3208 38.549 21.6144 38.2756 21.9919C38.0022 22.3694 37.8655 22.8094 37.8655 23.3118C37.8655 23.9225 38.0688 24.4118 38.4755 24.7796C38.8821 25.1474 39.4366 25.4215 40.1389 25.6019L41.1091 25.8518C41.4144 25.9295 41.6816 26.0176 41.9106 26.1162C42.1396 26.2147 42.318 26.3369 42.4457 26.4826C42.5734 26.6283 42.6386 26.8122 42.6414 27.0343C42.6386 27.2786 42.5651 27.4916 42.4207 27.6734C42.2764 27.8553 42.0772 27.9968 41.8232 28.0982C41.5692 28.1995 41.2743 28.2501 40.9384 28.2501C40.6164 28.2501 40.3256 28.2016 40.0661 28.1044C39.8065 28.0072 39.5962 27.8601 39.4352 27.663C39.2742 27.4659 39.1826 27.2189 39.1604 26.9219H37.6406C37.6628 27.4882 37.8106 27.9684 38.0841 28.3626C38.3575 28.7567 38.7378 29.0565 39.225 29.262C39.7121 29.4674 40.2874 29.5701 40.9509 29.5701ZM47.332 29.441V23.57H47.4111L49.7678 29.416H50.8754L53.2321 23.5825H53.3112V29.441H54.7936V20.9135H52.9032L50.3716 27.0926H50.2716L47.74 20.9135H45.8497V29.441H47.332ZM57.8603 29.441L58.5651 27.3392H61.771L62.478 29.441H64.1268L61.1205 20.9135H59.2135L56.2114 29.441H57.8603ZM61.3537 26.0983H58.9813L60.1337 22.6623H60.2003L61.3537 26.0983ZM67.0853 29.441L67.0845 26.3181H68.6567L70.3331 29.441H72.0569L70.2113 26.0631L70.3747 25.9913C70.7602 25.8045 71.0656 25.5504 71.2909 25.229L71.3969 25.0627C71.6287 24.6616 71.7446 24.1876 71.7446 23.6408C71.7446 23.0967 71.6301 22.6199 71.4011 22.2105C71.1721 21.8011 70.8348 21.4825 70.3893 21.2549C69.9437 21.0273 69.3934 20.9135 68.7383 20.9135H65.5405V29.441H67.0853ZM67.0853 22.2043H68.501C68.8868 22.2043 69.2019 22.2605 69.4462 22.3729C69.6904 22.4853 69.8723 22.6491 69.9916 22.8642C70.111 23.0794 70.1707 23.3382 70.1707 23.6408C70.1707 23.9433 70.1117 24.198 69.9937 24.4048C69.8757 24.6116 69.6946 24.7685 69.4503 24.8754C69.2061 24.9822 68.8924 25.0357 68.5093 25.0357L67.0845 25.0362L67.0853 22.2043ZM77.2513 29.441V22.2084H79.887V20.9135H73.0833V22.2084H75.719V29.441H77.2513ZM88.373 29.5576C88.881 29.5576 89.3431 29.4819 89.7595 29.3307C90.1759 29.1794 90.5395 28.9684 90.8504 28.6978C91.1613 28.4271 91.4133 28.1141 91.6062 27.7588C91.7991 27.4035 91.9247 27.0232 91.983 26.6179L90.4257 26.6096C90.3785 26.8594 90.2932 27.0815 90.1697 27.2758C90.0461 27.4701 89.8948 27.6339 89.7158 27.7671C89.5368 27.9004 89.3355 28.001 89.112 28.069C88.8886 28.137 88.6492 28.171 88.3938 28.171C87.933 28.171 87.5242 28.0579 87.1675 27.8317C86.8108 27.6054 86.5305 27.2696 86.3264 26.824C86.1224 26.3785 86.0204 25.8296 86.0204 25.1772C86.0204 24.536 86.1217 23.9926 86.3244 23.5471C86.527 23.1016 86.8074 22.7629 87.1655 22.5311C87.5235 22.2993 87.9344 22.1834 88.398 22.1834C88.6589 22.1834 88.9025 22.2188 89.1287 22.2896C89.3549 22.3604 89.5569 22.4652 89.7345 22.604C89.9122 22.7428 90.0607 22.9114 90.1801 23.1099C90.2994 23.3084 90.3813 23.5353 90.4257 23.7907H91.983C91.9192 23.316 91.7838 22.8934 91.577 22.5228C91.3702 22.1522 91.1072 21.8385 90.788 21.5818C90.4688 21.325 90.1051 21.13 89.6971 20.9967C89.289 20.8635 88.8476 20.7969 88.373 20.7969C87.629 20.7969 86.9628 20.9704 86.3743 21.3174C85.7858 21.6643 85.3209 22.1647 84.9794 22.8184C84.638 23.4721 84.4673 24.2584 84.4673 25.1772C84.4673 26.0933 84.6366 26.8789 84.9753 27.534C85.3139 28.1891 85.7775 28.6901 86.366 29.0371C86.9545 29.3841 87.6235 29.5576 88.373 29.5576ZM95.2371 29.441V25.8185H99.1886V29.441H100.738V20.9135H99.1886V24.5235H95.2371V20.9135H93.6923V29.441H95.2371ZM103.8 29.441L104.505 27.3392H107.711L108.418 29.441H110.067L107.06 20.9135H105.153L102.151 29.441H103.8ZM107.294 26.0983H104.921L106.073 22.6623H106.14L107.294 26.0983ZM113.025 29.441V20.9135H111.48V29.441H113.025ZM116.537 29.441V23.6324H116.608L120.626 29.441H122V20.9135H120.464V26.7262H120.389L116.375 20.9135H114.992V29.441H116.537Z" fill="#F0B90B"/>
</svg>
