<svg width="149" height="24" viewBox="0 0 149 24" fill="none" xmlns="http://www.w3.org/2000/svg">
<g clip-path="url(#clip0)">
<path d="M34.6354 16.9771C33.5884 16.4186 32.7158 15.5821 32.1136 14.5596C31.5042 13.53 31.1997 12.369 31.2002 11.0767C31.2007 9.78436 31.5081 8.62315 32.1225 7.59307C32.7306 6.57134 33.6065 5.73535 34.6555 5.17554C35.7293 4.59046 36.931 4.29842 38.2606 4.29942C39.2737 4.28676 40.2789 4.47883 41.216 4.86413C42.0867 5.22645 42.8603 5.7878 43.4748 6.50313L41.8939 7.99313C40.9388 6.96106 39.765 6.44502 38.3723 6.44502C37.4679 6.44502 36.6583 6.64369 35.9436 7.04102C35.2438 7.42281 34.6643 7.99222 34.2703 8.68524C33.8685 9.38852 33.6679 10.1857 33.6684 11.0767C33.6689 11.9677 33.8695 12.7646 34.2703 13.4674C34.6643 14.162 35.2447 14.7325 35.9458 15.1146C36.6611 15.5119 37.4706 15.7106 38.3746 15.7106C39.7652 15.7106 40.9386 15.1891 41.8947 14.1461L43.4756 15.651C42.8587 16.368 42.0815 16.9295 41.207 17.29C40.2667 17.6747 39.2586 17.8667 38.2427 17.8547C36.9106 17.8537 35.7082 17.5612 34.6354 16.9771Z" fill="#FAFAFA"/>
<path d="M47.0878 17.135C46.2917 16.7152 45.6296 16.0802 45.1769 15.3023C44.7185 14.518 44.4893 13.6302 44.4893 12.6389C44.4893 11.6476 44.7185 10.7623 45.1769 9.98298C45.6312 9.20811 46.2931 8.57565 47.0878 8.15699C47.9038 7.71844 48.8199 7.49891 49.8361 7.49841C50.8647 7.49841 51.787 7.71794 52.6031 8.15699C53.3976 8.57588 54.0594 9.20828 54.514 9.98298C54.9714 10.7608 55.2004 11.6456 55.2009 12.6374C55.2014 13.6293 54.9724 14.517 54.514 15.3008C54.0614 16.0791 53.3992 16.7146 52.6031 17.135C51.787 17.574 50.8647 17.7938 49.8361 17.7943C48.819 17.7963 47.9029 17.5765 47.0878 17.135ZM51.9817 14.9126C52.5469 14.3365 52.8293 13.5776 52.8288 12.6359C52.8283 11.6942 52.5459 10.9348 51.9817 10.3577C51.417 9.78059 50.7018 9.49203 49.8361 9.49203C48.9704 9.49203 48.2582 9.78059 47.6995 10.3577C47.1402 10.9373 46.8606 11.6977 46.8606 12.6389C46.8606 13.5801 47.14 14.339 47.6987 14.9156C48.257 15.4942 48.9692 15.783 49.8354 15.7821C50.7016 15.7811 51.417 15.4923 51.9817 14.9156" fill="#FAFAFA"/>
<path d="M57.6636 5.55172C57.5241 5.42434 57.4136 5.26851 57.3394 5.09475C57.2653 4.92099 57.2292 4.73335 57.2338 4.54448C57.2293 4.35552 57.2654 4.16779 57.3395 3.99392C57.4137 3.82006 57.5242 3.66409 57.6636 3.5365C57.9545 3.26641 58.3397 3.1214 58.7364 3.13271C59.1301 3.12049 59.5136 3.25845 59.8092 3.51862C59.9484 3.63817 60.0594 3.78697 60.1343 3.95439C60.2093 4.12181 60.2463 4.30372 60.2428 4.48712C60.2473 4.68072 60.212 4.87318 60.139 5.05258C60.0661 5.23198 59.9572 5.39451 59.8189 5.53012C59.6779 5.67169 59.5093 5.78287 59.3237 5.8568C59.138 5.93073 58.9392 5.96585 58.7394 5.95999C58.341 5.9712 57.9543 5.82445 57.6636 5.55172ZM57.5504 7.61314H59.9039V17.6647H57.5534L57.5504 7.61314Z" fill="#FAFAFA"/>
<path d="M71.8416 8.61071C72.607 9.35074 72.9897 10.4489 72.9897 11.9051V17.6647H70.637V12.2061C70.637 11.328 70.4299 10.6659 70.0156 10.2199C69.6014 9.7739 69.0114 9.5504 68.2455 9.54941C67.3798 9.54941 66.6959 9.80966 66.1938 10.3302C65.6917 10.8507 65.4409 11.6006 65.4413 12.5801V17.6625H63.0879V7.61315H65.3281V8.91169C65.7224 8.44362 66.2271 8.08108 66.7965 7.85676C67.4324 7.61047 68.1098 7.4893 68.7916 7.49991C70.0596 7.49991 71.0763 7.87017 71.8416 8.61071Z" fill="#FAFAFA"/>
<path d="M81.8932 7.49988V9.73935C81.7132 9.70398 81.5304 9.68503 81.3471 9.68273C80.4307 9.68273 79.7155 9.94944 79.2015 10.4829C78.6874 11.0163 78.4299 11.7861 78.4289 12.7924V17.6676H76.0762V7.61312H78.3164V9.08077C78.9943 8.02734 80.1866 7.50037 81.8932 7.49988Z" fill="#FAFAFA"/>
<path d="M91.1641 8.56296C91.9488 9.2722 92.3412 10.342 92.3412 11.7724V17.6646H90.1196V16.4413C89.8175 16.8917 89.3883 17.242 88.8866 17.4478C88.3532 17.6803 87.71 17.7967 86.9571 17.7972C86.2039 17.7972 85.5416 17.6669 84.9806 17.4113C84.4522 17.1836 83.9988 16.8115 83.6723 16.3378C83.3646 15.8788 83.2038 15.337 83.2112 14.7845C83.2112 13.8815 83.5467 13.1569 84.2177 12.6105C84.8887 12.0642 85.9463 11.791 87.3906 11.791H89.9877V11.642C89.9877 10.9388 89.7776 10.3991 89.3575 10.0232C88.9373 9.64718 88.3127 9.4587 87.4838 9.4577C86.9181 9.4583 86.3561 9.54728 85.8179 9.72143C85.3139 9.87525 84.8442 10.1246 84.4345 10.456L83.5122 8.7425C84.0832 8.32036 84.728 8.00834 85.4134 7.82243C86.179 7.60566 86.9712 7.49782 87.7669 7.50207C89.2474 7.50058 90.3798 7.85421 91.1641 8.56296ZM89.0185 15.6792C89.4675 15.4193 89.8104 15.0093 89.987 14.5215V13.3548H87.559C86.2031 13.3548 85.5254 13.8001 85.5259 14.6906C85.52 14.8889 85.5633 15.0855 85.652 15.263C85.7407 15.4404 85.8719 15.5932 86.034 15.7075C86.3732 15.9588 86.8451 16.083 87.4495 16.08C87.9991 16.0907 88.5413 15.9522 89.0185 15.6792Z" fill="#FAFAFA"/>
<path d="M104.199 8.61071C104.965 9.35074 105.348 10.4489 105.348 11.9051V17.6647H102.995V12.2061C102.995 11.328 102.787 10.6659 102.373 10.2199C101.959 9.7739 101.369 9.5504 100.604 9.54941C99.7382 9.54941 99.0543 9.80966 98.5522 10.3302C98.0501 10.8507 97.799 11.6006 97.799 12.5801V17.6625H95.4463V7.61315H97.6865V8.91169C98.0808 8.44362 98.5855 8.08108 99.1549 7.85676C99.7907 7.61047 100.468 7.4893 101.15 7.49991C102.418 7.49991 103.434 7.87017 104.199 8.61071Z" fill="#FAFAFA"/>
<path d="M112.538 13.3548L110.787 15.0102V17.6646H108.435V3.69739H110.787V12.13L115.663 7.61311H118.487L114.289 11.8291L118.882 17.6646H116.02L112.538 13.3548Z" fill="#FAFAFA"/>
<path d="M120.52 5.55173C120.38 5.42452 120.269 5.2688 120.194 5.09505C120.12 4.9213 120.083 4.73356 120.087 4.54449C120.083 4.35532 120.12 4.1675 120.195 3.99364C120.269 3.81978 120.38 3.66391 120.52 3.5365C120.811 3.26656 121.196 3.12157 121.593 3.13271C121.986 3.12042 122.37 3.2584 122.666 3.51862C122.805 3.63807 122.916 3.78685 122.991 3.9543C123.066 4.12174 123.103 4.3037 123.099 4.48712C123.104 4.68067 123.068 4.87309 122.996 5.05249C122.923 5.23189 122.814 5.39445 122.676 5.53012C122.534 5.67205 122.365 5.78343 122.179 5.85737C121.993 5.93131 121.793 5.96623 121.593 5.95999C121.195 5.97025 120.81 5.82358 120.52 5.55173ZM120.408 7.61314H122.76V17.6647H120.408V7.61314Z" fill="#FAFAFA"/>
<path d="M134.697 8.61069C135.462 9.35072 135.844 10.4488 135.845 11.9051V17.6647H133.49V12.2061C133.49 11.3279 133.283 10.6659 132.868 10.2199C132.454 9.77388 131.864 9.55038 131.099 9.54939C130.232 9.54939 129.548 9.80964 129.047 10.3301C128.546 10.8507 128.295 11.6006 128.294 12.58V17.6624H125.941V7.61313H128.182V8.91167C128.576 8.44345 129.08 8.08087 129.649 7.85675C130.285 7.61059 130.963 7.48943 131.644 7.49989C132.912 7.49989 133.93 7.87016 134.697 8.61069Z" fill="#FAFAFA"/>
<path d="M149 7.6132V16.1405C149 19.6792 147.193 21.4484 143.579 21.4479C142.65 21.4534 141.725 21.33 140.83 21.0813C139.964 20.836 139.249 20.4813 138.684 20.0175L139.738 18.2481C140.178 18.6126 140.733 18.9044 141.404 19.1235C142.063 19.3408 142.752 19.4519 143.446 19.4527C144.55 19.4527 145.36 19.2019 145.875 18.7003C146.39 18.1987 146.647 17.4331 146.647 16.4035V15.8767C146.241 16.3184 145.738 16.6599 145.177 16.8743C144.571 17.1053 143.926 17.22 143.277 17.2125C142.377 17.2256 141.488 17.0154 140.689 16.6009C139.932 16.2079 139.3 15.6117 138.863 14.8792C138.416 14.1387 138.192 13.2913 138.192 12.3372C138.192 11.3832 138.416 10.5388 138.863 9.80425C139.301 9.0772 139.933 8.48706 140.689 8.10043C141.49 7.69247 142.378 7.48586 143.277 7.49847C143.956 7.48967 144.63 7.6108 145.263 7.85532C145.847 8.08561 146.362 8.46161 146.76 8.9475V7.6132H149ZM145.827 14.4173C146.398 13.8839 146.684 13.1905 146.684 12.3372C146.684 11.4969 146.398 10.8132 145.827 10.2863C145.256 9.7593 144.526 9.49557 143.636 9.49507C142.733 9.49507 141.996 9.7588 141.425 10.2863C140.854 10.8137 140.568 11.4974 140.568 12.3372C140.568 13.192 140.854 13.8854 141.425 14.4173C141.996 14.9492 142.733 15.2159 143.636 15.2174C144.526 15.2174 145.256 14.9507 145.827 14.4173Z" fill="#FAFAFA"/>
<path opacity="0.35" d="M17.7994 23.1695C17.0937 23.1697 16.395 23.0308 15.743 22.7609C15.0911 22.4909 14.4988 22.0951 13.9999 21.5961L1.57699 9.16946C0.825807 8.41821 0.314269 7.46107 0.107064 6.41909C-0.100141 5.37711 0.00629327 4.29708 0.412908 3.31559C0.819523 2.3341 1.50806 1.49523 2.39143 0.905058C3.27481 0.314887 4.31336 -7.53658e-05 5.37574 1.29173e-06H17.7979C18.5036 -0.0004881 19.2024 0.138087 19.8546 0.407809C20.5067 0.677531 21.0993 1.07311 21.5985 1.57195C22.0976 2.07078 22.4936 2.66309 22.7638 3.31503C23.034 3.96696 23.173 4.66575 23.173 5.37145V17.7943C23.1745 18.5005 23.0365 19.2 22.767 19.8527C22.4975 20.5054 22.1018 21.0985 21.6025 21.5979C21.1032 22.0973 20.5103 22.4932 19.8576 22.7629C19.205 23.0326 18.5055 23.1708 17.7994 23.1695Z" fill="#16D570"/>
<path d="M5.36313 23.165C4.30068 23.1654 3.26197 22.8507 2.3784 22.2607C1.49484 21.6707 0.80612 20.8319 0.399382 19.8504C-0.00735654 18.8688 -0.113841 17.7887 0.093399 16.7467C0.300639 15.7046 0.812292 14.7475 1.56363 13.9963L13.9865 1.56892C14.9942 0.561232 16.3609 -0.00488281 17.786 -0.00488281C19.2111 -0.00488281 20.5778 0.561232 21.5855 1.56892C22.5932 2.57661 23.1593 3.94334 23.1593 5.36843C23.1593 6.79352 22.5932 8.16024 21.5855 9.16793L9.16115 21.5878C8.66327 22.0881 8.0714 22.4849 7.4196 22.7556C6.76779 23.0263 6.0689 23.1654 5.36313 23.165Z" fill="#16D570"/>
</g>
<defs>
<clipPath id="clip0">
<rect width="149" height="23.1658" fill="white"/>
</clipPath>
</defs>
</svg>
