<svg width="106" height="41" viewBox="0 0 106 41" fill="none" xmlns="http://www.w3.org/2000/svg">
<g clip-path="url(#clip0)">
<path d="M20.9066 40.5292C20.8278 40.5292 20.7459 40.521 20.666 40.5054C20.5872 40.4909 20.5084 40.4672 20.4336 40.4372L6.89066 35.0206C6.73404 34.9576 6.59296 34.8657 6.47471 34.7499C6.3575 34.6352 6.26206 34.4966 6.19672 34.3417L0.464038 20.9692C0.430847 20.8927 0.405904 20.8132 0.388272 20.7315C0.371676 20.6519 0.362341 20.5692 0.362341 20.4856L0.361328 20.47C0.362365 20.3884 0.369624 20.3078 0.385182 20.2302C0.400741 20.1517 0.423551 20.0732 0.454668 19.9977L5.89077 6.50541C5.953 6.34935 6.04636 6.2088 6.16253 6.08995C6.27766 5.97316 6.41662 5.87806 6.57221 5.81295L19.9918 0.101862C20.0695 0.06879 20.1494 0.0439883 20.2304 0.0264188C20.3113 0.00988286 20.3953 0.000581341 20.4793 0.000581341C20.4813 -0.00019378 20.5001 -0.00019378 20.5022 0.000581341C20.582 0.000581341 20.6619 0.0088473 20.7376 0.0243498C20.8154 0.0388188 20.8911 0.0615456 20.9668 0.0915174L34.5088 5.50809C34.6654 5.57114 34.8065 5.66308 34.9247 5.77884C35.0429 5.89356 35.1373 6.03206 35.2037 6.18709L40.9354 19.5574C41.0018 19.7125 41.036 19.8778 41.0381 20.0432C41.0391 20.2075 41.008 20.3729 40.9447 20.529L35.5086 34.0223C35.4464 34.1784 35.3531 34.3189 35.2369 34.4367C35.1218 34.5545 34.9827 34.6496 34.8282 34.7147L21.4087 40.4259C21.3288 40.46 21.2469 40.4858 21.1639 40.5023C21.0767 40.5199 20.9907 40.5292 20.9066 40.5292ZM9.08649 32.0938L20.8807 36.8107L32.5692 31.8375L37.3041 20.0856L32.3129 8.44009L20.5187 3.72117L8.82816 8.69638L4.09325 20.4483L9.08649 32.0938Z" fill="#CDCDD0"/>
<path fill-rule="evenodd" clip-rule="evenodd" d="M19.4079 25.4617H27.2804V29.1069H14.1191V25.7935L19.2979 20.0813L14.144 14.7299V11.4072H27.2804V15.0513H19.576L24.3523 20.0359L19.4079 25.4617Z" fill="#CDCDD0"/>
<path fill-rule="evenodd" clip-rule="evenodd" d="M48.7086 15.406V18.494H56.3446V21.7124H48.7086V25.0743H56.5054V28.2937H45.1572V12.1866H56.5054V15.406H48.7086ZM64.1498 22.6043H62.1697V28.2937H58.6183V12.1866H65.772C68.9054 12.1866 71.206 14.2195 71.206 17.3954C71.206 18.6656 70.8358 19.8831 69.9685 20.8339C69.3942 21.4653 68.6503 21.917 67.8371 22.1588L71.6679 28.2937H67.5435L64.1498 22.6043ZM62.1697 15.406V19.3849H65.4048C66.6246 19.3849 67.5851 18.6646 67.5851 17.3954C67.5851 16.1263 66.6246 15.406 65.4048 15.406H62.1697ZM84.2118 24.2155V22.4668H79.6479V19.2485H87.763V25.5601L87.6513 25.6831C85.9181 27.593 83.6037 28.5903 81.0226 28.5903C76.1932 28.5903 72.5614 25.1084 72.5614 20.2521C72.5614 15.3915 76.196 11.9365 81.0226 11.9365C83.7478 11.9365 85.9843 13.0764 87.5465 15.2964L87.8223 15.6871L84.8599 17.3479L84.6337 17.0265C83.8188 15.8659 82.4393 15.1776 81.0226 15.1776C78.1146 15.1776 76.1829 17.4213 76.1829 20.2521C76.1829 23.0787 78.1126 25.3492 81.0226 25.3492C82.0987 25.3492 83.3673 24.9235 84.2118 24.2155ZM89.2349 20.2521C89.2349 15.469 92.6599 11.9365 97.4879 11.9365C102.317 11.9365 105.742 15.468 105.742 20.2521C105.742 25.0351 102.317 28.5676 97.4879 28.5676C92.6599 28.5676 89.2349 25.0351 89.2349 20.2521ZM102.122 20.2521C102.122 17.4595 100.425 15.1776 97.4879 15.1776C94.5386 15.1776 92.855 17.4492 92.855 20.2521C92.855 23.0435 94.5496 25.3266 97.4879 25.3266C100.414 25.3266 102.122 23.0332 102.122 20.2521Z" fill="#CDCDD0"/>
</g>
<defs>
<clipPath id="clip0">
<rect width="106" height="40.5294" fill="white"/>
</clipPath>
</defs>
</svg>
