<svg width="119" height="27" viewBox="0 0 119 27" fill="none" xmlns="http://www.w3.org/2000/svg">
<g clip-path="url(#clip0)">
<path fill-rule="evenodd" clip-rule="evenodd" d="M12.1892 1.0738L18.5498 4.43425C19.0269 4.68629 19.0269 5.09493 18.5498 5.34697L12.1892 8.70742C11.7121 8.95946 10.9387 8.95946 10.4616 8.70742L4.10096 5.34697C3.6239 5.09493 3.6239 4.68629 4.10096 4.43425L10.4616 1.0738C10.9387 0.821756 11.7121 0.821756 12.1892 1.0738Z" stroke="#CDCDD0"/>
<path fill-rule="evenodd" clip-rule="evenodd" d="M12.1892 9.27399L18.5498 12.6344C19.0269 12.8865 19.0269 13.2951 18.5498 13.5472L12.1892 16.9076C11.7121 17.1597 10.9387 17.1597 10.4616 16.9076L4.10096 13.5472C3.6239 13.2951 3.6239 12.8865 4.10096 12.6344L10.4616 9.27399C10.9387 9.02195 11.7121 9.02195 12.1892 9.27399Z" stroke="#CDCDD0"/>
<mask id="mask0" mask-type="alpha" maskUnits="userSpaceOnUse" x="2" y="21" width="19" height="6">
<path d="M20.1537 21.7152H2.75684V26.5222H20.1537V21.7152Z" fill="white"/>
</mask>
<g mask="url(#mask0)">
<path fill-rule="evenodd" clip-rule="evenodd" d="M12.1892 17.8513L18.5498 21.2117C19.0269 21.4638 19.0269 21.8724 18.5498 22.1244L12.1892 25.4849C11.7121 25.7369 10.9387 25.7369 10.4616 25.4849L4.10096 22.1244C3.6239 21.8724 3.6239 21.4638 4.10096 21.2117L10.4616 17.8513C10.9387 17.5992 11.7121 17.5992 12.1892 17.8513Z" stroke="#CDCDD0"/>
</g>
<path d="M19.6621 1.98267C20.9075 2.73671 21.5197 3.01947 21.5197 4.90458" stroke="#CDCDD0"/>
<path d="M2.86719 24.2932C1.6218 23.5392 1.00957 23.2564 1.00957 21.3713" stroke="#CDCDD0"/>
<path d="M3.69531 21.5738V4.97864" stroke="#CDCDD0" stroke-linecap="square"/>
<path d="M18.9541 21.5738V4.97864" stroke="#CDCDD0" stroke-linecap="square"/>
<path d="M11.3252 16.861V9.13208" stroke="#CDCDD0" stroke-linecap="square"/>
<path d="M33.3997 22.2493V10.5476H36.641V8.40508H33.3997V6.86684C33.3997 5.12716 34.1597 4.25732 35.6796 4.25732C36.1191 4.25732 36.5861 4.33057 37.0805 4.47707V2.19717C36.4762 2.01405 35.8078 1.92249 35.0753 1.92249C33.6653 1.92249 32.5711 2.32536 31.7928 3.13111C31.0145 3.93685 30.6254 5.10885 30.6254 6.64709V8.40508H27.9609V10.5476H30.6254V22.2493H33.3997ZM44.7992 22.4416C45.8613 22.4416 46.7907 22.2218 47.5873 21.7823C48.3839 21.3428 48.9836 20.711 49.3865 19.887V22.2493H52.1334V8.40508H49.3865V10.6575C48.9653 9.83346 48.361 9.1971 47.5736 8.74844C46.7861 8.29979 45.8613 8.07546 44.7992 8.07546C43.6089 8.07546 42.5468 8.37762 41.6129 8.98193C40.6789 9.58624 39.951 10.4378 39.4291 11.5365C38.9072 12.6353 38.6462 13.8988 38.6462 15.3272C38.6462 16.7556 38.9026 18.0054 39.4154 19.0767C39.9281 20.1479 40.6469 20.9766 41.5717 21.5626C42.4964 22.1486 43.5723 22.4416 44.7992 22.4416ZM45.4585 20.2441C44.1949 20.2441 43.2106 19.8137 42.5056 18.953C41.8006 18.0924 41.448 16.8837 41.448 15.3272C41.448 13.7523 41.8006 12.5208 42.5056 11.6327C43.2106 10.7445 44.1858 10.3004 45.431 10.3004C46.6946 10.3004 47.6697 10.7308 48.3564 11.5914C49.0431 12.4521 49.3865 13.6791 49.3865 15.2722C49.3865 16.8471 49.0431 18.0695 48.3564 18.9393C47.6697 19.8091 46.7037 20.2441 45.4585 20.2441ZM58.9456 22.2493V14.3658C58.9456 13.1388 59.2981 12.1591 60.0031 11.4266C60.7082 10.6941 61.6467 10.3279 62.8187 10.3279C63.8442 10.3279 64.5904 10.6026 65.0574 11.1519C65.5243 11.7013 65.7578 12.5803 65.7578 13.7889V22.2493H68.5321V13.6241C68.5321 9.92502 66.8749 8.07546 63.5603 8.07546C62.4982 8.07546 61.5505 8.30895 60.7173 8.77591C59.8841 9.24288 59.2477 9.91586 58.8082 10.7949L58.561 8.40508H55.979C56.1255 9.55877 56.1987 10.859 56.1987 12.3056V22.2493H58.9456ZM77.8166 22.4416C78.5857 22.4416 79.2724 22.3408 79.8767 22.1394V19.887C79.3823 20.0335 78.897 20.1067 78.4209 20.1067C77.6884 20.1067 77.1161 19.9099 76.7041 19.5162C76.292 19.1224 76.086 18.4495 76.086 17.4972V10.5476H79.9042V8.40508H76.086V3.98263L73.3117 4.94404V8.40508H70.6198V10.5476H73.3117V17.717C73.3117 19.2552 73.7054 20.4272 74.4928 21.2329C75.2803 22.0387 76.3882 22.4416 77.8166 22.4416ZM88.4195 22.4416C89.7563 22.4416 90.9374 22.1486 91.9629 21.5626C92.9884 20.9766 93.7804 20.1434 94.339 19.0629C94.8975 17.9825 95.1767 16.7189 95.1767 15.2722C95.1767 13.8256 94.8975 12.5574 94.339 11.4678C93.7804 10.3782 92.9884 9.54046 91.9629 8.95446C90.9374 8.36846 89.7563 8.07546 88.4195 8.07546C87.0643 8.07546 85.874 8.36846 84.8485 8.95446C83.823 9.54046 83.031 10.3782 82.4725 11.4678C81.914 12.5574 81.6347 13.8256 81.6347 15.2722C81.6347 16.7189 81.914 17.9825 82.4725 19.0629C83.031 20.1434 83.823 20.9766 84.8485 21.5626C85.874 22.1486 87.0643 22.4416 88.4195 22.4416ZM88.392 20.2441C87.1284 20.2441 86.1533 19.8229 85.4666 18.9805C84.7799 18.1381 84.4365 16.9021 84.4365 15.2722C84.4365 13.6791 84.7844 12.4521 85.4803 11.5914C86.1762 10.7308 87.1559 10.3004 88.4195 10.3004C89.6647 10.3004 90.6307 10.7308 91.3174 11.5914C92.0041 12.4521 92.3475 13.6791 92.3475 15.2722C92.3475 16.9021 92.0087 18.1381 91.3311 18.9805C90.6536 19.8229 89.6739 20.2441 88.392 20.2441ZM101.165 22.2493V14.4207C101.165 13.1572 101.476 12.1591 102.099 11.4266C102.721 10.6941 103.564 10.3279 104.626 10.3279C105.542 10.3279 106.205 10.6026 106.617 11.1519C107.029 11.7013 107.235 12.5712 107.235 13.7615V22.2493H110.01V14.4207C110.01 13.1572 110.317 12.1591 110.93 11.4266C111.543 10.6941 112.381 10.3279 113.443 10.3279C114.359 10.3279 115.023 10.6026 115.435 11.1519C115.847 11.7013 116.053 12.5712 116.053 13.7615V22.2493H118.827V13.6241C118.827 9.92502 117.289 8.07546 114.213 8.07546C113.187 8.07546 112.267 8.31352 111.452 8.78965C110.637 9.26577 110.019 9.91586 109.598 10.7399C108.939 8.96361 107.538 8.07546 105.395 8.07546C104.388 8.07546 103.509 8.30437 102.758 8.76218C102.007 9.21999 101.43 9.87008 101.028 10.7125L100.78 8.40508H98.1983C98.3448 9.55877 98.4181 10.859 98.4181 12.3056V22.2493H101.165Z" fill="#CDCDD0"/>
</g>
<defs>
<clipPath id="clip0">
<rect width="119" height="26.9851" fill="white"/>
</clipPath>
</defs>
</svg>
