<svg width="32" height="32" viewBox="0 0 32 32" fill="none" xmlns="http://www.w3.org/2000/svg">
<g clip-path="url(#clip0)">
<path d="M0 -8.95996V32H32.5203V-8.95996H0ZM11.3689 -4.2086H14.4094V-0.276441H11.3689V-4.2086ZM3.7015 -4.2086H6.87421V-0.276441H3.7015V-4.2086ZM6.74202 5.29412V9.22628H3.5693V5.29412H6.74202ZM5.94884 26.921H4.62688V25.4464H5.81664V26.921H5.94884ZM6.87421 19.0567H3.7015V15.2884H6.87421V19.0567ZM13.6162 26.921H12.4265V25.4464H13.6162V26.921ZM13.6162 17.746H12.4265V16.2714H13.6162V17.746ZM14.5416 9.39012H11.3689V5.45796H14.5416V9.39012ZM21.2836 26.921H20.0939V25.4464H21.2836V26.921ZM21.2836 17.746H20.0939V16.2714H21.2836V17.746ZM21.2836 8.0794H20.0939V6.60484H21.2836V8.0794ZM22.3412 -0.276441H19.1685V-4.2086H22.3412V-0.276441ZM29.0832 26.921H27.8934V25.4464H29.0832V26.921ZM29.0832 17.746H27.8934V16.2714H29.0832V17.746ZM29.0832 8.0794H27.8934V6.60484H29.0832V8.0794ZM29.0832 -1.42332H27.8934V-2.89788H29.0832V-1.42332Z" fill="#CFCECF"/>
</g>
<defs>
<clipPath id="clip0">
<rect width="32" height="32" fill="white"/>
</clipPath>
</defs>
</svg>
