<svg width="136" height="25" viewBox="0 0 136 25" fill="none" xmlns="http://www.w3.org/2000/svg">
<g opacity="0.8">
<path d="M37.2778 4.64256C35.9975 4.62572 35.0962 4.86157 34.5739 5.35013C34.0685 5.82184 33.8158 6.62207 33.8158 7.7508V8.30675H37.2778V9.8735H33.8158V22.1043H32.0469V9.8735H30V8.30675H32.0469V7.62445C32.0469 6.07455 32.4681 4.91211 33.3104 4.13716C34.1527 3.36221 35.4752 3.00842 37.2778 3.07581V4.64256Z" fill="#FAFAFA"/>
<path d="M48.2602 20.8155C49.5069 20.8155 50.5514 20.5038 51.3937 19.8805C52.2361 19.2572 52.7415 18.4148 52.9099 17.3535H54.7799C54.5272 18.8192 53.8281 20.0069 52.6825 20.9166C51.5369 21.8263 50.0881 22.2812 48.336 22.2812C47.022 22.2812 45.8511 22.0032 44.8235 21.4473C43.8126 20.8745 43.0208 20.0574 42.4481 18.9961C41.8753 17.9179 41.5889 16.6543 41.5889 15.2055C41.5889 13.7567 41.8753 12.5016 42.4481 11.4403C43.0208 10.3621 43.8126 9.54499 44.8235 8.98904C45.8511 8.41625 47.022 8.12986 48.336 8.12986C49.6838 8.12986 50.8462 8.41625 51.8233 8.98904C52.8173 9.54499 53.567 10.2947 54.0724 11.2381C54.5946 12.1815 54.8557 13.2092 54.8557 14.3211C54.8557 14.7928 54.822 15.2224 54.7547 15.6098H43.3325C43.3494 16.7723 43.5852 17.7494 44.0401 18.5412C44.5118 19.3161 45.1183 19.8889 45.8595 20.2596C46.6008 20.6302 47.401 20.8155 48.2602 20.8155ZM48.336 9.57026C47.4431 9.57026 46.6261 9.75558 45.8848 10.1262C45.1435 10.4968 44.5371 11.0696 44.0653 11.8446C43.6105 12.6027 43.3662 13.5545 43.3325 14.7001H53.0868C53.1542 13.5714 52.9689 12.6195 52.5309 11.8446C52.0929 11.0696 51.5032 10.4968 50.762 10.1262C50.0207 9.75558 49.2121 9.57026 48.336 9.57026Z" fill="#FAFAFA"/>
<path d="M66.6225 20.5375V22.1043H64.9799C63.649 22.1043 62.6551 21.7926 61.998 21.1693C61.341 20.5291 61.0125 19.4593 61.0125 17.96V9.84823H58.9151V8.30675H61.0125V4.81946H62.8067V8.30675H66.5972V9.84823H62.8067V17.9852C62.8067 18.9624 62.9836 19.6362 63.3374 20.0069C63.6911 20.3607 64.3145 20.5375 65.2073 20.5375H66.6225Z" fill="#FAFAFA"/>
<path d="M77.9415 8.12986C79.6935 8.12986 81.1424 8.59315 82.288 9.51972C83.4504 10.4463 84.1579 11.6761 84.4107 13.2092H82.5659C82.3806 12.1141 81.8668 11.2549 81.0244 10.6316C80.1821 9.99143 79.146 9.67134 77.9162 9.67134C77.0233 9.67134 76.1978 9.8735 75.4397 10.2778C74.6985 10.6822 74.1004 11.3055 73.6455 12.1478C73.2075 12.9733 72.9885 13.9926 72.9885 15.2055C72.9885 16.4185 73.2075 17.4462 73.6455 18.2885C74.1004 19.114 74.6985 19.7289 75.4397 20.1332C76.1978 20.5375 77.0233 20.7397 77.9162 20.7397C79.146 20.7397 80.1821 20.428 81.0244 19.8047C81.8668 19.1645 82.3806 18.2969 82.5659 17.2019H84.4107C84.1579 18.7349 83.4504 19.9648 82.288 20.8913C81.1424 21.8179 79.6935 22.2812 77.9415 22.2812C76.6274 22.2812 75.4566 22.0032 74.4289 21.4473C73.4181 20.8745 72.6263 20.0574 72.0535 18.9961C71.4807 17.9179 71.1943 16.6543 71.1943 15.2055C71.1943 13.7567 71.4807 12.5016 72.0535 11.4403C72.6263 10.3621 73.4181 9.54499 74.4289 8.98904C75.4566 8.41625 76.6274 8.12986 77.9415 8.12986Z" fill="#FAFAFA"/>
<path d="M96.8103 8.05405C98.4108 8.05405 99.708 8.56787 100.702 9.59553C101.713 10.6063 102.218 12.0973 102.218 14.0684V22.1043H100.475V14.1947C100.475 12.6953 100.095 11.5498 99.3374 10.758C98.5793 9.94932 97.5432 9.54499 96.2291 9.54499C94.8477 9.54499 93.7442 9.99143 92.9187 10.8843C92.1101 11.7603 91.7057 13.0576 91.7057 14.7759V22.1043H89.9116V3.40432H91.7057V11.693C92.0595 10.5137 92.6997 9.61238 93.6263 8.98904C94.5529 8.36571 95.6142 8.05405 96.8103 8.05405Z" fill="#FAFAFA"/>
<path d="M109.456 19.83V22.1043H107.105V19.83H109.456Z" fill="#FAFAFA"/>
<path d="M120.295 8.12986C121.693 8.12986 122.881 8.49206 123.858 9.21648C124.852 9.94089 125.534 10.9012 125.905 12.0973V8.30675H127.648V22.1043H125.905V18.3138C125.534 19.5099 124.852 20.4702 123.858 21.1946C122.881 21.919 121.693 22.2812 120.295 22.2812C119.048 22.2812 117.928 21.9948 116.934 21.422C115.957 20.8492 115.19 20.0321 114.634 18.9708C114.095 17.8926 113.826 16.6375 113.826 15.2055C113.826 13.7567 114.095 12.5016 114.634 11.4403C115.19 10.3621 115.957 9.54499 116.934 8.98904C117.911 8.41625 119.031 8.12986 120.295 8.12986ZM120.75 9.69661C119.2 9.69661 117.953 10.1936 117.01 11.1876C116.083 12.1647 115.62 13.504 115.62 15.2055C115.62 16.9071 116.083 18.2548 117.01 19.2488C117.953 20.2259 119.2 20.7144 120.75 20.7144C121.727 20.7144 122.603 20.487 123.378 20.0321C124.17 19.5773 124.785 18.9371 125.223 18.1116C125.677 17.2693 125.905 16.3006 125.905 15.2055C125.905 14.1105 125.677 13.1502 125.223 12.3247C124.785 11.4824 124.17 10.8338 123.378 10.3789C122.603 9.92404 121.727 9.69661 120.75 9.69661Z" fill="#FAFAFA"/>
<path d="M133.397 4.21297C133.397 3.84234 133.515 3.54752 133.751 3.32851C134.004 3.1095 134.324 3 134.711 3C135.099 3 135.41 3.1095 135.646 3.32851C135.882 3.54752 136 3.84234 136 4.21297C136 4.56675 135.882 4.85315 135.646 5.07216C135.41 5.29117 135.099 5.40067 134.711 5.40067C134.324 5.40067 134.004 5.29117 133.751 5.07216C133.515 4.85315 133.397 4.56675 133.397 4.21297ZM135.596 8.30675V22.1043H133.801V8.30675H135.596Z" fill="#FAFAFA"/>
</g>
<g clip-path="url(#clip0)">
<path d="M0 0V25H24.6V0H0ZM8.6 2.9H10.9V5.3H8.6V2.9ZM2.8 2.9H5.2V5.3H2.8V2.9ZM5.1 8.7V11.1H2.7V8.7H5.1ZM4.5 21.9H3.5V21H4.4V21.9H4.5ZM5.2 17.1H2.8V14.8H5.2V17.1ZM10.3 21.9H9.4V21H10.3V21.9ZM10.3 16.3H9.4V15.4H10.3V16.3ZM11 11.2H8.6V8.8H11V11.2ZM16.1 21.9H15.2V21H16.1V21.9ZM16.1 16.3H15.2V15.4H16.1V16.3ZM16.1 10.4H15.2V9.5H16.1V10.4ZM16.9 5.3H14.5V2.9H16.9V5.3ZM22 21.9H21.1V21H22V21.9ZM22 16.3H21.1V15.4H22V16.3ZM22 10.4H21.1V9.5H22V10.4ZM22 4.6H21.1V3.7H22V4.6Z" fill="#CDCDD0"/>
</g>
<defs>
<clipPath id="clip0">
<rect width="24.6" height="25" fill="white"/>
</clipPath>
</defs>
</svg>
