<svg width="126" height="32" viewBox="0 0 126 32" fill="none" xmlns="http://www.w3.org/2000/svg">
<path fill-rule="evenodd" clip-rule="evenodd" d="M44.6287 13.6785H40.3949C40.266 13.6785 40.174 13.7707 40.174 13.8997V16.1667C40.174 16.2957 40.266 16.3878 40.3949 16.3878H44.1869C44.463 16.3878 44.7023 16.609 44.7023 16.9039V19.3184C44.7023 19.5948 44.4814 19.8344 44.1869 19.8344H40.3949C40.266 19.8344 40.174 19.9266 40.174 20.0556V25.6217C40.174 25.8982 39.9531 26.1378 39.6586 26.1378H36.5476C36.2715 26.1378 36.0322 25.9166 36.0322 25.6217V10.748C36.0322 10.4715 36.2531 10.2319 36.5476 10.2319H44.6103C44.8864 10.2319 45.1257 10.4531 45.1257 10.748V13.1624C45.1441 13.4573 44.9232 13.6785 44.6287 13.6785Z" fill="#CDCDD0"/>
<path fill-rule="evenodd" clip-rule="evenodd" d="M62.4248 19.3921C62.4432 20.2215 62.3512 21.0324 62.1855 21.8434C61.9462 22.894 61.3571 23.8524 60.4552 24.7186C59.1666 25.9351 57.4363 26.5433 55.2826 26.5433C53.092 26.5433 51.3801 25.9166 50.1468 24.6818C49.4841 23.9998 49.0239 23.152 48.803 22.2304C48.6189 21.3089 48.5269 20.3505 48.5453 19.4105V10.748C48.5453 10.4715 48.7662 10.2319 49.0607 10.2319H52.1716C52.4477 10.2319 52.687 10.4531 52.687 10.748V18.8392C52.687 19.5395 52.7055 20.0556 52.7239 20.3874C52.7975 21.4748 53.2945 22.212 54.1965 22.6544C54.5831 22.8387 55.0064 22.9308 55.4298 22.9124C56.4422 22.9124 57.197 22.5622 57.7124 21.8618C58.099 21.3458 58.283 20.3321 58.283 18.8392V10.748C58.283 10.4715 58.5039 10.2319 58.7985 10.2319H61.891C62.1671 10.2319 62.4064 10.4531 62.4064 10.748L62.4248 19.3921Z" fill="#CDCDD0"/>
<path fill-rule="evenodd" clip-rule="evenodd" d="M77.7161 20.8658C77.7161 23.5567 76.538 25.3076 74.1818 26.1186C73.3351 26.4135 72.4331 26.5609 71.5311 26.5425C69.7087 26.5425 67.9232 26.008 66.3953 24.9943C66.1744 24.8469 66.0824 24.552 66.2112 24.3124L67.463 21.9532C67.5918 21.6952 67.9048 21.603 68.1441 21.732C68.1625 21.7505 68.1993 21.7689 68.2177 21.7873C69.3038 22.6536 70.353 23.0775 71.4023 23.0775C71.8809 23.0959 72.3595 22.9669 72.7644 22.7089C73.1878 22.4508 73.4271 21.9901 73.4087 21.5109C73.4087 21.0317 73.1694 20.6446 72.6908 20.3313C72.3411 20.0917 71.7336 19.8521 70.8868 19.6125C69.856 19.3176 69.2117 19.0964 68.954 18.9858C68.5674 18.82 68.1993 18.6172 67.8864 18.3592C67.058 17.6588 66.6346 16.6083 66.6346 15.1891C66.6346 13.7146 67.0764 12.4982 67.9416 11.5213C68.9724 10.3786 70.3346 9.80725 72.0465 9.80725C73.6296 9.80725 75.1759 10.1759 76.6117 10.8578C76.8694 10.9868 76.9798 11.2817 76.8694 11.5398C76.8694 11.5398 76.8694 11.5582 76.851 11.5582L75.6913 13.8252C75.5624 14.0832 75.2495 14.1754 74.9918 14.0464C74.9734 14.0464 74.955 14.0279 74.955 14.0279C74.2923 13.5672 73.5007 13.3091 72.6908 13.2907C72.2674 13.2907 71.8625 13.4197 71.4943 13.6409C71.1261 13.8436 70.9052 14.2491 70.9052 14.673C70.9052 15.0969 71.163 15.4471 71.6784 15.7604C71.9177 15.9079 72.6172 16.1475 73.7769 16.4792C75.2311 16.9031 76.2803 17.5114 76.9062 18.3039C77.4584 18.9674 77.7161 19.8152 77.7161 20.8658Z" fill="#CDCDD0"/>
<path d="M85.4152 10.2319H81.2734V26.1378H85.4152V10.2319Z" fill="#CDCDD0"/>
<path d="M106.568 18.2309C106.587 20.332 105.813 22.3594 104.414 23.9076C102.776 25.7691 100.567 26.6907 97.7692 26.6907C94.9712 26.6907 92.7622 25.7691 91.1423 23.9076C89.7433 22.3594 88.9702 20.3136 88.9886 18.2309C89.007 17.1988 89.1911 16.1666 89.5777 15.1898C89.9274 14.213 90.4612 13.3098 91.1239 12.5358C92.7622 10.6742 94.9712 9.75269 97.7692 9.75269C100.567 9.75269 102.776 10.6742 104.414 12.5358C105.832 14.1024 106.605 16.1298 106.568 18.2309ZM102.297 18.2309C102.316 17.1619 101.929 16.1298 101.23 15.3188C99.6099 13.4204 96.7567 13.1993 94.8607 14.8212C93.8667 15.669 93.2776 16.9223 93.2776 18.2309C93.2776 19.2999 93.6458 20.3136 94.3453 21.1061C95.1921 22.1382 96.4438 22.7096 97.7692 22.6912C100.236 22.7096 102.261 20.7375 102.279 18.2678C102.297 18.2493 102.297 18.2493 102.297 18.2309Z" fill="#CDCDD0"/>
<path fill-rule="evenodd" clip-rule="evenodd" d="M125.484 26.1378H122.115C121.95 26.1378 121.802 26.0641 121.71 25.935L114.66 16.9039C114.586 16.8118 114.439 16.7933 114.347 16.8671C114.292 16.9039 114.255 16.9776 114.255 17.0329V26.1194H110.629C110.353 26.1194 110.113 25.8982 110.113 25.6033V10.748C110.113 10.4715 110.334 10.2319 110.629 10.2319H113.997C114.163 10.2319 114.31 10.3057 114.402 10.4347L121.453 19.4658C121.526 19.558 121.673 19.5764 121.765 19.5027C121.821 19.4658 121.857 19.3921 121.857 19.3184V10.748C121.857 10.4715 122.078 10.2319 122.373 10.2319H125.484C125.76 10.2319 125.999 10.4531 125.999 10.748V25.6217C125.999 25.8982 125.76 26.1378 125.484 26.1378Z" fill="#CDCDD0"/>
<path d="M14.6527 10.3788C9.73776 17.917 6.71887 28.3857 5.54077 31.9429C4.87808 25.2341 8.37558 16.0923 10.9343 10.6921C9.75616 10.7474 3.47909 11.1897 0 14.7837C0 14.7837 1.8776 9.01488 12.7198 7.26394L12.7566 7.19022C21.2427 -5.21377 27.6118 2.19545 27.6118 2.19545C23.7461 1.55037 20.3775 3.48561 17.5059 6.63729C18.9049 6.582 27.9615 6.47141 30.5755 13.641C30.5755 13.641 25.3292 9.88113 14.6527 10.3788ZM20.7825 19.0228C18.6103 19.0228 16.8432 20.7922 16.8432 22.9671C16.8432 25.1419 18.6103 26.9113 20.7825 26.9113C22.9546 26.9113 24.7218 25.1419 24.7218 22.9671C24.7218 20.7738 22.9546 19.0228 20.7825 19.0228Z" fill="#CDCDD0"/>
</svg>
