<svg width="209" height="17" viewBox="0 0 209 17" fill="none" xmlns="http://www.w3.org/2000/svg">
<path d="M152.776 11.733L152.776 12.4578L147.169 12.4578L147.169 4.5301L152.606 4.5301L152.606 5.25492L148.008 5.25492L148.008 8.07491L152.107 8.07491L152.107 8.78841L148.008 8.78841L148.008 11.733L152.776 11.733Z" fill="white"/>
<path d="M158.396 12.0954C158.245 12.2313 158.056 12.337 157.83 12.4125C157.611 12.4804 157.381 12.5144 157.139 12.5144C156.58 12.5144 156.15 12.3634 155.848 12.0614C155.546 11.7594 155.395 11.3328 155.395 10.7817L155.395 7.18022L154.33 7.18022L154.33 6.5007L155.395 6.5007L155.395 5.1983L156.199 5.1983L156.199 6.5007L158.011 6.5007L158.011 7.18022L156.199 7.18022L156.199 10.7364C156.199 11.0912 156.286 11.363 156.46 11.5518C156.641 11.733 156.897 11.8236 157.23 11.8236C157.396 11.8236 157.554 11.7972 157.705 11.7443C157.864 11.6914 158 11.6159 158.113 11.5178L158.396 12.0954Z" fill="white"/>
<path d="M163.745 6.4554C164.492 6.4554 165.085 6.67436 165.523 7.11227C165.968 7.54263 166.191 8.17307 166.191 9.00359L166.191 12.4578L165.387 12.4578L165.387 9.08286C165.387 8.46375 165.232 7.99186 164.922 7.6672C164.613 7.34255 164.171 7.18022 163.597 7.18022C162.956 7.18022 162.446 7.37275 162.068 7.75781C161.698 8.13532 161.513 8.66005 161.513 9.33202L161.513 12.4578L160.709 12.4578L160.709 4.05444L161.513 4.05444L161.513 7.54263C161.732 7.19532 162.034 6.92729 162.419 6.73853C162.805 6.54978 163.246 6.4554 163.745 6.4554Z" fill="white"/>
<path d="M174.432 9.7284L169.449 9.7284C169.495 10.3475 169.732 10.8496 170.163 11.2347C170.593 11.6122 171.137 11.8009 171.794 11.8009C172.163 11.8009 172.503 11.7368 172.813 11.6084C173.122 11.4725 173.39 11.2762 173.617 11.0195L174.07 11.5404C173.806 11.8576 173.473 12.0992 173.073 12.2653C172.681 12.4314 172.247 12.5144 171.771 12.5144C171.159 12.5144 170.616 12.3861 170.14 12.1294C169.672 11.8651 169.306 11.5027 169.042 11.0421C168.777 10.5816 168.645 10.0606 168.645 9.47925C168.645 8.89788 168.77 8.37692 169.019 7.91636C169.276 7.4558 169.623 7.09717 170.061 6.84046C170.506 6.58375 171.005 6.4554 171.556 6.4554C172.107 6.4554 172.601 6.58375 173.039 6.84046C173.477 7.09717 173.821 7.4558 174.07 7.91636C174.319 8.36937 174.444 8.89033 174.444 9.47925L174.432 9.7284ZM171.556 7.14624C170.982 7.14624 170.499 7.33122 170.106 7.70118C169.721 8.06359 169.502 8.53925 169.449 9.12817L173.674 9.12817C173.621 8.53925 173.398 8.06359 173.005 7.70118C172.62 7.33122 172.137 7.14624 171.556 7.14624Z" fill="white"/>
<path d="M177.7 7.66721C177.889 7.26705 178.168 6.96504 178.538 6.76118C178.915 6.55733 179.38 6.4554 179.931 6.4554L179.931 7.23685L179.738 7.22552C179.112 7.22552 178.621 7.41805 178.266 7.80311C177.911 8.18817 177.734 8.72801 177.734 9.42262L177.734 12.4578L176.93 12.4578L176.93 6.5007L177.7 6.5007L177.7 7.66721Z" fill="white"/>
<path d="M187.368 9.7284L182.385 9.7284C182.43 10.3475 182.668 10.8496 183.098 11.2347C183.529 11.6122 184.072 11.8009 184.729 11.8009C185.099 11.8009 185.439 11.7368 185.748 11.6084C186.058 11.4725 186.326 11.2762 186.552 11.0195L187.005 11.5404C186.741 11.8576 186.409 12.0992 186.009 12.2653C185.616 12.4314 185.182 12.5144 184.706 12.5144C184.095 12.5144 183.551 12.3861 183.076 12.1294C182.608 11.8651 182.241 11.5027 181.977 11.0421C181.713 10.5816 181.581 10.0606 181.581 9.47925C181.581 8.89788 181.705 8.37692 181.954 7.91636C182.211 7.4558 182.558 7.09717 182.996 6.84046C183.442 6.58376 183.94 6.4554 184.491 6.4554C185.042 6.4554 185.537 6.58376 185.975 6.84046C186.413 7.09717 186.756 7.4558 187.005 7.91636C187.255 8.36937 187.379 8.89033 187.379 9.47925L187.368 9.7284ZM184.491 7.14624C183.917 7.14624 183.434 7.33122 183.042 7.70118C182.657 8.06359 182.438 8.53925 182.385 9.12817L186.609 9.12817C186.556 8.53925 186.334 8.06359 185.941 7.70118C185.556 7.33122 185.073 7.14624 184.491 7.14624Z" fill="white"/>
<path d="M195.233 6.5007L195.233 12.4578L194.463 12.4578L194.463 11.3706C194.252 11.733 193.961 12.0161 193.591 12.22C193.221 12.4163 192.799 12.5144 192.323 12.5144C191.545 12.5144 190.93 12.2992 190.477 11.8689C190.031 11.431 189.809 10.793 189.809 9.95491L189.809 6.5007L190.613 6.5007L190.613 9.87563C190.613 10.5023 190.768 10.978 191.077 11.3026C191.387 11.6273 191.828 11.7896 192.402 11.7896C193.029 11.7896 193.523 11.6008 193.886 11.2233C194.248 10.8383 194.429 10.306 194.429 9.62648L194.429 6.5007L195.233 6.5007Z" fill="white"/>
<path d="M205.764 6.4554C206.512 6.4554 207.097 6.67058 207.52 7.10094C207.95 7.5313 208.165 8.16552 208.165 9.00359L208.165 12.4578L207.361 12.4578L207.361 9.08287C207.361 8.46375 207.21 7.99186 206.908 7.66721C206.614 7.34255 206.195 7.18022 205.651 7.18022C205.032 7.18022 204.545 7.37275 204.19 7.75781C203.835 8.13532 203.658 8.66006 203.658 9.33202L203.658 12.4578L202.854 12.4578L202.854 9.08286C202.854 8.46375 202.703 7.99186 202.401 7.66721C202.106 7.34255 201.683 7.18022 201.132 7.18022C200.521 7.18022 200.034 7.37275 199.671 7.75781C199.316 8.13532 199.139 8.66006 199.139 9.33202L199.139 12.4578L198.335 12.4578L198.335 6.5007L199.105 6.5007L199.105 7.58793C199.316 7.22552 199.611 6.94616 199.988 6.74986C200.366 6.55356 200.8 6.4554 201.291 6.4554C201.789 6.4554 202.219 6.56111 202.582 6.77251C202.952 6.98392 203.227 7.29725 203.409 7.71251C203.628 7.3199 203.941 7.01412 204.349 6.79516C204.764 6.56866 205.236 6.4554 205.764 6.4554Z" fill="white"/>
<path d="M125.924 13.7395L124.605 12.3804C123.799 13.2412 122.739 13.6715 121.425 13.6715C120.809 13.6715 120.256 13.5718 119.767 13.3725C119.287 13.1641 118.911 12.8787 118.639 12.5163C118.367 12.1449 118.232 11.7236 118.232 11.2524C118.232 10.6816 118.413 10.1697 118.775 9.71673C119.138 9.26372 119.754 8.78805 120.623 8.28974C120.17 7.81861 119.858 7.41996 119.686 7.09379C119.514 6.75857 119.427 6.40522 119.427 6.03375C119.427 5.42671 119.645 4.93746 120.08 4.56599C120.515 4.19452 121.099 4.00879 121.833 4.00879C122.512 4.00879 123.052 4.1764 123.45 4.51163C123.849 4.84686 124.048 5.30893 124.048 5.89784C124.048 6.36898 123.89 6.79481 123.573 7.17534C123.255 7.5468 122.707 7.95904 121.928 8.41205L124.537 11.1029C124.827 10.5865 125.04 9.97494 125.176 9.26825L125.964 9.51287C125.792 10.3645 125.511 11.0939 125.122 11.7009L126.481 13.1007L125.924 13.7395ZM121.833 4.72908C121.362 4.72908 120.99 4.84686 120.719 5.08242C120.456 5.31799 120.324 5.63057 120.324 6.02016C120.324 6.30102 120.397 6.5683 120.542 6.82199C120.687 7.07567 120.972 7.41996 121.398 7.85485C122.087 7.4562 122.562 7.11644 122.825 6.83558C123.088 6.55471 123.219 6.24666 123.219 5.91144C123.219 5.54903 123.097 5.26363 122.852 5.05524C122.608 4.8378 122.268 4.72908 121.833 4.72908ZM121.48 12.8697C122.531 12.8697 123.382 12.5118 124.035 11.796L121.167 8.84695C120.415 9.27278 119.894 9.65783 119.604 10.0021C119.323 10.3464 119.183 10.7315 119.183 11.1573C119.183 11.6737 119.391 12.0905 119.808 12.4076C120.234 12.7157 120.791 12.8697 121.48 12.8697Z" fill="white"/>
<g opacity="0.45">
<path d="M141.779 8.70337L136.668 11.8024L136.668 4.87328e-07L141.779 8.70337Z" fill="white"/>
</g>
<g opacity="0.8">
<path d="M136.668 0L136.668 11.8024L131.56 8.70338L136.668 0Z" fill="#BABABF"/>
</g>
<g opacity="0.45">
<path d="M141.779 9.55225L136.668 16.9875L136.668 12.6703L141.779 9.55225Z" fill="white"/>
</g>
<g opacity="0.8">
<path d="M136.668 12.6703L136.668 16.9875L131.556 9.55225L136.668 12.6703Z" fill="#8F8F8F"/>
</g>
<g clip-path="url(#clip0)">
<g opacity="0.892694">
<g opacity="0.892694">
<path opacity="0.892694" fill-rule="evenodd" clip-rule="evenodd" d="M114.485 4.51483L111.566 7.38927L108.647 4.51483L111.566 1.64038L114.485 4.51483Z" fill="#0055FF"/>
<g opacity="0.892694">
<path opacity="0.892694" d="M71.9648 4.6987L70.3328 4.6987L70.162 4.84079L68.4874 10.2988L68.4764 10.2988L66.5989 4.84125L66.4281 4.69917L64.7214 4.69917L64.5506 4.84125L62.6836 10.2688L62.6521 10.2485L62.6411 10.2388L60.9664 4.84125L60.7952 4.69824L59.1315 4.69824L59.0248 4.84125L61.6382 12.527L61.82 12.6793L63.4626 12.6793L63.6444 12.527L65.5104 7.02842L65.5535 7.02842L67.4309 12.5275L67.6128 12.6793L69.2764 12.6793L69.4582 12.527L72.0715 4.84126L71.9648 4.6987ZM90.4306 4.6987L88.7876 4.6987L88.6062 4.84079L86.313 10.5216L86.2914 10.5318L84.0197 4.84126L83.8384 4.69917L82.1637 4.69917L82.057 4.84126L85.3316 12.527L85.524 12.6793L87.0388 12.6793L87.2307 12.527L90.5378 4.84126L90.4306 4.6987Z" fill="white"/>
<path opacity="0.892694" d="M98.9008 9.09222L99.0606 8.95059L99.0606 8.71762C99.0606 7.47202 98.6874 6.39851 97.9511 5.64931C97.2157 4.89964 96.2229 4.51489 95.0071 4.51489C93.8334 4.51489 92.8521 4.93009 92.0947 5.74019C91.3373 6.55028 90.9641 7.53246 90.9641 8.64657C90.9641 9.83127 91.3588 10.8241 92.1373 11.6037C92.9162 12.3834 93.9401 12.7783 95.1774 12.7783C96.0736 12.7783 96.842 12.5757 97.4607 12.1605C98.0793 11.7555 98.73 11.087 98.9539 10.1759L98.8367 10.0236L97.3008 10.0236L97.087 10.1759C96.7032 10.9048 96.1167 11.2494 95.1459 11.2494C94.5279 11.2542 93.9318 11.0293 93.4813 10.6215C93.0334 10.2262 92.7775 9.75054 92.7134 9.07192L98.9008 9.09222ZM92.82 7.67455C93.087 6.73251 93.9191 6.03406 95.0066 6.03406C96.4468 6.03406 97.0449 7.00608 97.2152 7.67455L92.82 7.67455ZM79.3896 4.67682L79.2293 4.82906L79.2293 5.61886L79.1973 5.64931C78.9839 5.38589 78.6959 5.15291 78.3547 4.96054C78.2741 4.91779 78.1922 4.87718 78.1093 4.83875C77.6504 4.62653 77.1279 4.52504 76.5624 4.52504C75.5064 4.52504 74.5782 4.93009 73.8103 5.71989C73.0423 6.50969 72.6581 7.50247 72.6581 8.66687C72.6581 9.83127 73.0423 10.8241 73.8103 11.6139C74.5782 12.4036 75.5064 12.8087 76.5624 12.8087C77.1279 12.8087 77.6399 12.7072 78.0983 12.495C78.1844 12.4544 78.2801 12.4138 78.3652 12.3631C78.6959 12.1707 78.9734 11.958 79.1868 11.7047C79.1973 11.6946 79.2298 11.7149 79.2403 11.7047L79.2403 12.525L79.4001 12.6772L80.7973 12.6772L80.9575 12.525L80.9575 4.81937L80.7977 4.66713L79.3896 4.66713L79.3896 4.67728L79.3896 4.67682ZM78.5255 10.5708C78.0561 11.0469 77.4906 11.2794 76.8078 11.2794C76.1466 11.2794 75.6557 11.0469 75.1758 10.5606C74.6959 10.0845 74.461 9.44652 74.461 8.64657C74.461 7.85677 74.7064 7.21875 75.1758 6.73251C75.6557 6.25688 76.1356 6.01376 76.8078 6.01376C77.4801 6.01376 78.0451 6.24673 78.5255 6.72236C78.8346 7.03607 79.0375 7.41113 79.1547 7.86646L79.1547 9.40592C79.048 9.88202 78.8346 10.2668 78.5255 10.5708Z" fill="white"/>
<path opacity="0.892694" fill-rule="evenodd" clip-rule="evenodd" d="M104.821 8.03896C104.821 8.03896 103.904 7.85674 103.147 7.69481C102.453 7.54257 102.101 7.3502 102.101 6.88471C102.101 6.38832 102.602 5.97312 103.68 5.97312C104.736 5.97312 105.323 6.41877 105.323 6.81367L105.504 6.96591L107.04 6.96591L107.158 6.82382C107.158 5.78075 106.208 4.53516 103.722 4.53516C101.13 4.53516 100.319 5.98327 100.319 6.9147C100.319 7.69435 100.618 8.61609 102.602 9.05158L104.309 9.41603C105.173 9.59872 105.536 9.88198 105.536 10.3581C105.536 10.7936 105.077 11.3199 103.883 11.3199C102.773 11.3199 102.101 10.8139 102.069 10.2164L101.877 10.0642L100.309 10.0642L100.192 10.2164C100.33 11.5529 101.375 12.8087 103.872 12.8087C106.699 12.8087 107.275 11.1682 107.275 10.3073C107.275 9.15308 106.581 8.40341 104.821 8.03896Z" fill="white"/>
</g>
</g>
<path opacity="0.77" d="M7.13375 12.3721C7.55651 12.3721 7.91798 12.222 8.21814 11.9219C8.51831 11.6217 8.66839 11.2603 8.66839 10.8375L8.66839 6.55062C8.66839 6.12786 8.51831 5.76639 8.21814 5.46622C7.91798 5.16606 7.55651 5.01598 7.13375 5.01598L2.21274 5.01598L2.21274 2.6062L1.17273 2.6062L1.17273 12.3721L7.13375 12.3721ZM7.13375 11.3321L2.72006 11.3321C2.58477 11.3321 2.4664 11.2835 2.36493 11.1863C2.26347 11.089 2.21274 10.9728 2.21274 10.8375L2.21274 6.55062C2.21274 6.41534 2.26347 6.29908 2.36493 6.20184C2.4664 6.1046 2.58477 6.05598 2.72006 6.05598L7.13375 6.05598C7.26903 6.05598 7.38529 6.1046 7.48253 6.20184C7.57977 6.29908 7.62838 6.41534 7.62838 6.55062L7.62838 10.8375C7.62838 10.9728 7.57977 11.089 7.48253 11.1863C7.38529 11.2835 7.26903 11.3321 7.13375 11.3321ZM16.0471 12.3721C16.4783 12.3721 16.844 12.222 17.1442 11.9219C17.4443 11.6217 17.5944 11.2603 17.5944 10.8375L17.5944 5.01598L16.5544 5.01598L16.5544 10.8375C16.5544 10.9728 16.5037 11.089 16.4022 11.1863C16.3007 11.2835 16.1824 11.3321 16.0471 11.3321L11.6334 11.3321C11.4981 11.3321 11.3819 11.2835 11.2846 11.1863C11.1874 11.089 11.1388 10.9728 11.1388 10.8375L11.1388 5.01598L10.0988 5.01598L10.0988 10.8375C10.0988 11.2603 10.2488 11.6217 10.549 11.9219C10.8492 12.222 11.2106 12.3721 11.6334 12.3721L16.0471 12.3721ZM20.4199 3.64621L20.4199 2.6062L19.3799 2.6062L19.3799 3.64621L20.4199 3.64621ZM20.4199 12.3721L20.4199 5.01598L19.3799 5.01598L19.3799 12.3721L20.4199 12.3721ZM25.2747 12.3721L25.2747 11.3321L24.0317 11.3321C23.8965 11.3321 23.7802 11.2835 23.683 11.1863C23.5857 11.089 23.5371 10.9728 23.5371 10.8375L23.5371 2.6062L22.4971 2.6062L22.4971 10.8375C22.4971 11.2603 22.6472 11.6217 22.9474 11.9219C23.2475 12.222 23.609 12.3721 24.0317 12.3721L25.2747 12.3721ZM31.0426 12.3721L31.0426 11.3321L28.3538 11.3321C28.2186 11.3321 28.1023 11.2835 28.0051 11.1863C27.9078 11.089 27.8592 10.9728 27.8592 10.8375L27.8592 6.05599L31.0426 6.05599L31.0426 5.01598L27.8592 5.01598L27.8592 2.6062L26.8192 2.6062L26.8192 10.8375C26.8192 11.2603 26.9672 11.6217 27.2631 11.9219C27.559 12.222 27.9226 12.3721 28.3538 12.3721L31.0426 12.3721ZM42.3502 12.3721C42.7815 12.3721 43.1472 12.2221 43.4473 11.9219C43.7475 11.6217 43.8976 11.2603 43.8976 10.8375L43.8976 6.55062C43.8976 6.12786 43.7475 5.76639 43.4473 5.46623C43.1472 5.16606 42.7815 5.01598 42.3503 5.01598L37.9366 5.01598C37.5138 5.01598 37.1523 5.16606 36.8522 5.46623C36.552 5.76639 36.4019 6.12786 36.4019 6.55062L36.4019 10.8375C36.4019 11.2603 36.552 11.6217 36.8522 11.9219C37.1523 12.2221 37.5138 12.3721 37.9366 12.3721L42.3502 12.3721ZM42.3502 11.3321L37.9366 11.3321C37.8013 11.3321 37.685 11.2835 37.5878 11.1863C37.4905 11.089 37.4419 10.9728 37.4419 10.8375L37.4419 6.55062C37.4419 6.41534 37.4905 6.29908 37.5878 6.20184C37.685 6.1046 37.8013 6.05599 37.9366 6.05599L42.3503 6.05599C42.4855 6.05599 42.6018 6.1046 42.699 6.20184C42.7963 6.29908 42.8449 6.41534 42.8449 6.55062L42.8449 10.8375C42.8449 10.9728 42.7963 11.089 42.699 11.1863C42.6018 11.2835 42.4855 11.3321 42.3502 11.3321ZM46.5455 12.3721L46.5455 6.55062C46.5455 6.41534 46.5962 6.29908 46.6977 6.20184C46.7992 6.1046 46.9175 6.05599 47.0528 6.05599L51.4665 6.05599C51.6018 6.05599 51.7181 6.1046 51.8153 6.20184C51.9125 6.29908 51.9612 6.41534 51.9612 6.55062L51.9612 12.3721L53.0012 12.3721L53.0012 6.55062C53.0012 6.12786 52.8511 5.76639 52.5509 5.46623C52.2507 5.16606 51.8893 5.01598 51.4665 5.01598L45.5055 5.01598L45.5055 12.3721L46.5455 12.3721Z" fill="white"/>
</g>
</g>
<defs>
<clipPath id="clip0">
<rect x="116.453" y="1.15259" width="13.836" height="116.453" transform="rotate(90 116.453 1.15259)" fill="white"/>
</clipPath>
</defs>
</svg>
