<svg width="13" height="159" viewBox="0 0 13 159" fill="none" xmlns="http://www.w3.org/2000/svg">
<path d="M8.96173 42.3079L9.51535 42.3079L9.51535 46.5898L3.46006 46.5898L3.46006 42.4376L4.01369 42.4376L4.01369 45.9497L6.16764 45.9497L6.16764 42.8183L6.71262 42.8183L6.71262 45.9497L8.96173 45.9497L8.96173 42.3079Z" fill="white"/>
<path d="M9.23854 38.0147C9.34235 38.13 9.42308 38.2742 9.48075 38.4472C9.53266 38.6145 9.55861 38.7904 9.55861 38.9749C9.55861 39.4017 9.44327 39.7304 9.21259 39.9611C8.98191 40.1917 8.65608 40.3071 8.23509 40.3071L5.48426 40.3071L5.48426 41.1202L4.96523 41.1202L4.96523 40.3071L3.97043 40.3071L3.97043 39.6929L4.96523 39.6929L4.96523 38.3088L5.48426 38.3088L5.48426 39.6929L8.20049 39.6929C8.47154 39.6929 8.67915 39.6266 8.82332 39.4939C8.96173 39.3555 9.03093 39.1594 9.03093 38.9057C9.03093 38.7788 9.01075 38.6577 8.97038 38.5424C8.93001 38.4213 8.87234 38.3175 8.79737 38.231L9.23854 38.0147Z" fill="white"/>
<path d="M4.93063 33.9295C4.93063 33.3586 5.09787 32.9059 5.43236 32.5714C5.76107 32.2312 6.24261 32.0611 6.87698 32.0611L9.51536 32.0611L9.51536 32.6752L6.93753 32.6752C6.46464 32.6752 6.10421 32.7935 5.85623 33.0299C5.60825 33.2663 5.48426 33.6037 5.48426 34.042C5.48426 34.5322 5.63132 34.9215 5.92543 35.2098C6.21378 35.4924 6.61458 35.6337 7.12784 35.6337L9.51535 35.6337L9.51535 36.2479L3.09674 36.2479L3.09674 35.6337L5.76107 35.6337C5.49579 35.4664 5.29107 35.2358 5.14689 34.9416C5.00272 34.6475 4.93063 34.3102 4.93063 33.9295Z" fill="white"/>
<path d="M7.4306 25.7661L7.4306 29.5722C7.90349 29.5376 8.287 29.356 8.58111 29.0273C8.86946 28.6985 9.01363 28.2833 9.01363 27.7816C9.01363 27.499 8.96461 27.2395 8.86657 27.0031C8.76277 26.7666 8.61283 26.5619 8.41675 26.3889L8.81467 26.0429C9.05688 26.2447 9.24143 26.4985 9.3683 26.8041C9.49517 27.104 9.55861 27.4356 9.55861 27.7989C9.55861 28.266 9.46057 28.6812 9.26449 29.0446C9.06265 29.4021 8.78584 29.6818 8.43405 29.8837C8.08227 30.0855 7.68435 30.1864 7.24029 30.1864C6.79624 30.1864 6.39832 30.0913 6.04654 29.9009C5.69475 29.7049 5.42082 29.4396 5.22475 29.1051C5.02867 28.7649 4.93063 28.3842 4.93063 27.9633C4.93063 27.5423 5.02867 27.1645 5.22475 26.8301C5.42082 26.4956 5.69475 26.2332 6.04654 26.0429C6.39255 25.8526 6.79047 25.7574 7.24029 25.7574L7.4306 25.7661ZM5.45831 27.9633C5.45831 28.4015 5.5996 28.7706 5.88218 29.0705C6.15899 29.3646 6.52231 29.5319 6.97213 29.5722L6.97213 26.3456C6.52231 26.386 6.15899 26.5561 5.88218 26.856C5.5996 27.1501 5.45831 27.5192 5.45831 27.9633Z" fill="white"/>
<path d="M5.85623 23.2703C5.55058 23.1261 5.3199 22.9127 5.16419 22.6301C5.00849 22.3418 4.93063 21.9871 4.93063 21.5661L5.52751 21.5661L5.51886 21.7132C5.51886 22.1919 5.66592 22.5667 5.96003 22.8377C6.25415 23.1088 6.66648 23.2443 7.19704 23.2443L9.51536 23.2443L9.51536 23.8585L4.96523 23.8585L4.96523 23.2703L5.85623 23.2703Z" fill="white"/>
<path d="M7.4306 15.8856L7.4306 19.6918C7.90349 19.6572 8.287 19.4756 8.58111 19.1469C8.86946 18.8181 9.01363 18.4029 9.01363 17.9012C9.01363 17.6186 8.96461 17.3591 8.86657 17.1227C8.76277 16.8862 8.61283 16.6815 8.41675 16.5085L8.81467 16.1625C9.05688 16.3643 9.24143 16.6181 9.3683 16.9237C9.49517 17.2236 9.55861 17.5552 9.55861 17.9185C9.55861 18.3856 9.46057 18.8008 9.26449 19.1642C9.06265 19.5217 8.78584 19.8014 8.43405 20.0032C8.08227 20.2051 7.68435 20.306 7.24029 20.306C6.79624 20.306 6.39832 20.2109 6.04654 20.0205C5.69475 19.8245 5.42082 19.5592 5.22475 19.2247C5.02867 18.8845 4.93063 18.5038 4.93063 18.0829C4.93063 17.6619 5.02867 17.2841 5.22475 16.9496C5.42082 16.6152 5.69475 16.3528 6.04654 16.1625C6.39255 15.9722 6.79047 15.877 7.2403 15.877L7.4306 15.8856ZM5.45831 18.0829C5.45831 18.5211 5.5996 18.8902 5.88218 19.1901C6.15899 19.4842 6.52231 19.6515 6.97213 19.6918L6.97213 16.4652C6.52231 16.5056 6.15899 16.6757 5.88218 16.9756C5.5996 17.2697 5.45831 17.6388 5.45831 18.0829Z" fill="white"/>
<path d="M4.96523 9.8778L9.51536 9.8778L9.51536 10.466L8.68492 10.466C8.96173 10.6275 9.17799 10.8495 9.3337 11.1321C9.48364 11.4147 9.55861 11.7376 9.55861 12.101C9.55861 12.695 9.39425 13.165 9.06553 13.511C8.73105 13.8512 8.24374 14.0213 7.60361 14.0213L4.96523 14.0213L4.96523 13.4072L7.54306 13.4072C8.02172 13.4072 8.38503 13.2889 8.63301 13.0525C8.88099 12.8161 9.00498 12.4787 9.00498 12.0404C9.00498 11.5617 8.86081 11.184 8.57246 10.9072C8.27835 10.6304 7.87178 10.492 7.35275 10.492L4.96523 10.492L4.96523 9.8778Z" fill="white"/>
<path d="M4.93063 1.83419C4.93063 1.26326 5.09499 0.816322 5.42371 0.493374C5.75242 0.164658 6.23685 0.000297759 6.87698 0.000297802L9.51536 0.00029798L9.51536 0.614479L6.93753 0.614479C6.46464 0.614479 6.10421 0.729817 5.85623 0.960495C5.60825 1.18541 5.48426 1.50547 5.48426 1.92069C5.48426 2.39358 5.63132 2.76555 5.92543 3.03659C6.21378 3.30764 6.61458 3.44317 7.12784 3.44317L9.51536 3.44317L9.51536 4.05735L6.93753 4.05735C6.46464 4.05735 6.10421 4.17268 5.85623 4.40336C5.60825 4.62827 5.48426 4.95122 5.48426 5.37221C5.48426 5.83933 5.63132 6.2113 5.92543 6.48812C6.21378 6.75916 6.61458 6.89468 7.12784 6.89468L9.51536 6.89468L9.51536 7.50886L4.96523 7.50886L4.96523 6.92063L5.79568 6.92063C5.51886 6.75916 5.30548 6.53425 5.15554 6.2459C5.0056 5.95755 4.93063 5.62596 4.93063 5.25111C4.93063 4.87049 5.01137 4.54177 5.17284 4.26495C5.33432 3.98237 5.57365 3.77188 5.89083 3.63347C5.59095 3.46623 5.35739 3.22691 5.19015 2.91549C5.01714 2.59831 4.93063 2.23787 4.93063 1.83419Z" fill="white"/>
<path d="M10.4943 62.8177L9.45628 63.8247C10.1137 64.4406 10.4424 65.2502 10.4424 66.2537C10.4424 66.7243 10.3663 67.1464 10.2141 67.5201C10.0549 67.8869 9.8369 68.1741 9.56009 68.3817C9.27636 68.5893 8.95456 68.6931 8.5947 68.6931C8.15872 68.6931 7.76772 68.5547 7.4217 68.2779C7.07569 68.0011 6.71237 67.5305 6.33175 66.8661C5.97189 67.2122 5.6674 67.4509 5.41827 67.5824C5.16221 67.7139 4.89232 67.7796 4.60859 67.7796C4.14492 67.7796 3.77122 67.6135 3.48749 67.2814C3.20376 66.9492 3.06189 66.5028 3.06189 65.9423C3.06189 65.4233 3.18992 65.0115 3.44597 64.707C3.70202 64.4025 4.05496 64.2503 4.50478 64.2503C4.86464 64.2503 5.18989 64.3714 5.48055 64.6136C5.76428 64.8558 6.07916 65.2745 6.42518 65.8696L8.48052 63.8766C8.08606 63.6551 7.61893 63.4925 7.07915 63.3887L7.266 62.7866C7.91651 62.9181 8.4736 63.1326 8.93726 63.4302L10.0065 62.3921L10.4943 62.8177ZM3.61206 65.9423C3.61206 66.3021 3.70202 66.5859 3.88195 66.7935C4.06188 66.9942 4.30063 67.0945 4.59821 67.0945C4.81274 67.0945 5.01689 67.0392 5.21066 66.9284C5.40443 66.8177 5.6674 66.5997 5.99957 66.2745C5.69508 65.7485 5.43557 65.3852 5.22104 65.1845C5.00651 64.9838 4.77121 64.8835 4.51516 64.8835C4.23835 64.8835 4.02036 64.9769 3.86119 65.1637C3.6951 65.3506 3.61206 65.6101 3.61206 65.9423ZM9.82998 66.2122C9.82998 65.4094 9.55663 64.7589 9.00992 64.2606L6.75735 66.4509C7.08261 67.0253 7.37672 67.4232 7.63969 67.6447C7.90267 67.8592 8.19678 67.9665 8.52204 67.9665C8.9165 67.9665 9.23483 67.8073 9.47705 67.489C9.71234 67.1637 9.82998 66.7381 9.82998 66.2122Z" fill="white"/>
<g opacity="0.45">
<path d="M6.64778 50.7074L9.0149 54.6108L3.25681e-07 54.6108L6.64778 50.7074Z" fill="white"/>
</g>
<g opacity="0.8">
<path d="M0 54.6108L9.0149 54.6108L6.64778 58.5127L0 54.6108Z" fill="#BABABF"/>
</g>
<g opacity="0.45">
<path d="M7.29614 50.7072L12.9753 54.6106L9.67778 54.6106L7.29614 50.7072Z" fill="white"/>
</g>
<g opacity="0.8">
<path d="M9.67778 54.6108L12.9753 54.6108L7.29614 58.5158L9.67778 54.6108Z" fill="#8F8F8F"/>
</g>
<g opacity="0.892694">
<g opacity="0.892694">
<path opacity="0.892694" fill-rule="evenodd" clip-rule="evenodd" d="M3.44854 71.5548L5.64409 73.7846L3.44854 76.0139L1.25299 73.7846L3.44854 71.5548Z" fill="#0055FF"/>
<g opacity="0.892694">
<path opacity="0.892694" d="M3.58891 104.032L3.58891 105.279L3.69745 105.409L7.86635 106.688L7.86635 106.697L3.6978 108.131L3.58927 108.261L3.58927 109.565L3.6978 109.695L7.84345 111.121L7.82795 111.145L7.82055 111.154L3.6978 112.433L3.58856 112.564L3.58856 113.835L3.6978 113.916L9.56831 111.92L9.68459 111.781L9.68459 110.526L9.56831 110.388L5.36839 108.962L5.36839 108.929L9.56866 107.495L9.68459 107.356L9.68459 106.086L9.56831 105.947L3.6978 103.951L3.58891 104.032ZM3.58892 89.9278L3.58892 91.1828L3.69745 91.3213L8.03655 93.0729L8.0443 93.0893L3.6978 94.8245L3.58927 94.963L3.58927 96.2421L3.6978 96.3236L9.56831 93.8225L9.68459 93.6755L9.68459 92.5185L9.56831 92.372L3.6978 89.8459L3.58892 89.9278Z" fill="white"/>
<path opacity="0.892694" d="M6.94478 83.4581L6.8366 83.336L6.65866 83.336C5.70725 83.336 4.88728 83.6211 4.31503 84.1835C3.74243 84.7452 3.44855 85.5036 3.44855 86.4322C3.44855 87.3287 3.76568 88.0782 4.38445 88.6567C5.00321 89.2352 5.75341 89.5203 6.60439 89.5203C7.50928 89.5203 8.26759 89.2188 8.86309 88.6242C9.4586 88.0292 9.76023 87.2472 9.76023 86.3021C9.76023 85.6176 9.60554 85.0307 9.28841 84.5581C8.97903 84.0856 8.46844 83.5886 7.7725 83.4175L7.65622 83.5071L7.65622 84.6802L7.7725 84.8435C8.32925 85.1366 8.59247 85.5847 8.59247 86.3262C8.59613 86.7982 8.42439 87.2535 8.1129 87.5976C7.81091 87.9397 7.44762 88.1352 6.92928 88.1842L6.94478 83.4581ZM5.86194 88.1027C5.1424 87.8988 4.60891 87.2632 4.60891 86.4326C4.60891 85.3325 5.35136 84.8757 5.86194 84.7456L5.86194 88.1027ZM3.57223 98.3611L3.68851 98.4835L4.29177 98.4835L4.31503 98.508C4.11383 98.671 3.93588 98.891 3.78894 99.1516C3.75629 99.2132 3.72527 99.2757 3.69591 99.339C3.53382 99.6895 3.4563 100.089 3.4563 100.521C3.4563 101.327 3.76568 102.036 4.36894 102.623C4.9722 103.209 5.73051 103.503 6.61989 103.503C7.50928 103.503 8.26759 103.209 8.87085 102.623C9.47411 102.036 9.78349 101.327 9.78349 100.521C9.78349 100.089 9.70597 99.6975 9.54388 99.3474C9.51287 99.2817 9.48186 99.2086 9.4431 99.1435C9.29616 98.891 9.13372 98.679 8.94026 98.516C8.93251 98.508 8.94802 98.4831 8.94026 98.4751L9.56678 98.4751L9.68306 98.353L9.68306 97.2859L9.56678 97.1635L3.68111 97.1635L3.56483 97.2855L3.56483 98.3611L3.57258 98.3611L3.57223 98.3611ZM8.07413 99.0211C8.43778 99.3796 8.61538 99.8116 8.61538 100.333C8.61538 100.838 8.43778 101.213 8.06638 101.58C7.70273 101.946 7.2154 102.126 6.60439 102.126C6.00113 102.126 5.5138 101.938 5.1424 101.58C4.7791 101.213 4.5934 100.847 4.5934 100.333C4.5934 99.8196 4.77135 99.388 5.13465 99.0211C5.37426 98.785 5.66074 98.63 6.00853 98.5405L7.18439 98.5405C7.54804 98.622 7.84192 98.785 8.07413 99.0211Z" fill="white"/>
<path opacity="0.892694" fill-rule="evenodd" clip-rule="evenodd" d="M6.14031 78.9359C6.14031 78.9359 6.00113 79.6368 5.87744 80.215C5.76116 80.7449 5.61422 81.0139 5.25868 81.0139C4.87953 81.0139 4.56239 80.6309 4.56239 79.8079C4.56239 79.0009 4.90278 78.5529 5.20441 78.5529L5.3207 78.4144L5.3207 77.2413L5.21217 77.1514C4.41545 77.1514 3.46405 77.8768 3.46405 79.7753C3.46405 81.755 4.57015 82.3745 5.28158 82.3745C5.87709 82.3745 6.58113 82.1464 6.91377 80.6309L7.19214 79.3269C7.33168 78.6669 7.54804 78.3899 7.91169 78.3899C8.24433 78.3899 8.64638 78.7404 8.64638 79.6529C8.64638 80.5004 8.25983 81.0139 7.80351 81.038L7.68723 81.1849L7.68723 82.3825L7.80351 82.472C8.82433 82.3661 9.78348 81.5679 9.78348 79.661C9.78348 77.5018 8.53045 77.0618 7.87293 77.0618C6.99129 77.0618 6.41869 77.5917 6.14031 78.9359Z" fill="white"/>
</g>
</g>
<path opacity="0.77" d="M9.4501 153.551C9.4501 153.228 9.33546 152.952 9.10619 152.723C8.87692 152.494 8.60083 152.379 8.27791 152.379L5.00354 152.379C4.68062 152.379 4.40452 152.494 4.17525 152.723C3.94598 152.952 3.83135 153.228 3.83135 153.551L3.83135 157.31L1.99072 157.31L1.99072 158.104L9.4501 158.104L9.4501 153.551ZM8.65572 153.551L8.65572 156.922C8.65572 157.026 8.61859 157.116 8.54432 157.194C8.47004 157.271 8.38124 157.31 8.27791 157.31L5.00353 157.31C4.9002 157.31 4.8114 157.271 4.73713 157.194C4.66286 157.116 4.62572 157.026 4.62572 156.922L4.62572 153.551C4.62572 153.448 4.66286 153.359 4.73713 153.285C4.8114 153.211 4.9002 153.173 5.00354 153.173L8.27791 153.173C8.38124 153.173 8.47004 153.211 8.54432 153.285C8.61859 153.359 8.65572 153.448 8.65572 153.551ZM9.4501 146.743C9.4501 146.414 9.33546 146.134 9.10619 145.905C8.87692 145.676 8.60083 145.561 8.27791 145.561L3.83135 145.561L3.83135 146.356L8.27791 146.356C8.38124 146.356 8.47005 146.394 8.54432 146.472C8.61859 146.549 8.65572 146.64 8.65572 146.743L8.65572 150.114C8.65572 150.218 8.61859 150.306 8.54432 150.381C8.47005 150.455 8.38124 150.492 8.27791 150.492L3.83135 150.492L3.83135 151.287L8.27791 151.287C8.60083 151.287 8.87692 151.172 9.10619 150.943C9.33546 150.713 9.4501 150.437 9.4501 150.114L9.4501 146.743ZM2.7851 143.403L1.99072 143.403L1.99072 144.197L2.7851 144.197L2.7851 143.403ZM9.4501 143.403L3.83135 143.403L3.83135 144.197L9.4501 144.197L9.4501 143.403ZM9.4501 139.695L8.65572 139.695L8.65572 140.644C8.65572 140.748 8.61859 140.836 8.54432 140.911C8.47005 140.985 8.38124 141.022 8.27791 141.022L1.99072 141.022L1.99072 141.816L8.27791 141.816C8.60083 141.816 8.87692 141.702 9.10619 141.473C9.33546 141.243 9.4501 140.967 9.4501 140.644L9.4501 139.695ZM9.4501 135.289L8.65572 135.289L8.65572 137.343C8.65572 137.446 8.61859 137.535 8.54432 137.609C8.47005 137.684 8.38124 137.721 8.27791 137.721L4.62572 137.721L4.62572 135.289L3.83135 135.289L3.83135 137.721L1.99072 137.721L1.99072 138.515L8.27791 138.515C8.60083 138.515 8.87692 138.402 9.10619 138.176C9.33546 137.95 9.4501 137.672 9.4501 137.343L9.4501 135.289ZM9.4501 126.652C9.4501 126.323 9.33546 126.044 9.10619 125.814C8.87692 125.585 8.60083 125.47 8.27791 125.47L5.00354 125.47C4.68062 125.47 4.40453 125.585 4.17526 125.814C3.94598 126.044 3.83135 126.323 3.83135 126.652L3.83135 130.024C3.83135 130.346 3.94598 130.623 4.17526 130.852C4.40453 131.081 4.68062 131.196 5.00354 131.196L8.27791 131.196C8.60083 131.196 8.87692 131.081 9.10619 130.852C9.33546 130.623 9.4501 130.346 9.4501 130.024L9.4501 126.652ZM8.65572 126.652L8.65572 130.024C8.65572 130.127 8.61859 130.216 8.54432 130.29C8.47005 130.364 8.38124 130.401 8.27791 130.401L5.00354 130.401C4.9002 130.401 4.8114 130.364 4.73713 130.29C4.66286 130.216 4.62572 130.127 4.62572 130.024L4.62572 126.652C4.62572 126.549 4.66286 126.46 4.73713 126.386C4.8114 126.312 4.9002 126.275 5.00354 126.275L8.27791 126.275C8.38124 126.275 8.47005 126.312 8.54432 126.386C8.61859 126.46 8.65572 126.549 8.65572 126.652ZM9.4501 123.448L5.00354 123.448C4.9002 123.448 4.8114 123.409 4.73713 123.332C4.66286 123.254 4.62572 123.164 4.62572 123.06L4.62572 119.689C4.62572 119.586 4.66286 119.497 4.73713 119.423C4.8114 119.348 4.9002 119.311 5.00354 119.311L9.4501 119.311L9.4501 118.517L5.00354 118.517C4.68062 118.517 4.40453 118.632 4.17526 118.861C3.94598 119.09 3.83135 119.366 3.83135 119.689L3.83135 124.242L9.4501 124.242L9.4501 123.448Z" fill="white"/>
</g>
</svg>
