<svg width="37" height="37" viewBox="0 0 37 37" fill="none" xmlns="http://www.w3.org/2000/svg">
<path d="M18.1413 0.641479C8.17267 0.641479 0.0917969 8.72235 0.0917969 18.691C0.0917969 28.6597 8.17267 36.7405 18.1413 36.7405C28.11 36.7405 36.1909 28.6597 36.1909 18.691C36.1909 8.72253 28.1098 0.641479 18.1413 0.641479ZM25.5643 26.2296L18.0226 30.5912V30.5928H18.0194L10.473 26.2296V11.1368L10.4808 11.1415L18.0163 6.78926L22.853 9.48809H22.8545V16.3016L20.5011 14.9498V10.8461L18.0194 9.43183L12.8249 12.4354V24.9466L18.0194 27.9502L23.214 24.956L23.239 19.8146L15.8582 15.5327L18.2288 14.2857L25.583 18.5738L25.5643 26.2312V26.2296ZM19.4415 18.2003L21.259 19.2458L15.8582 22.3212V16.1203L17.7553 17.2392V19.1004L19.4431 18.2003H19.4415Z" fill="#6F7EF3"/>
</svg>
