<svg width="58" height="22" viewBox="0 0 58 22" fill="none" xmlns="http://www.w3.org/2000/svg">
<path d="M21.6217 21.8873C22.028 21.8873 22.3697 21.7471 22.6467 21.4669C22.9237 21.1866 23.0623 20.841 23.0623 20.43C23.0623 20.019 22.9237 19.6733 22.6467 19.3931C22.3697 19.1128 22.028 18.9727 21.6217 18.9727H11.5932V1.45728C11.5932 1.04625 11.4547 0.700617 11.1776 0.42037C10.9006 0.140123 10.5589 0 10.1526 0C9.76476 0 9.43232 0.140123 9.15529 0.42037C8.87826 0.700617 8.73975 1.04625 8.73975 1.45728C8.73975 1.45728 8.73975 9.34465 8.73975 13.2883C8.73975 15.6689 8.73975 17.7344 8.73975 17.7344C8.73975 18.1454 9.88481 20.5694 10.1526 20.8496C10.4204 21.1299 9.65112 21.7784 9.81082 21.8505C9.97053 21.9226 10.6849 21.8873 10.8963 21.8873C11.0968 21.8873 11.2645 21.8873 11.3993 21.8873C14.8068 21.8873 21.6217 21.8873 21.6217 21.8873Z" fill="#CFCECF"/>
<path d="M10.0119 21.8873C10.3381 21.8873 10.6116 21.8079 10.8322 21.6491C11.0529 21.4902 11.2304 21.2614 11.3647 20.9625L19.8845 1.9337C20.1148 1.44794 20.1196 1.00422 19.8989 0.60253C19.6782 0.200843 19.2801 0 18.7044 0C18.359 0 18.0856 0.0607201 17.8841 0.18216C17.6826 0.303601 17.5051 0.532469 17.3516 0.868765C17.3516 0.868765 12.8002 12.0806 11.3647 15.3721C10.9497 16.3237 10.8889 15.6873 10.5499 16.4647C10.3567 16.9077 9.97022 17.7937 9.97022 17.7937L2.72979 0.868765C2.50112 0.337853 2.09509 0.0502757 1.5117 0.00603309L1.3482 0C0.753349 0 0.350386 0.205514 0.13931 0.616543C-0.0717659 1.02757 -0.0429828 1.5507 0.225659 2.18592L8.65911 20.9625C8.94694 21.579 9.39787 21.8873 10.0119 21.8873Z" fill="#CFCECF"/>
<path fill-rule="evenodd" clip-rule="evenodd" d="M35.1557 20.9771C34.0845 21.659 32.8748 22 31.5266 22C30.1784 22 28.9686 21.659 27.8975 20.9771C26.8263 20.2951 25.9813 19.3703 25.3626 18.2026C24.7439 17.0349 24.4346 15.7131 24.4346 14.2371C24.4346 12.7612 24.7716 11.4347 25.4457 10.2576C26.1198 9.08061 27.034 8.15112 28.1883 7.46919C29.3426 6.78726 30.6401 6.44629 32.0806 6.44629C33.5212 6.44629 34.814 6.78726 35.9591 7.46919C37.1041 8.15112 38.0137 9.08061 38.6878 10.2576C39.3619 11.4347 39.699 12.7612 39.699 14.2371V20.4866C39.699 20.8977 39.5651 21.2386 39.2973 21.5095C39.0295 21.7805 38.6924 21.9159 38.2861 21.9159C37.8798 21.9159 37.5428 21.7805 37.275 21.5095L37.1808 21.4047C36.9758 21.1523 36.8733 20.8463 36.8733 20.4866V19.443L36.7993 19.5358C36.3284 20.0988 35.7805 20.5793 35.1557 20.9771ZM29.5735 18.7903C30.3214 19.248 31.1571 19.4769 32.0806 19.4769C33.0225 19.4769 33.8628 19.248 34.6016 18.7903C35.3403 18.3326 35.9221 17.7067 36.3469 16.9127C36.7716 16.1186 36.984 15.2265 36.984 14.2363C36.984 13.2274 36.7716 12.326 36.3469 11.5319C35.9221 10.7379 35.3403 10.112 34.6016 9.65427C33.8628 9.19653 33.0225 8.96766 32.0806 8.96766C31.1571 8.96766 30.3214 9.19653 29.5735 9.65427C28.8255 10.112 28.2345 10.7379 27.8005 11.5319C27.3664 12.326 27.1494 13.2274 27.1494 14.2363C27.1494 15.2265 27.3664 16.1186 27.8005 16.9127C28.2345 17.7067 28.8255 18.3326 29.5735 18.7903Z" fill="#EEECEC"/>
<path fill-rule="evenodd" clip-rule="evenodd" d="M53.9425 20.9765C52.7974 21.6584 51.4954 21.9994 50.0363 21.9994C48.5958 21.9994 47.303 21.6584 46.1579 20.9765C45.0128 20.2945 44.1079 19.365 43.443 18.188C42.7781 17.011 42.4364 15.6845 42.418 14.2085V1.42926C42.418 0.999547 42.5519 0.653909 42.8197 0.392345C43.0875 0.130782 43.4245 0 43.8308 0C44.2556 0 44.5973 0.130782 44.8558 0.392345C45.1144 0.653909 45.2437 0.999547 45.2437 1.42926V8.99592C45.8901 8.21123 46.6704 7.59001 47.5846 7.13228C48.4988 6.67454 49.5007 6.44567 50.5904 6.44567C51.9386 6.44567 53.1483 6.78664 54.2195 7.46858C55.2907 8.15051 56.1356 9.07532 56.7543 10.243C57.373 11.4107 57.6824 12.7325 57.6824 14.2085C57.6824 15.6845 57.3453 17.011 56.6712 18.188C55.9971 19.365 55.0875 20.2945 53.9425 20.9765ZM47.5292 18.7901C48.2772 19.2478 49.1129 19.4767 50.0363 19.4767C50.9782 19.4767 51.8186 19.2478 52.5573 18.7901C53.2961 18.3323 53.8824 17.7018 54.3165 16.8984C54.7505 16.095 54.9675 15.1983 54.9675 14.2081C54.9675 13.1992 54.7505 12.3024 54.3165 11.5177C53.8824 10.733 53.2961 10.1118 52.5573 9.65404C51.8186 9.19631 50.9782 8.96744 50.0363 8.96744C49.1129 8.96744 48.2772 9.19631 47.5292 9.65404C46.7812 10.1118 46.1948 10.733 45.77 11.5177C45.3453 12.3024 45.1329 13.1992 45.1329 14.2081C45.1329 15.1983 45.3453 16.095 45.77 16.8984C46.1948 17.7018 46.7812 18.3323 47.5292 18.7901Z" fill="#EEECEC"/>
</svg>
