<svg width="110" height="35" viewBox="0 0 110 35" fill="none" xmlns="http://www.w3.org/2000/svg">
<path d="M63.8563 11.2356H66.7903V26.5227H64.0563V16.0368L59.5552 23.5553H58.1715L53.6704 16.0035V26.5227H50.9531V11.2356H53.8538L58.8384 19.5877L63.8563 11.2356ZM100.232 25.0223C99.0648 23.8387 98.4146 22.2216 98.4646 20.5546C98.4146 18.8708 99.0648 17.2538 100.232 16.0868C101.415 14.8865 103.016 14.2364 104.683 14.2697C106.867 14.2197 108.901 15.4033 109.951 17.3538L107.767 18.6374C107.2 17.4538 105.983 16.7036 104.666 16.7703C103.683 16.737 102.732 17.1371 102.032 17.8372C101.349 18.5541 100.982 19.521 100.999 20.5046C100.982 21.5048 101.349 22.4717 102.032 23.1885C102.732 23.8887 103.683 24.2721 104.666 24.2555C105.983 24.2888 107.2 23.572 107.8 22.3883L110.001 23.6553C108.934 25.6058 106.9 26.8061 104.699 26.7727C103.032 26.8061 101.432 26.1893 100.232 25.0223ZM93.6135 26.5394V14.5698H96.1641V26.5227L93.6135 26.5394ZM93.7302 12.3192C93.4134 12.0192 93.2467 11.6024 93.2467 11.169C93.2467 10.7355 93.4134 10.3187 93.7302 10.0187C94.0302 9.70193 94.447 9.51855 94.8804 9.51855C95.3139 9.51855 95.7306 9.70193 96.0307 10.0187C96.6642 10.6688 96.6642 11.7024 96.0141 12.3526C95.3972 12.9694 94.3637 12.9694 93.7302 12.3192ZM91.2962 17.0537H88.3622V22.7884C88.3622 24.3055 89.3458 24.2888 91.2962 24.1888V26.5227C87.3953 27.0061 85.8282 25.9225 85.8282 22.7884V17.0537H83.6444V14.5698H85.8282V11.2356H88.3789V14.5698H91.3129L91.2962 17.0537ZM75.1757 24.3722C76.1759 24.3888 77.1261 24.0054 77.843 23.3052C78.5598 22.5717 78.9432 21.5715 78.9099 20.5546C78.9266 19.5377 78.5431 18.5541 77.843 17.8372C76.3593 16.3702 73.992 16.3702 72.5083 17.8372C71.7915 18.5541 71.4081 19.5377 71.4414 20.5546C71.4081 21.5882 71.7915 22.5717 72.5083 23.3052C73.2085 24.0054 74.1421 24.3888 75.1257 24.3722H75.1757ZM78.8599 14.5698H81.4105V26.5227H78.8599V24.8056C77.9097 26.1393 76.3593 26.9061 74.7422 26.8394C73.1585 26.8561 71.6581 26.2059 70.5912 25.0223C69.4576 23.822 68.8408 22.205 68.8741 20.5546C68.8241 18.8875 69.4409 17.2871 70.5745 16.0868C71.6415 14.9032 73.1585 14.253 74.7422 14.2864C76.376 14.203 77.9263 14.9532 78.8766 16.2869L78.8599 14.5698Z" fill="#FAFAFA"/>
<g clip-path="url(#clip0)">
<path d="M17.3623 14.4765L22.3766 25.4099L29.8242 21.1765H29.8385V12.7051L17.3623 14.4765Z" fill="#2BBDF7"/>
<path d="M39.4569 6.35245L34.8093 4.6334L29.8379 4.2334V12.7048V30.6286L37.295 34.8667L43.2427 22.9334L39.4712 11.4524L39.4569 6.35245Z" fill="#2891F9"/>
<path d="M39.0235 4.2334L37.2949 8.4715V34.8001L44.752 30.562V4.2334H39.0235Z" fill="#2BBDF7"/>
<path d="M37.295 0L29.8379 4.23333L37.295 8.47143L44.7522 4.23333L37.295 0Z" fill="#2B6DEF"/>
<path d="M22.3762 16.9382L14.9191 8.70959L0 4.2334V30.562L7.45715 34.8001L9.59524 20.2286L14.9191 21.1763L22.3762 25.4096V16.9382Z" fill="#2891F9"/>
<path d="M7.45715 0L0 4.23333L22.3762 16.9381L25.7572 15.0238L29.8381 12.7048L7.45715 0Z" fill="#2B6DEF"/>
<path d="M7.45703 16.9385V34.8004L14.9189 30.5623V21.1766L7.45703 16.9385Z" fill="#2BBDF7"/>
</g>
<defs>
<clipPath id="clip0">
<rect width="44.7524" height="34.8667" fill="white"/>
</clipPath>
</defs>
</svg>
