<svg width="138" height="28" viewBox="0 0 138 28" fill="none" xmlns="http://www.w3.org/2000/svg">
<path d="M136.552 18.584H136.553C136.553 18.5537 136.553 18.5234 136.552 18.4933V18.584Z" fill="white" fill-opacity="0.28"/>
<path d="M129.651 14.211C129.883 14.1479 130.128 14.1144 130.384 14.1144C130.839 14.1144 131.255 14.2195 131.629 14.4073C131.286 14.2056 130.886 14.1047 130.43 14.1047C130.148 14.1047 129.889 14.1402 129.651 14.211Z" fill="white" fill-opacity="0.28"/>
<path d="M0.439226 14.5799V11.6442H1.75116C1.28548 11.5431 0.801728 11.4899 0.304688 11.4899V14.5775C0.349677 14.5775 0.394544 14.5783 0.439226 14.5799Z" fill="white" fill-opacity="0.28"/>
<path d="M27.5334 14.2592C28.4999 15.4632 29.0879 16.9694 29.0879 18.5914C29.0879 20.8478 30.8506 22.6053 32.938 22.6053C35.0254 22.6053 36.8991 20.8478 36.8991 18.5914C36.8991 18.1093 36.9446 17.6374 37.0317 17.1806V20.9071C37.0461 22.0628 37.3299 23.0347 37.8829 23.8227C36.5215 24.9809 34.7551 25.6929 32.938 25.6929C31.8045 25.6929 30.7399 25.4157 29.8013 24.926V23.0877H27.578C26.823 22.1408 26.3027 20.9923 26.1034 19.7396H28.8403V17.2213H25.7476C25.3432 16.2096 24.5151 15.3978 23.5356 14.9523V14.2592H27.5334Z" fill="#1A074E" fill-opacity="0.09"/>
<path d="M82.8591 19.8331C82.8246 19.8504 82.7896 19.8675 82.7539 19.8843L82.8243 20.0204C82.8366 19.9583 82.8483 19.8958 82.8591 19.8331Z" fill="white" fill-opacity="0.28"/>
<path d="M116.666 25.6928H113.312L108.353 16.9511V25.6928H104.98V11.6443H108.353L110.333 15.1417L112.214 18.465L113.302 20.386V11.6443H116.666V25.6928Z" fill="#CFCECF"/>
<path d="M96.7305 25.6928H93.3672V11.6443H96.7305V25.6928Z" fill="#CFCECF"/>
<path d="M79.8995 14.2591H77.7662V18.1186H79.905C80.5428 18.1176 81.0216 17.9504 81.3411 17.6169C81.6677 17.2759 81.831 16.8031 81.831 16.1985C81.831 15.5938 81.6677 15.121 81.3411 14.7801C81.2768 14.7119 80.9686 14.5155 80.8418 14.432C80.6329 14.34 80.3895 14.2845 80.113 14.266L79.8995 14.2591ZM74.3931 11.6443H79.8995C81.1998 11.6443 82.2778 11.8714 83.1334 12.3257L83.3427 12.4439C83.5008 12.5388 83.6503 12.6421 83.7914 12.7539C84.5076 13.3201 84.9495 14.0653 85.1174 14.9894C85.1688 15.2727 85.1946 15.5728 85.1946 15.8897C85.1946 16.8675 84.996 17.678 84.5986 18.3212C84.2244 18.9373 83.6444 19.4413 82.8587 19.8331L82.7535 19.8843L82.824 20.0204L85.675 25.5481V25.6928H82.0616L80.9955 23.5517L79.592 20.7334H77.7662V25.4714C77.2155 25.6159 76.637 25.6928 76.0395 25.6928C75.4709 25.6928 74.9198 25.6231 74.3931 25.4918V11.6443Z" fill="#CFCECF"/>
<path d="M76.0396 25.6929C76.6371 25.6929 77.2155 25.6159 77.7663 25.4714V25.6929H76.0396Z" fill="white"/>
<path d="M74.3931 25.4918C74.9198 25.6231 75.4709 25.6929 76.0395 25.6929H74.3931V25.4918Z" fill="white"/>
<path d="M62.8576 25.6928H59.4844V14.2591H55.3618V11.6443H67.057V14.2591H62.8576V25.6928Z" fill="#CFCECF"/>
<path d="M40.424 20.9746C40.4624 22.512 41.1737 23.2807 42.5575 23.2807C43.2559 23.2807 43.7845 23.0877 44.1431 22.7017C44.502 22.3158 44.6812 21.6886 44.6812 20.8202V11.6443H48.0544V20.8395C48.0544 20.9601 48.0513 21.0788 48.0455 21.1956C48.0003 22.0888 47.7822 22.8739 47.3914 23.5508C46.9492 24.3098 46.3151 24.8888 45.4885 25.2876C44.6622 25.6864 43.6852 25.8858 42.5575 25.8858C40.8533 25.8858 39.5113 25.442 38.5309 24.5543C38.2846 24.3311 38.0684 24.0873 37.8829 23.8227C37.33 23.0347 37.0462 22.0628 37.0317 20.9071V11.6443H40.424V20.9746Z" fill="#CFCECF"/>
<path d="M29.8014 25.6928H20.1626V11.6443H29.8205V14.2591H23.5358V17.2213H28.8404V19.7396H23.5358V23.0877H29.8014V25.6928Z" fill="#CFCECF"/>
<path d="M11.3872 25.6928C11.6379 25.6928 11.8838 25.6792 12.1247 25.6528V25.6928H11.3872Z" fill="white"/>
<path d="M8.39209 25.0251C9.31461 25.4529 10.3325 25.6928 11.3872 25.6928H8.7708L8.39209 25.0251Z" fill="white"/>
<path d="M7.15551 17.5491L8.76164 20.386V11.6443H12.1251V25.6529C11.8843 25.6793 11.6383 25.6928 11.3876 25.6928C10.3329 25.6928 9.31505 25.453 8.39253 25.0252L3.84567 17.0095L3.81252 16.9511V25.6928H0.439453V11.6443H3.81252L4.58337 13.0059L7.15551 17.5491Z" fill="#CFCECF"/>
<path d="M98.4727 4.11484L95.0549 0.68335L91.6372 4.11484L95.0549 7.54633L98.4727 4.11484Z" fill="#0055FF"/>
<path d="M131.629 14.4073C131.286 14.2056 130.886 14.1047 130.431 14.1047C130.149 14.1047 129.889 14.1401 129.651 14.211C127.995 14.6608 126.989 16.6123 126.989 18.5914C126.989 20.2036 126.302 21.7014 125.222 22.9018C125.186 22.8361 125.15 22.7694 125.116 22.7017C124.604 21.6789 124.335 20.505 124.309 19.1799V18.3887C124.309 17.0122 124.559 15.7996 125.059 14.7512C125.565 13.6962 126.285 12.8825 127.221 12.31C128.163 11.7375 129.232 11.4513 130.431 11.4513C131.616 11.4513 132.673 11.7343 133.602 12.3004C134.531 12.8664 135.251 13.6737 135.764 14.7222C136.283 15.7643 136.545 16.9607 136.552 18.3116V18.958C136.552 20.3281 136.299 21.5407 135.793 22.5956C135.709 22.7699 135.62 22.9376 135.524 23.0987C134.441 21.8672 133.767 20.293 133.767 18.5914C133.767 16.826 132.974 15.0825 131.629 14.4073Z" fill="#CFCECF"/>
<path d="M131.629 14.4072C131.938 14.5885 132.202 14.851 132.42 15.195C132.888 15.9154 133.121 16.9736 133.121 18.3694V19.0159C133.115 20.3796 132.881 21.4248 132.42 22.1517C131.959 22.8786 131.302 23.242 130.45 23.242C129.553 23.242 128.877 22.8722 128.422 22.1324C127.967 21.3927 127.74 20.3345 127.74 18.958L127.749 17.9256C127.83 15.8031 128.463 14.5649 129.651 14.2109C127.995 14.6608 126.374 16.3904 126.374 18.3694C126.374 19.9816 126.302 21.7014 125.222 22.9018C125.732 23.8278 126.417 24.5491 127.279 25.0656C128.201 25.6124 129.258 25.8858 130.45 25.8858C131.641 25.8858 132.702 25.6027 133.631 25.0367C134.411 24.5588 135.043 23.9128 135.524 23.0987C134.442 21.8671 134.381 20.071 134.381 18.3694C134.381 16.604 132.974 15.0824 131.629 14.4072Z" fill="#CFCECF"/>
</svg>
