<svg width="155" height="30" viewBox="0 0 155 30" fill="none" xmlns="http://www.w3.org/2000/svg">
<path d="M102.876 11.4786C103.705 11.4786 104.481 11.629 105.205 11.9298C105.928 12.2306 106.554 12.6406 107.082 13.1605C107.61 13.6812 108.029 14.303 108.338 15.0251C108.647 15.7487 108.801 16.5242 108.801 17.3538C108.801 18.1825 108.647 18.9588 108.338 19.6816C108.029 20.4053 107.61 21.0271 107.082 21.5462C106.554 22.0669 105.928 22.4769 105.205 22.7777C104.481 23.0785 103.705 23.2289 102.876 23.2289C102.064 23.2289 101.304 23.0744 100.597 22.7656C99.8902 22.4575 99.2724 22.0346 98.7444 21.4977C98.2164 20.9616 97.7976 20.3398 97.4887 19.6331C97.1798 18.9256 97.0254 18.1745 97.0254 17.378C97.0254 16.5654 97.1758 15.8021 97.4766 15.0873C97.7765 14.3717 98.1914 13.7467 98.7194 13.2098C99.2474 12.6729 99.8692 12.2508 100.584 11.942C101.3 11.6331 102.064 11.4786 102.876 11.4786ZM102.803 12.5023C102.137 12.5023 101.515 12.6325 100.939 12.892C100.362 13.1524 99.8659 13.5057 99.4519 13.9521C99.0371 14.4 98.7129 14.9199 98.4768 15.5126C98.2407 16.1061 98.1234 16.7279 98.1234 17.3772C98.1234 18.0111 98.2407 18.6208 98.4768 19.2054C98.7121 19.7908 99.0412 20.3067 99.464 20.7538C99.8869 21.201 100.383 21.5543 100.951 21.8139C101.52 22.0742 102.137 22.2044 102.803 22.2044C103.486 22.2044 104.128 22.0823 104.729 21.8381C105.33 21.5947 105.851 21.2535 106.289 20.8136C106.728 20.3754 107.074 19.8627 107.326 19.2781C107.577 18.6935 107.703 18.0588 107.703 17.3764C107.703 16.6786 107.577 16.0317 107.326 15.4382C107.074 14.8455 106.728 14.3297 106.289 13.8898C105.851 13.4516 105.334 13.1095 104.742 12.8661C104.148 12.6244 103.502 12.5023 102.803 12.5023Z" fill="#CDCDD0"/>
<path d="M113.043 22.9854H111.945V2.87207H113.043V22.9854Z" fill="#CDCDD0"/>
<path d="M122.038 11.4786C122.867 11.4786 123.643 11.629 124.367 11.9298C125.09 12.2306 125.716 12.6406 126.245 13.1605C126.773 13.6812 127.191 14.303 127.5 15.0251C127.809 15.7487 127.964 16.5242 127.964 17.3538C127.964 18.1825 127.809 18.9588 127.5 19.6816C127.191 20.4053 126.773 21.0271 126.245 21.5462C125.717 22.0669 125.09 22.4769 124.367 22.7777C123.643 23.0785 122.868 23.2289 122.038 23.2289C121.226 23.2289 120.466 23.0744 119.759 22.7656C119.052 22.4575 118.435 22.0346 117.907 21.4977C117.379 20.9616 116.96 20.3398 116.651 19.6331C116.342 18.9256 116.188 18.1745 116.188 17.378C116.188 16.5654 116.338 15.8021 116.639 15.0873C116.939 14.3717 117.353 13.7467 117.881 13.2098C118.409 12.6729 119.031 12.2508 119.746 11.942C120.462 11.6331 121.226 11.4786 122.038 11.4786ZM121.966 12.5023C121.299 12.5023 120.678 12.6325 120.101 12.892C119.524 13.1524 119.028 13.5057 118.614 13.9521C118.199 14.4 117.875 14.9199 117.639 15.5126C117.403 16.1061 117.286 16.7279 117.286 17.3772C117.286 18.0111 117.403 18.6208 117.639 19.2054C117.874 19.7908 118.203 20.3067 118.626 20.7538C119.049 21.201 119.545 21.5543 120.113 21.8139C120.682 22.0742 121.299 22.2044 121.966 22.2044C122.648 22.2044 123.29 22.0823 123.892 21.8381C124.492 21.5947 125.013 21.2535 125.451 20.8136C125.89 20.3754 126.236 19.8627 126.488 19.2781C126.739 18.6935 126.866 18.0588 126.866 17.3764C126.866 16.6786 126.739 16.0317 126.488 15.4382C126.236 14.8455 125.89 14.3297 125.451 13.8898C125.013 13.4516 124.496 13.1095 123.904 12.8661C123.31 12.6244 122.664 12.5023 121.966 12.5023Z" fill="#CDCDD0"/>
<path d="M141.176 22.4494C141.176 23.3267 141.123 24.1563 141.018 24.9358C140.911 25.716 140.591 26.4793 140.055 27.2273C139.534 27.9582 138.88 28.5032 138.092 28.8606C137.304 29.2172 136.463 29.3967 135.57 29.3967C134.839 29.3967 134.143 29.2899 133.485 29.0797C132.826 28.8687 132.245 28.5558 131.742 28.141C131.237 27.7262 130.835 27.2224 130.535 26.6297C130.234 26.0362 130.06 25.3497 130.011 24.5695H131.108C131.14 25.1549 131.279 25.6829 131.523 26.1543C131.766 26.6257 132.087 27.0235 132.486 27.3486C132.884 27.6736 133.339 27.9259 133.851 28.1046C134.363 28.2833 134.903 28.373 135.472 28.373C136.187 28.373 136.861 28.2428 137.496 27.9833C138.13 27.7229 138.658 27.292 139.081 26.6912C139.52 26.0411 139.796 25.3586 139.909 24.6431C140.023 23.9275 140.08 23.1884 140.08 22.4243V21.0352H140.031C139.527 21.7176 138.885 22.2545 138.105 22.6443C137.324 23.034 136.504 23.2289 135.642 23.2289C134.829 23.2289 134.086 23.0712 133.412 22.7534C132.737 22.4364 132.16 22.0063 131.68 21.4621C131.201 20.918 130.831 20.2881 130.571 19.5725C130.311 18.8569 130.181 18.1098 130.181 17.3295C130.181 16.5169 130.319 15.7576 130.596 15.0501C130.873 14.3434 131.258 13.7257 131.754 13.1977C132.251 12.6697 132.839 12.2508 133.522 11.942C134.204 11.6339 134.96 11.4786 135.789 11.4786C136.715 11.4786 137.524 11.6654 138.215 12.0398C138.905 12.4134 139.511 12.9583 140.031 13.6731H140.08V11.7228H141.176V22.4494H141.176ZM135.642 12.5023C134.992 12.5023 134.399 12.6365 133.863 12.9042C133.327 13.1726 132.867 13.53 132.486 13.9771C132.103 14.4243 131.807 14.9369 131.596 15.5126C131.384 16.0899 131.279 16.6794 131.279 17.2802C131.279 17.9303 131.38 18.5521 131.583 19.1447C131.786 19.7382 132.083 20.2622 132.474 20.7174C132.864 21.1727 133.331 21.5341 133.876 21.8025C134.42 22.071 135.034 22.2044 135.716 22.2044C136.432 22.2044 137.066 22.0702 137.618 21.8025C138.17 21.5341 138.633 21.1686 139.007 20.7053C139.381 20.242 139.666 19.7059 139.861 19.0962C140.056 18.4866 140.153 17.8405 140.153 17.1581C140.153 16.508 140.047 15.8983 139.836 15.3299C139.624 14.7606 139.32 14.2698 138.922 13.855C138.523 13.4402 138.048 13.1112 137.496 12.8678C136.942 12.6244 136.324 12.5023 135.642 12.5023Z" fill="#CDCDD0"/>
<path d="M143.37 11.7229H144.515L149.318 21.9134L153.633 11.7229H154.755L147.198 29.5682H146.076L148.783 23.1804L143.37 11.7229Z" fill="#CDCDD0"/>
<path d="M52.0373 5.52429C53.2146 5.52429 54.3264 5.74907 55.3735 6.19945C56.4206 6.65063 57.3318 7.26435 58.1089 8.0422C58.8859 8.82005 59.5029 9.72727 59.9613 10.7663C60.4198 11.8069 60.6478 12.9147 60.6478 14.0912C60.6478 15.3121 60.423 16.4465 59.9726 17.492C59.5215 18.5391 58.9077 19.4439 58.1299 20.2064C57.352 20.9689 56.4408 21.5697 55.3945 22.0047C54.3474 22.4413 53.2291 22.6596 52.0373 22.6596C50.8462 22.6596 49.7264 22.4413 48.6817 22.0047C47.6346 21.5697 46.7233 20.9689 45.9463 20.2064C45.1692 19.4439 44.5539 18.5391 44.1035 17.492C43.654 16.4465 43.4268 15.3121 43.4268 14.0912C43.4268 12.9155 43.6564 11.8069 44.1149 10.7663C44.5717 9.72727 45.1903 8.81924 45.9673 8.0422C46.7443 7.26515 47.6564 6.65144 48.7027 6.19945C49.7498 5.74988 50.8616 5.52429 52.0373 5.52429ZM52.0373 20.7393C52.9235 20.7393 53.7644 20.5686 54.556 20.2266C55.3468 19.8862 56.0446 19.4181 56.6486 18.8205C57.251 18.2254 57.7272 17.5235 58.0757 16.7166C58.425 15.9112 58.5997 15.0364 58.5997 14.0903C58.5997 13.1904 58.4396 12.3357 58.1202 11.5296C57.7992 10.7226 57.3496 10.0175 56.7674 9.41434C56.1869 8.81195 55.4923 8.33247 54.687 7.97508C53.88 7.6193 52.9962 7.44061 52.0373 7.44061C51.0783 7.44061 50.1962 7.6193 49.3892 7.97508C48.5822 8.33247 47.8893 8.81195 47.3071 9.41434C46.7266 10.0183 46.2754 10.7226 45.956 11.5296C45.6366 12.3349 45.4765 13.1904 45.4765 14.0903C45.4765 15.0364 45.652 15.9112 46.0005 16.7166C46.3481 17.5235 46.8244 18.2254 47.4276 18.8205C48.03 19.4172 48.7278 19.8854 49.5202 20.2266C50.3118 20.5695 51.1511 20.7393 52.0373 20.7393Z" fill="#CDCDD0"/>
<path d="M63.46 5.08765L75.7988 18.0152V5.87197H77.8478V22.9855L65.5089 10.058V22.658H63.46V5.08765Z" fill="#CDCDD0"/>
<path d="M88.8112 22.6579H86.7639V7.74698H80.6592V5.87109H94.916V7.74698H88.8112V22.6579Z" fill="#CDCDD0"/>
<path d="M4.9911 4.19813L0.792969 0V14.3328C0.792969 18.0005 2.19262 21.669 4.9911 24.4675C10.5881 30.0645 19.6635 30.0645 25.2605 24.4675L4.9911 4.19813Z" fill="#CDCDD0"/>
<path d="M26.5204 24.4675L30.7185 28.6656V14.3328C30.7185 10.6651 29.3188 6.99657 26.5204 4.19809C20.9234 -1.39887 11.8479 -1.39887 6.25098 4.19809L26.5204 24.4675Z" fill="#CDCDD0"/>
</svg>
