<svg width="154" height="39" viewBox="0 0 154 39" fill="none" xmlns="http://www.w3.org/2000/svg">
<path d="M55.8516 20.4498H60.7962C61.4907 20.4498 62.0538 21.017 62.0538 21.7168C62.0538 22.4166 61.4907 22.9839 60.7962 22.9839H54.8322C54.7391 22.9839 54.649 23.0174 54.5782 23.0784L52.7775 24.6306C52.5018 24.8682 52.6687 25.323 53.0314 25.323H60.4976C60.5006 25.323 60.503 25.3206 60.503 25.3174C60.503 25.3141 60.506 25.3116 60.509 25.3119C60.6031 25.3192 60.6979 25.323 60.7938 25.323C62.7746 25.323 64.38 23.7085 64.38 21.7168C64.38 19.8255 62.9323 18.2742 61.0901 18.1227C61.0871 18.1225 61.0847 18.1199 61.0847 18.1167C61.0847 18.1133 61.0823 18.1106 61.0787 18.1106H55.7517C55.0571 18.1106 54.4941 17.5433 54.4941 16.8435C54.4941 16.1438 55.0571 15.5765 55.7517 15.5765H61.7077C61.8055 15.5765 61.9002 15.5393 61.9722 15.4724L63.6441 13.9202C63.9062 13.6774 63.7353 13.2373 63.3797 13.2373H55.8516C55.8512 13.2373 55.851 13.2376 55.851 13.238C55.851 13.2383 55.8507 13.2386 55.8503 13.2386C55.8183 13.2377 55.7862 13.2373 55.754 13.2373C53.7735 13.2373 52.168 14.8518 52.168 16.8435C52.168 18.8352 53.7735 20.4498 55.754 20.4498C55.7862 20.4498 55.8183 20.4493 55.8503 20.4485C55.8507 20.4485 55.851 20.4487 55.851 20.4491C55.851 20.4495 55.8512 20.4498 55.8516 20.4498Z" fill="white"/>
<path d="M84.6514 13.2373C84.4349 13.2373 84.2598 13.4135 84.2598 13.6308V24.9296C84.2598 25.1469 84.4349 25.323 84.6514 25.323H93.7055C93.8135 25.323 93.9172 25.278 93.991 25.1987L95.1244 23.9834C95.3589 23.7321 95.1814 23.3208 94.8389 23.3208H86.9332C86.7173 23.3208 86.5422 23.1446 86.5422 22.9273V13.6308C86.5422 13.4135 86.3665 13.2373 86.1506 13.2373H84.6514Z" fill="white"/>
<path fill-rule="evenodd" clip-rule="evenodd" d="M70.1497 13.2373C70.1491 13.2373 70.1485 13.2378 70.1485 13.2384C70.1485 13.2389 70.1479 13.2394 70.1473 13.2394C68.9899 13.2895 68.061 14.2208 68.0106 15.3805C68.0106 15.3811 68.01 15.3816 68.01 15.3816C68.0094 15.3816 68.0094 15.3817 68.0088 15.3819C68.0088 15.3821 68.0088 15.3823 68.0088 15.3826V22.9829C68.0088 22.9834 68.0094 22.9839 68.0094 22.9839C68.01 22.9839 68.0106 22.9844 68.0106 22.985C68.0094 23.0169 68.0088 23.0491 68.0088 23.0813C68.0088 24.2864 68.9575 25.2693 70.1473 25.3209C70.1479 25.3209 70.1485 25.3214 70.1485 25.322V25.3225V25.3228C70.1491 25.323 70.1491 25.323 70.1497 25.323H78.3648C78.3654 25.323 78.366 25.3225 78.366 25.322L78.3666 25.3214V25.321L78.3672 25.3209C79.557 25.2693 80.5057 24.2864 80.5057 23.0813C80.5057 23.0491 80.5051 23.0169 80.5039 22.985C80.5039 22.9844 80.5045 22.9839 80.5051 22.9839C80.5051 22.9839 80.5057 22.9834 80.5057 22.9829V15.3826C80.5057 15.382 80.5051 15.3816 80.5045 15.3816C80.5039 15.3816 80.5039 15.3811 80.5039 15.3805C80.4535 14.2208 79.5246 13.2895 78.3672 13.2394C78.3666 13.2394 78.366 13.2389 78.366 13.2384C78.366 13.2378 78.3654 13.2373 78.3648 13.2373H70.1497ZM71.6807 15.3816L71.6801 15.3818V15.3822C71.6801 15.3826 71.6801 15.3829 71.6795 15.3829C70.9563 15.4144 70.3752 16.0002 70.344 16.7297C70.344 16.7301 70.344 16.7304 70.3434 16.7304C70.3434 16.7304 70.3428 16.7307 70.3428 16.731V21.5118C70.3428 21.5122 70.3434 21.5125 70.3434 21.5125C70.344 21.5125 70.344 21.5128 70.344 21.5131C70.3434 21.5332 70.3428 21.5534 70.3428 21.5738C70.3428 22.3318 70.9359 22.9501 71.6795 22.9826C71.6801 22.9826 71.6801 22.9829 71.6801 22.9832V22.9836L71.6807 22.9838V22.9839H76.8338V22.9838L76.8344 22.9835V22.9832C76.8344 22.9829 76.8344 22.9826 76.835 22.9826C77.5786 22.9501 78.1717 22.3318 78.1717 21.5738C78.1717 21.5534 78.1711 21.5332 78.1705 21.5131V21.513V21.5128L78.1711 21.5125C78.1711 21.5125 78.1717 21.5122 78.1717 21.5118V16.731C78.1717 16.7307 78.1711 16.7304 78.1711 16.7304C78.1705 16.7304 78.1705 16.7301 78.1705 16.7297C78.1393 16.0002 77.5582 15.4144 76.835 15.3829C76.8344 15.3829 76.8344 15.3826 76.8344 15.3822V15.3819L76.8338 15.3817V15.3816H71.6807Z" fill="white"/>
<path fill-rule="evenodd" clip-rule="evenodd" d="M108.291 24.9296C108.291 25.1469 108.465 25.323 108.679 25.323H110.215C110.429 25.323 110.603 25.1469 110.603 24.9296V15.5775C110.603 15.5769 110.602 15.5765 110.602 15.5765V15.5763L110.601 15.5762C110.601 15.576 110.601 15.5757 110.601 15.5754C110.602 15.5435 110.603 15.5113 110.603 15.479C110.603 14.2739 109.663 13.291 108.485 13.2394C108.484 13.2394 108.484 13.2389 108.484 13.2384C108.484 13.2378 108.483 13.2373 108.482 13.2373H100.595C100.595 13.2373 100.594 13.2378 100.594 13.2383C100.594 13.2389 100.593 13.2393 100.593 13.2393C100.562 13.238 100.53 13.2373 100.498 13.2373C99.2741 13.2373 98.2822 14.2409 98.2822 15.479C98.2822 15.5113 98.2828 15.5435 98.284 15.5754C98.284 15.576 98.284 15.5765 98.2834 15.5765C98.2828 15.5765 98.2822 15.5769 98.2822 15.5775V24.9296C98.2822 25.1469 98.4561 25.323 98.6702 25.323H100.206C100.42 25.323 100.594 25.1469 100.594 24.9296V21.0382C100.594 20.8209 100.768 20.6447 100.983 20.6447H107.902C108.117 20.6447 108.291 20.8209 108.291 21.0382V24.9296ZM100.594 18.4968V16.5511C100.594 15.7976 101.198 15.1866 101.943 15.1866H106.942C107.687 15.1866 108.291 15.7976 108.291 16.5511V18.4968C108.291 18.7141 108.117 18.8903 107.902 18.8903H100.983C100.768 18.8903 100.594 18.7141 100.594 18.4968Z" fill="white"/>
<path fill-rule="evenodd" clip-rule="evenodd" d="M140.705 25.323C140.488 25.323 140.312 25.1469 140.312 24.9296V21.0382C140.312 20.8209 140.137 20.6447 139.921 20.6447H132.923C132.707 20.6447 132.532 20.8209 132.532 21.0382V24.9296C132.532 25.1469 132.356 25.323 132.14 25.323H130.589C130.373 25.323 130.197 25.1469 130.197 24.9296V15.5775V15.5772L130.198 15.5769C130.198 15.5766 130.198 15.5765 130.198 15.5765C130.199 15.5765 130.2 15.576 130.2 15.5754C130.198 15.5435 130.197 15.5113 130.197 15.479C130.197 14.2409 131.199 13.2373 132.435 13.2373C132.466 13.2373 132.499 13.238 132.531 13.2393C132.531 13.2393 132.532 13.2389 132.532 13.2383C132.532 13.2378 132.532 13.2373 132.532 13.2373H140.506C140.507 13.2373 140.507 13.2378 140.507 13.2384C140.507 13.2389 140.507 13.2394 140.508 13.2394C141.698 13.291 142.647 14.2739 142.647 15.479C142.647 15.5113 142.646 15.5435 142.645 15.5754C142.645 15.576 142.645 15.5765 142.646 15.5765C142.646 15.5765 142.646 15.5766 142.646 15.5768C142.646 15.577 142.647 15.5772 142.647 15.5775V24.9296C142.647 25.1469 142.471 25.323 142.255 25.323H140.705ZM132.532 16.5511V18.4968C132.532 18.7141 132.707 18.8903 132.923 18.8903H139.921C140.137 18.8903 140.312 18.7141 140.312 18.4968V16.5511C140.312 15.7976 139.703 15.1866 138.951 15.1866H133.893C133.141 15.1866 132.532 15.7976 132.532 16.5511Z" fill="white"/>
<path d="M116.382 13.2373C116.496 13.2373 116.604 13.2878 116.678 13.3755L123.564 21.5851C123.798 21.8635 124.248 21.6956 124.248 21.3298V13.6308C124.248 13.4135 124.421 13.2373 124.636 13.2373H126.172C126.386 13.2373 126.56 13.4135 126.56 13.6308V24.9296C126.56 25.1469 126.386 25.323 126.172 25.323H124.262C124.254 25.323 124.248 25.3165 124.248 25.3083C124.248 25.3048 124.246 25.3014 124.244 25.2987L117.242 17.1463C117.006 16.8724 116.561 17.0416 116.561 17.4051V24.9296C116.561 25.1469 116.387 25.323 116.173 25.323H114.627C114.413 25.323 114.239 25.1469 114.239 24.9296V13.6308C114.239 13.4135 114.413 13.2373 114.627 13.2373H116.382Z" fill="white"/>
<path d="M16.4694 25.7392C16.6609 25.5479 16.9205 25.4404 17.1912 25.4404H42.1658C42.6207 25.4404 42.8485 25.9906 42.5267 26.3121L37.5918 31.2431C37.4003 31.4345 37.1407 31.542 36.87 31.542H11.8954C11.4404 31.542 11.2127 30.9918 11.5345 30.6702L16.4694 25.7392Z" fill="url(#paint0_linear)"/>
<path d="M16.4694 7.3164C16.6609 7.12504 16.9205 7.01758 17.1912 7.01758H42.1658C42.6207 7.01758 42.8485 7.56773 42.5267 7.88935L37.5918 12.8203C37.4003 13.0116 37.1407 13.1191 36.87 13.1191H11.8954C11.4404 13.1191 11.2127 12.569 11.5345 12.2474L16.4694 7.3164Z" fill="url(#paint1_linear)"/>
<path d="M37.5918 16.4687C37.4003 16.2774 37.1407 16.1699 36.87 16.1699H11.8954C11.4404 16.1699 11.2127 16.7201 11.5345 17.0416L16.4694 21.9726C16.6609 22.164 16.9205 22.2714 17.1912 22.2714H42.1658C42.6207 22.2714 42.8485 21.7213 42.5267 21.3997L37.5918 16.4687Z" fill="url(#paint2_linear)"/>
<defs>
<linearGradient id="paint0_linear" x1="32.5401" y1="0.291594" x2="15.2555" y2="33.3985" gradientUnits="userSpaceOnUse">
<stop stop-color="#00FFA3"/>
<stop offset="1" stop-color="#DC1FFF"/>
</linearGradient>
<linearGradient id="paint1_linear" x1="32.5401" y1="0.290673" x2="15.2555" y2="33.3976" gradientUnits="userSpaceOnUse">
<stop stop-color="#00FFA3"/>
<stop offset="1" stop-color="#DC1FFF"/>
</linearGradient>
<linearGradient id="paint2_linear" x1="32.5401" y1="0.290746" x2="15.2556" y2="33.3976" gradientUnits="userSpaceOnUse">
<stop stop-color="#00FFA3"/>
<stop offset="1" stop-color="#DC1FFF"/>
</linearGradient>
</defs>
</svg>
