<svg width="142" height="31" viewBox="0 0 142 31" fill="none" xmlns="http://www.w3.org/2000/svg">
<path fill-rule="evenodd" clip-rule="evenodd" d="M35.3441 14.135L32.6013 14.1315C31.9352 14.1311 31.3959 13.5904 31.3959 12.9235C31.3959 12.2563 31.9361 11.7156 32.6026 11.7156H38.3298V8.45325H32.8177C30.7589 8.45325 28.9673 9.88564 28.3607 11.7382C27.9179 13.0862 28.14 14.5726 28.953 15.7126C29.7343 16.8079 30.974 17.393 32.2702 17.393L35.0178 17.3956C35.6822 17.3965 36.221 17.9358 36.221 18.6018C36.221 19.2673 35.6818 19.8076 35.0165 19.8076L32.9129 19.808H28.9717V23.0704H35.3311C37.774 23.0704 39.48 21.2317 39.48 18.6022C39.48 16.1468 37.5859 14.135 35.3441 14.135Z" fill="#CDCDD0"/>
<mask id="mask0" mask-type="alpha" maskUnits="userSpaceOnUse" x="0" y="0" width="13" height="13">
<path d="M0.575195 0.217529H12.6746V12.329H0.575195V0.217529Z" fill="white"/>
</mask>
<g mask="url(#mask0)">
<path fill-rule="evenodd" clip-rule="evenodd" d="M1.04026 11.8635C0.420175 11.2427 0.420175 10.2362 1.04026 9.61548L9.96345 0.682702C10.5835 0.0619835 11.589 0.0619835 12.2096 0.682702C12.8296 1.30385 12.8296 2.3104 12.2096 2.93112L3.28594 11.8635C2.66585 12.4842 1.66034 12.4842 1.04026 11.8635Z" fill="#CDCDD0"/>
</g>
<mask id="mask1" mask-type="alpha" maskUnits="userSpaceOnUse" x="0" y="11" width="18" height="19">
<path d="M0 11.4717H17.6202V29.5787H0V11.4717Z" fill="white"/>
</mask>
<g mask="url(#mask1)">
<path fill-rule="evenodd" clip-rule="evenodd" d="M17.1551 17.9326C17.7752 18.5533 17.7752 19.5598 17.1551 20.1805L8.23195 29.1133C7.61187 29.734 6.60635 29.734 5.98583 29.1133C5.36575 28.4922 5.36575 27.4856 5.98583 26.8649L14.9095 17.9326C15.5295 17.3118 16.5351 17.3118 17.1551 17.9326ZM0.465062 19.8395C-0.155021 19.2188 -0.155021 18.2118 0.465062 17.5911L6.11272 11.9372C6.73324 11.3165 7.73875 11.3165 8.35883 11.9372C8.97891 12.5584 8.97891 13.5645 8.35883 14.1856L2.71074 19.8395C2.09066 20.4602 1.08514 20.4602 0.465062 19.8395Z" fill="#CDCDD0"/>
</g>
<path fill-rule="evenodd" clip-rule="evenodd" d="M17.7299 9.95675C18.35 10.5775 18.35 11.584 17.7299 12.2047L12.0818 17.8586C11.4618 18.4793 10.4562 18.4793 9.83616 17.8586C9.21607 17.2379 9.21607 16.2314 9.83616 15.6106L15.4842 9.95675C16.1043 9.33603 17.1098 9.33603 17.7299 9.95675Z" fill="#CDCDD0"/>
<path fill-rule="evenodd" clip-rule="evenodd" d="M73.4183 14.1433C73.7234 12.1315 75.6036 11.1459 77.2922 11.1459C79.0121 11.1459 80.885 12.1572 81.1392 14.1433H73.4183ZM77.2922 8.43811C73.1176 8.43811 70.0459 11.4664 70.0459 15.691C70.0459 19.9142 73.0903 23.0918 77.7906 23.0918C80.2062 23.0918 82.1755 22.2953 83.4365 20.7803L81.6762 18.7354C80.6786 19.7711 79.4449 20.2766 77.8693 20.2766C75.5767 20.2766 73.9141 18.9651 73.4166 17.4057H84.3282C84.3543 17.0873 84.3799 16.0359 84.3799 15.7706C84.3799 11.3346 81.3873 8.43811 77.2922 8.43811Z" fill="#CDCDD0"/>
<path fill-rule="evenodd" clip-rule="evenodd" d="M52.2555 16.3349C52.2555 18.2302 50.7086 19.7735 48.8344 19.7735C46.9603 19.7735 45.4133 18.2302 45.4133 16.3349V8.90503H42.1543V16.3349C42.1543 20.061 45.1509 23.0941 48.8344 23.0941C52.518 23.0941 55.5145 20.061 55.5145 16.3349V8.90503H52.2555V16.3349Z" fill="#CDCDD0"/>
<path fill-rule="evenodd" clip-rule="evenodd" d="M63.6828 6.26538H60.4011V8.43811H58.1885V11.7053H60.4011V16.7149C60.4011 20.4414 63.6467 23.07 67.3302 23.07V19.8077C65.407 19.8077 63.6828 18.6102 63.6828 16.7149V11.7053H67.8069V8.43811H63.6828V6.26538Z" fill="#CDCDD0"/>
<path fill-rule="evenodd" clip-rule="evenodd" d="M107.914 16.3951C107.914 18.2903 106.367 19.8337 104.494 19.8337C102.619 19.8337 101.072 18.2903 101.072 16.3951V8.96521H97.8135V16.3951C97.8135 20.1212 100.81 23.1543 104.494 23.1543C108.177 23.1543 111.173 20.1212 111.173 16.3951V8.96521H107.914V16.3951Z" fill="#CDCDD0"/>
<path fill-rule="evenodd" clip-rule="evenodd" d="M137.966 16.3349C137.966 18.2302 136.419 19.7735 134.545 19.7735C132.671 19.7735 131.124 18.2302 131.124 16.3349V8.90503H127.865V16.3349C127.865 20.061 130.861 23.0941 134.545 23.0941C138.229 23.0941 141.225 20.061 141.225 16.3349V8.90503H137.966V16.3349Z" fill="#CDCDD0"/>
<path fill-rule="evenodd" clip-rule="evenodd" d="M90.3137 8.43867H87.0547V23.168H90.3137V15.143C90.3137 13.2787 92.5255 11.7045 95.1166 11.7045V8.43823C93.3259 8.43823 91.6534 8.93672 90.3137 9.76753V8.43867Z" fill="#CDCDD0"/>
<path fill-rule="evenodd" clip-rule="evenodd" d="M121.055 14.135L118.312 14.1315C117.646 14.1311 117.107 13.5904 117.107 12.9235C117.107 12.2563 117.647 11.7156 118.313 11.7156H124.041V8.45325H118.529C116.47 8.45325 114.678 9.88564 114.072 11.7382C113.629 13.0862 113.851 14.5726 114.664 15.7126C115.446 16.8079 116.685 17.393 117.981 17.393L120.729 17.3956C121.393 17.3965 121.932 17.9358 121.932 18.6018C121.932 19.2673 121.393 19.8076 120.727 19.8076L118.624 19.808H114.683V23.0704H121.042C123.485 23.0704 125.191 21.2317 125.191 18.6022C125.191 16.1468 123.297 14.135 121.055 14.135Z" fill="#CDCDD0"/>
</svg>
