<svg width="118" height="26" viewBox="0 0 118 26" fill="none" xmlns="http://www.w3.org/2000/svg">
<g clip-path="url(#clip0)">
<path d="M16.3046 11.9956C16.2669 11.743 16.188 11.4852 16.0678 11.2223C15.8852 10.8234 15.6303 10.5238 15.6011 10.4851C14.8799 9.53392 13.7386 8.91787 12.4555 8.91787C12.4225 8.91787 12.3897 8.91865 12.357 8.91971C12.2893 8.91905 12.2212 8.91865 12.1539 8.91865C8.41005 8.91853 4.8237 9.97786 1.69985 11.9933C1.54525 12.093 1.34317 11.968 1.36069 11.7849C1.9035 6.13489 6.66298 1.71654 12.4555 1.71654C17.3682 1.71654 21.5373 4.89506 23.0219 9.30725C23.0375 9.35348 23.1825 9.94809 23.4569 11.0911C23.4602 11.1014 23.4628 11.1121 23.4646 11.1232C23.5542 11.6906 23.6031 12.2715 23.6031 12.8641C23.6031 19.0208 18.612 24.0117 12.4555 24.0117C11.7351 24.0117 11.0313 23.9418 10.349 23.8109C10.2217 23.7864 10.1427 23.6554 10.1795 23.5311C11.0475 20.5969 12.7056 17.9603 14.9866 15.8916C15.0549 15.8345 15.1233 15.7728 15.1903 15.7082C15.2254 15.6771 15.2585 15.6444 15.2895 15.6103C16.0072 14.8702 16.4018 13.8975 16.4018 12.8641C16.4018 12.566 16.3678 12.2757 16.3047 11.9964C16.3046 11.9962 16.3046 11.9959 16.3046 11.9956ZM14.1292 14.9035C11.7084 17.0919 9.87303 19.9362 8.91676 23.1888C8.88093 23.3107 8.75038 23.3798 8.63097 23.3362C4.72442 21.9092 1.84843 18.2635 1.38096 14.1252C1.37442 14.0676 1.36814 14.0099 1.36239 13.9522C1.39418 13.8812 1.42007 13.8233 1.45186 13.7523C4.46871 11.5268 8.18469 10.2265 12.1539 10.2266C12.2262 10.2266 12.2991 10.2272 12.3715 10.2279C12.3995 10.227 12.4274 10.2258 12.4555 10.2258C13.9126 10.2258 15.0939 11.4071 15.0939 12.8641C15.0939 13.5924 14.7986 14.2519 14.3218 14.7303C14.2432 14.8051 14.1874 14.8557 14.1292 14.9035ZM0 12.8641C0 13.2252 0.0163498 13.5824 0.0465641 13.9357C0.0742933 14.2521 0.110001 14.5437 0.156042 14.8322C0.185471 15.0113 0.207446 15.1333 0.23112 15.2543C0.270621 15.454 0.298612 15.5828 0.328565 15.7109C0.33759 15.7492 0.347269 15.7872 0.356686 15.8255C0.378137 15.9134 0.400503 16.001 0.423916 16.088C0.437781 16.1398 0.451515 16.1915 0.465902 16.2429C0.491539 16.3337 0.518352 16.4238 0.545951 16.5137C0.573811 16.6048 0.60311 16.6952 0.633062 16.7854C0.645095 16.8219 0.65713 16.8582 0.669555 16.8944C1.86858 20.4051 4.59964 23.254 8.17461 24.5616C8.26461 24.5944 8.34609 24.6254 8.42889 24.6536C9.72366 25.0899 11.0632 25.3197 12.4555 25.3197C19.3235 25.3197 24.9111 19.7321 24.9111 12.8641C24.9111 5.99611 19.3235 0.408569 12.4555 0.408569C5.58756 0.408569 0 5.99611 0 12.8641Z" fill="#CDCDD0"/>
<path fill-rule="evenodd" clip-rule="evenodd" d="M30.5928 16.1928H33.9094C33.9545 17.1818 34.7441 18.0583 36.2332 18.0583C37.5643 18.0583 38.4893 17.429 38.5119 16.4175C38.5345 15.7207 38.2186 15.1138 36.6392 14.6642L34.7667 14.1472C31.3373 13.0908 30.7508 11.0903 30.7508 9.69667C30.7508 6.93191 33.1196 5.06626 36.0978 5.06626C39.0985 5.06626 41.3547 6.842 41.3547 9.80906H38.0606C38.0606 8.77509 37.3612 8.0558 36.0527 8.0558C34.902 8.0558 34.0447 8.68518 34.0447 9.60676C34.0447 10.0114 34.2026 10.7531 35.7143 11.1802L37.5643 11.7646C41.3321 12.8436 41.8735 14.9564 41.8284 16.44C41.7833 19.5195 38.9857 20.9805 36.2332 20.9805C32.849 20.9805 30.5928 18.9799 30.5928 16.1928ZM59.9367 10.1299L56.116 20.1365H53.4134L51.2701 13.7726L49.2199 20.1365H46.5173L42.5801 10.1299H46.0281L47.9618 16.0868L49.8722 10.1299H52.6446L54.555 16.0868L56.4887 10.1299H59.9367ZM65.306 10.1299V20.1365H61.8098V10.1299H65.306ZM60.9356 6.02041C60.9356 5.06774 61.9229 4.3429 63.083 4.3429C64.2432 4.3429 65.1811 5.06774 65.1811 6.02041C65.1811 6.97307 64.2432 7.71864 63.083 7.71864C61.9229 7.71864 60.9356 6.97307 60.9356 6.02041ZM70.9158 14.6966V20.3776H67.6785V9.63651H70.9158V11.2005C71.4981 10.1195 72.779 9.40651 74.06 9.40651C76.5053 9.40651 78.0425 10.9015 78.0425 13.9606V20.3776H74.8052V14.6506C74.8052 13.2245 74.0133 12.5115 72.9187 12.5115C71.7776 12.5115 70.9158 13.0636 70.9158 14.6966ZM88.5314 15.1483C88.5314 13.5659 87.2799 12.6617 85.9602 12.6617C84.6177 12.6617 83.4118 13.6563 83.4118 15.1483C83.4118 16.7307 84.6177 17.7253 85.9602 17.7253C87.2572 17.7253 88.5314 16.6855 88.5314 15.1483ZM82.578 20.8378C82.932 21.8017 84.1488 22.5189 85.1885 22.5189C87.5334 22.5189 88.175 20.8827 88.0422 18.7981C87.5556 19.762 86.2282 20.3223 84.9451 20.3223C82.2904 20.3223 79.7907 18.193 79.7907 14.898C79.7907 11.5359 82.2904 9.40651 84.9451 9.40651C86.2282 9.40651 87.5334 9.96686 88.0422 10.9307V9.63064H91.0287V18.6413C91.0287 23.1465 88.8607 25.3207 85.1885 25.3207C82.9099 25.3207 80.9631 24.0207 80.1003 22.0706C80.8747 21.6896 81.8038 21.2189 82.578 20.8378ZM97.397 15.1709C97.397 16.6855 98.5821 17.7253 99.9568 17.7253C101.355 17.7253 102.516 16.7307 102.516 15.1709C102.516 13.6563 101.355 12.6617 99.9568 12.6617C98.6058 12.6617 97.397 13.5885 97.397 15.1709ZM97.7454 20.0394H94.6499V4.3429H97.7454V11.1135C98.2613 10.1774 99.5175 9.65488 100.819 9.65488C103.51 9.65488 105.888 11.723 105.888 14.9887C105.888 18.1889 103.51 20.2571 100.819 20.2571C99.5175 20.2571 98.2613 19.7129 97.7454 18.7767V20.0394ZM118 10.0093L111.565 25.3207H108.282L110.784 19.227L106.762 10.0093H110.069L112.37 15.8391L114.694 10.0093H118Z" fill="#CECDD0"/>
</g>
<defs>
<clipPath id="clip0">
<rect width="118" height="25.3481" fill="white"/>
</clipPath>
</defs>
</svg>
