<svg width="104" height="32" viewBox="0 0 104 32" fill="none" xmlns="http://www.w3.org/2000/svg">
<g clip-path="url(#clip0)">
<path d="M5.92422 16.0386C2.52199 7.4438 -0.134542 0.250323 0.00527565 0.0634792C0.191699 -0.0766534 5.73779 0.764143 12.3092 1.93191L24.3335 4.12733L27.4561 7.25695L30.5321 10.4333L21.8634 21.0367C17.063 26.8755 12.9151 31.6403 12.6355 31.6403C12.3558 31.6867 9.37305 24.6334 5.92422 16.0386ZM13.1947 19.1682C13.6142 15.7583 13.8938 12.909 13.8006 12.8155C13.7074 12.7688 11.8432 11.2274 9.65268 9.45237C3.45411 4.36088 3.87356 4.59443 4.61925 6.46287C4.9921 7.35038 6.85633 12.0215 8.76717 16.8327C10.678 21.5972 12.2626 25.4742 12.3092 25.4275C12.3558 25.3808 12.7753 22.5781 13.1947 19.1682ZM20.5118 18.8413C23.4946 15.2445 25.8249 12.255 25.7783 12.1616C25.6385 12.0215 16.5504 13.5629 16.2707 13.7498C16.0377 13.8899 14.8259 23.1387 14.7793 24.6334C14.7793 25.2406 14.8725 25.661 14.9658 25.5676C15.059 25.4742 17.5757 22.438 20.5118 18.8413ZM23.3082 10.1997L26.524 9.5925L25.1258 8.19117C23.5412 6.603 23.4014 6.64971 19.906 9.73263C18.6942 10.807 18.5078 11.134 19.2069 10.9471C19.7195 10.8537 21.5838 10.48 23.3082 10.1997ZM18.0883 8.23788C19.6729 6.88327 20.7915 5.76221 20.5585 5.66878C19.0205 5.2951 6.66991 3.19311 6.39028 3.28653C6.01743 3.42666 14.2667 10.5734 14.8725 10.6201C15.0124 10.6668 16.4571 9.5925 18.0883 8.23788Z" fill="#E50000"/>
<path d="M98.1962 19.1851L92.7149 12.4837L92.5767 18.4671C92.4845 24.0675 92.3924 24.4504 91.5633 24.4504C90.6882 24.4504 90.6421 24.0675 90.6421 15.595C90.6421 10.7126 90.7342 6.73962 90.8263 6.73962C90.9645 6.73962 93.4979 9.65952 96.4919 13.2495L101.927 19.7595L102.065 13.9676C102.157 8.55857 102.25 8.17564 103.079 8.17564C103.954 8.17564 104 8.55857 104 17.031C104 21.9135 103.954 25.8865 103.862 25.8865C103.77 25.8865 101.236 22.8708 98.1962 19.1851Z" fill="#CDCDD0"/>
<path d="M41.0273 18.7065C41.0273 12.8468 41.0751 12.4838 41.9815 12.4838C42.8879 12.4838 42.9356 12.8468 42.9356 18.7065C42.9356 24.5662 42.8879 24.9292 41.9815 24.9292C41.0751 24.9292 41.0273 24.5662 41.0273 18.7065Z" fill="#CDCDD0"/>
<path d="M43.8896 18.7065C43.8896 12.8468 43.9374 12.4838 44.8438 12.4838C45.7502 12.4838 45.7979 12.8468 45.7979 18.7065C45.7979 24.5662 45.7502 24.9292 44.8438 24.9292C43.9374 24.9292 43.8896 24.5662 43.8896 18.7065Z" fill="#CDCDD0"/>
<path d="M53.4312 16.3131V7.69702H58.9651C61.9706 7.69702 64.8807 7.95044 65.4055 8.20385C65.8825 8.50795 66.6458 9.42024 67.0275 10.2312C68.1724 12.5626 67.9339 14.5392 66.3119 16.5158L64.833 18.2897L66.3119 21.3307C67.0752 23.0032 67.7431 24.5237 67.7431 24.6758C67.7431 24.8278 67.266 24.9292 66.6935 24.9292C65.8348 24.9292 65.2146 24.1689 63.9266 21.6348C62.3523 18.4925 62.1614 18.3404 60.4917 18.3404H58.6789V21.6348C58.6789 24.5744 58.5834 24.9292 57.7247 24.9292C56.866 24.9292 56.7706 24.5744 56.7706 20.6718V16.4651L60.3963 16.2117C64.1174 15.9583 64.9761 15.4515 65.5963 13.4242C65.7871 12.5626 65.5486 11.9544 64.6899 10.9914C63.5926 9.8257 63.1156 9.72433 59.3945 9.72433H55.3394V17.3268C55.3394 24.5744 55.2917 24.9292 54.3853 24.9292C53.4789 24.9292 53.4312 24.5744 53.4312 16.3131Z" fill="#CDCDD0"/>
<path d="M75.9776 23.4871C70.9838 21.5804 69.015 15.036 72.0401 10.3468C73.4807 8.02789 75.9296 6.73962 78.9067 6.73962C84.8609 6.73962 88.6062 13.4901 85.9653 19.4677C84.4287 23.0233 79.723 24.9299 75.9776 23.4871ZM82.7001 20.1376C85.341 17.458 85.4371 13.3871 82.8921 10.8105C79.0507 6.94575 72.8084 9.67687 72.8564 15.1391C72.9045 17.7672 73.6727 19.3646 75.5454 20.7044C77.4181 22.0957 81.0675 21.7865 82.7001 20.1376Z" fill="#CDCDD0"/>
<path d="M77.2842 15.926C77.2842 14.6922 77.577 14.3984 78.8066 14.3984C80.0363 14.3984 80.2705 14.6334 80.0948 15.7497C79.9777 16.5723 79.4507 17.1011 78.631 17.2186C77.5184 17.3948 77.2842 17.1598 77.2842 15.926Z" fill="#CDCDD0"/>
<path d="M92.5503 21.5785C92.5503 18.5629 92.6457 18.2278 93.5044 18.2278C94.3631 18.2278 94.4585 18.5629 94.4585 21.5785C94.4585 24.5941 94.3631 24.9292 93.5044 24.9292C92.6457 24.9292 92.5503 24.5941 92.5503 21.5785Z" fill="black"/>
<path d="M35.3027 8.65436C35.3027 7.74489 35.6367 7.69702 42.4587 7.69702C49.2807 7.69702 49.6147 7.74489 49.6147 8.65436C49.6147 9.56384 49.2807 9.6117 42.4587 9.6117C35.6367 9.6117 35.3027 9.56384 35.3027 8.65436Z" fill="#CDCDD0"/>
</g>
<defs>
<clipPath id="clip0">
<rect width="104" height="31.7557" fill="white"/>
</clipPath>
</defs>
</svg>
