<svg width="122" height="35" viewBox="0 0 122 35" fill="none" xmlns="http://www.w3.org/2000/svg">
<g clip-path="url(#clip0)">
<path d="M58.9837 10.0078H54.5109C54.3454 10.0078 54.2353 10.1185 54.2353 10.2846V18.8727C54.2353 19.3709 54.1246 19.8143 53.7936 20.1464C53.5174 20.4791 53.0751 20.6452 52.5787 20.6452C52.0816 20.6452 51.6947 20.4791 51.3638 20.1464C51.0876 19.8143 50.9221 19.4262 50.9221 18.8727V10.2852C50.9221 10.1191 50.8114 10.0084 50.6459 10.0084H46.1731C46.0076 10.0084 45.8975 10.1191 45.8975 10.2852V18.8173C45.8975 20.757 46.56 22.2528 47.7749 23.4158C48.9893 24.58 50.6459 25.1335 52.468 25.1889C54.5109 25.1889 56.1675 24.6348 57.3824 23.4712C58.6521 22.3076 59.2599 20.757 59.2599 18.8727V10.2852C59.2599 10.1191 59.1498 10.0078 58.9837 10.0078Z" fill="white"/>
<path d="M76.9566 10.0087H72.8707C72.7041 10.0087 72.5945 10.1194 72.5945 10.2855V15.8256C72.5945 16.1024 72.2629 16.2136 72.0975 15.9916L67.6806 10.1188C67.6246 10.0635 67.5704 10.0081 67.4592 10.0081H63.7596C63.5947 10.0081 63.4834 10.1188 63.4834 10.2849V24.4684C63.4834 24.6345 63.5947 24.7458 63.7596 24.7458H67.8461C68.0116 24.7458 68.1223 24.6345 68.1223 24.4684V18.6521C68.1223 18.3754 68.4532 18.2641 68.6187 18.4861L73.1475 24.6357C73.2023 24.691 73.2576 24.7469 73.3683 24.7469H76.9018C77.0679 24.7469 77.178 24.6357 77.178 24.4696V10.2861C77.1774 10.12 77.0667 9.95393 76.9566 10.0087Z" fill="white"/>
<path d="M85.8347 9.95312H81.4178C81.2523 9.95312 81.1416 10.1192 81.1416 10.2853V24.4134C81.1416 24.5795 81.2523 24.6896 81.4178 24.6896H85.8347C86.0013 24.6896 86.1109 24.5795 86.1109 24.4134V10.2299C86.1115 10.0638 86.0013 9.95312 85.8347 9.95312Z" fill="white"/>
<path d="M103.035 11.6709C101.544 10.23 99.611 9.50977 97.1818 9.50977C94.7525 9.50977 92.8197 10.23 91.3285 11.6709C89.838 13.1113 89.1201 14.9945 89.1201 17.3217C89.1201 19.6489 89.838 21.5321 91.3285 22.9731C92.7643 24.4135 94.7525 25.1337 97.1818 25.1337C99.611 25.1337 101.544 24.4135 103.035 22.9731C104.525 21.5321 105.243 19.6489 105.243 17.3217C105.243 14.9945 104.525 13.1113 103.035 11.6709ZM99.3354 19.7596C98.7824 20.3132 98.0651 20.6459 97.1258 20.6459C96.243 20.6459 95.4692 20.3691 94.9174 19.7596C94.3656 19.1502 94.0888 18.3746 94.0888 17.3771C94.0888 16.3801 94.365 15.604 94.9174 14.9945C95.4692 14.3856 96.1877 14.1083 97.1258 14.1083C98.0098 14.1083 98.7824 14.3856 99.3354 14.9945C99.8872 15.604 100.163 16.3801 100.163 17.3771C100.163 18.374 99.8872 19.1502 99.3354 19.7596Z" fill="white"/>
<path d="M121.779 10.0087H117.693C117.526 10.0087 117.417 10.1194 117.417 10.2855V15.8256C117.417 16.1024 117.085 16.2136 116.92 15.9916L112.503 10.1188C112.447 10.0635 112.393 10.0081 112.281 10.0081H108.582C108.417 10.0081 108.306 10.1188 108.306 10.2849V24.4684C108.306 24.6345 108.417 24.7458 108.582 24.7458H112.668C112.834 24.7458 112.945 24.6345 112.945 24.4684V18.6521C112.945 18.3754 113.276 18.2641 113.441 18.4861L117.97 24.6357C118.024 24.691 118.08 24.7469 118.191 24.7469H121.724C121.89 24.7469 122 24.6357 122 24.4696V10.2861C122 10.12 121.89 9.95393 121.779 10.0087Z" fill="white"/>
<path d="M25.1491 8.28419C25.2085 8.28361 25.2224 8.31821 25.1803 8.35972L22.7118 10.8346C22.657 10.8893 22.5682 10.8893 22.514 10.8346L22.055 10.3756C21.9305 10.251 21.7615 10.1812 21.5851 10.1812C21.5851 10.1812 20.3742 10.1789 19.9907 10.1761C19.9498 10.1755 19.9319 10.1247 19.9631 10.0982C21.3533 8.91039 23.2947 8.30091 25.1491 8.28419Z" fill="#7E6CFF"/>
<path d="M14.6912 22.8105H13.1396C12.9153 22.8105 12.7042 22.724 12.5457 22.5649L11.4484 21.4676C11.2898 21.3096 11.2021 21.098 11.2021 20.8743V19.322C11.2021 19.0977 11.2898 18.8867 11.4484 18.7287L12.5457 17.6314C12.7042 17.4728 12.9153 17.3857 13.1396 17.3857H14.6912C14.9155 17.3857 15.1266 17.4728 15.2852 17.6314L16.3824 18.7287C16.541 18.8867 16.6287 19.0989 16.6287 19.322V20.8743C16.6287 21.0986 16.541 21.3096 16.3824 21.4676L15.2852 22.5649C15.1266 22.7234 14.9155 22.8105 14.6912 22.8105Z" fill="#7E6CFF"/>
<path d="M7.06184 8.12068C7.10567 8.11145 7.14603 8.1449 7.14315 8.18987C7.127 8.42167 7.11835 8.65578 7.11835 8.89161C7.11835 9.03807 7.12181 9.18396 7.12815 9.32869C7.13046 9.39038 7.10797 9.45035 7.06415 9.49417L0.11307 16.3668C0.0704005 16.4095 -0.00225284 16.3772 5.36143e-05 16.3155C0.159199 12.2538 3.3744 8.887 7.06184 8.12068Z" fill="#7E6CFF"/>
<path d="M7.24499 10.8327C7.28247 10.7958 7.3459 10.8148 7.35628 10.8667C7.55002 11.8146 7.92194 12.7136 8.36362 13.5433C8.38207 13.5773 8.37573 13.6194 8.34863 13.6465L2.27573 19.6981C1.90036 20.0764 1.4679 20.5123 1.16517 20.8179C1.07926 20.9049 0.933374 20.8796 0.880902 20.7694C0.487652 19.9449 0.217796 19.05 0.0984371 18.1078C0.0897879 18.0409 0.113429 17.974 0.161288 17.9262L7.24499 10.8327Z" fill="#7E6CFF"/>
<path d="M10.085 19.831C10.1265 19.7894 10.1974 19.8188 10.1974 19.8777V21.3942C10.1974 21.5712 10.2672 21.7401 10.3918 21.8635L10.7862 22.3288C10.8127 22.3548 10.8121 22.3975 10.8213 22.3888L7.59346 25.5319C7.50755 25.6167 7.43605 25.6386 7.36628 25.6265C6.56767 25.491 5.80711 25.2471 5.09788 24.9115C5.05694 24.8919 5.04771 24.8371 5.08 24.8042L10.085 19.831Z" fill="#7E6CFF"/>
<path d="M7.84863 20.5629L7.87339 20.5391C7.85964 20.5528 7.84863 20.5629 7.84863 20.5629Z" fill="#7E6CFF"/>
<path d="M9.00624 25.736C8.94743 25.7366 8.93359 25.702 8.9751 25.661L11.4442 23.1856C11.4984 23.1308 11.5872 23.1308 11.6414 23.1856L12.1009 23.6446C12.2255 23.7691 12.3938 23.8389 12.5703 23.8389C12.5703 23.8389 13.7812 23.8412 14.1646 23.8447C14.2056 23.8447 14.2234 23.8954 14.1929 23.9225C12.8021 25.1098 10.8612 25.7193 9.00624 25.736Z" fill="#7E6CFF"/>
<path d="M1.63741 21.722C2.31897 21.0416 5.52898 17.8345 6.18632 17.1771C6.23649 17.127 6.31664 17.1575 6.32932 17.2279C6.43081 17.7918 6.70009 18.3154 7.11063 18.7265H7.11121C7.54137 19.1566 8.09664 19.4334 8.69113 19.5228C8.76148 19.5332 8.79377 19.6127 8.74361 19.6635C8.10241 20.3047 5.07807 23.3313 4.09494 24.3156C4.06496 24.3179 4.04766 24.3196 4.01768 24.3219C3.07664 23.7078 2.259 22.919 1.61377 22.0005C1.55323 21.914 1.56303 21.797 1.63741 21.722Z" fill="#7E6CFF"/>
<path d="M11.0449 14.6912V13.1396C11.0449 12.9147 11.132 12.7042 11.2911 12.5457L12.3884 11.4478C12.5464 11.2898 12.7575 11.2021 12.9818 11.2021H14.534C14.7583 11.2021 14.9694 11.2898 15.1279 11.4478L16.2252 12.5457C16.3838 12.7042 16.4709 12.9147 16.4709 13.1396V14.6912C16.4709 14.9155 16.3838 15.1266 16.2252 15.2851L15.1279 16.3824C14.9694 16.541 14.7583 16.6281 14.534 16.6281H12.9818C12.7575 16.6281 12.5464 16.541 12.3884 16.3824L11.2906 15.2851C11.132 15.126 11.0449 14.9155 11.0449 14.6912Z" fill="#7E6CFF"/>
<path d="M25.735 7.06184C25.7442 7.10566 25.7108 7.14603 25.6658 7.14257C25.434 7.12642 25.1999 7.11835 24.9641 7.11835C24.8176 7.11835 24.6717 7.12181 24.527 7.12758C24.4653 7.13046 24.4053 7.10797 24.3615 7.06472L17.4894 0.11307C17.4462 0.0698243 17.4791 -0.00225243 17.5402 5.40295e-05C21.6018 0.158623 24.9687 3.37382 25.735 7.06184Z" fill="#7E6CFF"/>
<path d="M23.0235 7.24536C23.0604 7.28226 23.0413 7.34627 22.9894 7.35665C22.0415 7.55039 21.1425 7.92173 20.3128 8.36399C20.2788 8.38187 20.2367 8.3761 20.2096 8.349L14.158 2.27611C13.7792 1.90073 13.3438 1.46827 13.0377 1.16497C12.9506 1.07906 12.976 0.933751 13.0861 0.881279C13.9106 0.486875 14.8061 0.218173 15.7477 0.0982379C15.8152 0.0901653 15.8821 0.113806 15.93 0.161089L23.0235 7.24536Z" fill="#7E6CFF"/>
<path d="M14.025 10.084C14.0665 10.1255 14.0371 10.1964 13.9783 10.1964H12.4618C12.2853 10.1964 12.1164 10.2668 11.9924 10.3913L11.5271 10.7857C11.5012 10.8117 11.4585 10.8117 11.4677 10.8203L8.32459 7.59302C8.23925 7.50653 8.21791 7.43503 8.22945 7.36526C8.36553 6.56723 8.60944 5.80667 8.94502 5.09744C8.96463 5.05592 9.01941 5.0467 9.0517 5.07899L14.025 10.084Z" fill="#7E6CFF"/>
<path d="M8.12012 9.0064C8.11955 8.94701 8.15414 8.93375 8.19566 8.97526L10.6705 11.4443C10.7253 11.4985 10.7253 11.5873 10.6705 11.6415L10.2115 12.1005C10.087 12.2256 10.0172 12.394 10.0172 12.5705C10.0172 12.5705 10.0149 13.7813 10.012 14.1648C10.0114 14.2057 9.96068 14.2242 9.93415 14.193C8.74633 12.8023 8.13685 10.8614 8.12012 9.0064Z" fill="#7E6CFF"/>
<path d="M17.9728 9.95382C17.6937 10.2329 17.3149 10.3897 16.9205 10.3897C16.5255 10.3897 16.1466 10.2335 15.8681 9.95382H15.8676C15.5885 9.67474 15.4316 9.2959 15.4316 8.90092C15.4316 8.50594 15.5885 8.12769 15.8676 7.84861L15.8681 7.84803C16.1466 7.56895 16.5255 7.41211 16.9199 7.41211H16.9205C17.3154 7.41211 17.6943 7.56952 17.9728 7.84861H17.9734C18.2524 8.12769 18.4087 8.50652 18.4087 8.90092C18.4087 9.2959 18.2519 9.67416 17.9728 9.95382Z" fill="#7E6CFF"/>
<path d="M12.1341 1.63662C12.8145 2.3176 16.0217 5.52761 16.679 6.18553C16.7292 6.23569 16.6986 6.31584 16.6283 6.32853C16.0649 6.43001 15.5408 6.69929 15.1302 7.10984H15.1296C14.6995 7.54057 14.4233 8.09585 14.3339 8.69034C14.3235 8.76068 14.2434 8.79297 14.1932 8.74223C13.5514 8.10104 10.5248 5.07728 9.54052 4.09415C9.53822 4.06417 9.53649 4.04629 9.53418 4.01688C10.1488 3.07527 10.9371 2.25821 11.8562 1.61298C11.9421 1.55244 12.0592 1.56166 12.1341 1.63662Z" fill="#7E6CFF"/>
<path d="M9.95325 15.8832C10.2323 16.1623 10.3892 16.5411 10.3892 16.9355C10.3892 17.3305 10.2323 17.7093 9.95325 17.9878V17.9884C9.67417 18.2675 9.29533 18.4243 8.90035 18.4243C8.50537 18.4243 8.12711 18.2681 7.84803 17.9884V17.9878C7.56895 17.7099 7.41211 17.3305 7.41211 16.9361V16.9355C7.41211 16.5405 7.56895 16.1623 7.84803 15.8832L7.84861 15.8826C8.12711 15.6035 8.50595 15.4473 8.90035 15.4473C9.29533 15.4478 9.67417 15.6047 9.95325 15.8832Z" fill="#7E6CFF"/>
<path d="M19.4378 11.2275H20.9895C21.2144 11.2275 21.4248 11.3146 21.5834 11.4732L22.6813 12.571C22.8393 12.729 22.9269 12.9401 22.9269 13.1644V14.7161C22.9269 14.9409 22.8393 15.1508 22.6813 15.3094L21.5834 16.4067C21.4248 16.5653 21.2144 16.6529 20.9895 16.6529H19.4378C19.2135 16.6529 19.0025 16.5658 18.8439 16.4067L17.7466 15.31C17.588 15.1508 17.501 14.9398 17.501 14.7161V13.1644C17.501 12.9401 17.588 12.729 17.7466 12.571L18.8439 11.4732C19.0025 11.3146 19.2135 11.2275 19.4378 11.2275Z" fill="#7E6CFF"/>
<path d="M27.0673 25.9179C27.0234 25.9272 26.9831 25.8931 26.9865 25.8487C27.0027 25.6169 27.0108 25.3823 27.0108 25.1464C27.0108 25 27.0073 24.8541 27.0015 24.7088C26.9986 24.6477 27.0211 24.5871 27.065 24.5439L34.016 17.6718C34.0593 17.6291 34.1314 17.6614 34.129 17.7225C33.9699 21.7848 30.7553 25.1516 27.0673 25.9179Z" fill="#7E6CFF"/>
<path d="M26.8838 23.2054C26.8469 23.2429 26.7829 23.2233 26.7725 23.1714C26.5788 22.2234 26.2074 21.3245 25.7651 20.4953C25.7473 20.4613 25.753 20.4192 25.7801 20.3915L31.8531 14.3394C32.2284 13.9611 32.6609 13.5252 32.9642 13.219C33.0501 13.1326 33.1954 13.1573 33.2479 13.2675C33.6417 14.0926 33.911 14.9875 34.0309 15.9297C34.039 15.9966 34.0154 16.0641 33.9681 16.1113L26.8838 23.2054Z" fill="#7E6CFF"/>
<path d="M24.0449 14.2074C24.0034 14.2489 23.9325 14.2195 23.9325 14.1607V12.6442C23.9325 12.4677 23.8621 12.2988 23.7376 12.1742L23.3438 11.7095C23.3172 11.6835 23.3172 11.6409 23.3086 11.6495L26.5359 8.50639C26.6224 8.42163 26.6939 8.39914 26.7637 8.41125C27.5617 8.54733 28.3223 8.79124 29.0315 9.12682C29.073 9.14643 29.0822 9.20063 29.0499 9.23292L24.0449 14.2074Z" fill="#7E6CFF"/>
<path d="M26.2904 13.4844L26.2656 13.5091C26.2794 13.4954 26.2904 13.4844 26.2904 13.4844Z" fill="#7E6CFF"/>
<path d="M25.1229 8.30274C25.1823 8.30216 25.1956 8.33619 25.1541 8.3777L22.685 10.8531C22.6308 10.9079 22.542 10.9079 22.4878 10.8531L22.0288 10.3941C21.9037 10.2696 21.7353 10.1998 21.5589 10.1998C21.5589 10.1998 20.348 10.1975 19.9645 10.194C19.9236 10.194 19.9057 10.1433 19.9363 10.1168C21.3271 8.92894 23.268 8.31946 25.1229 8.30274Z" fill="#7E6CFF"/>
<path d="M32.4919 12.3167C31.8103 12.9977 28.6003 16.2049 27.943 16.8616C27.8922 16.9118 27.8126 16.8812 27.8 16.8114C27.6985 16.2475 27.4292 15.7234 27.0181 15.3128C26.5879 14.8821 26.0326 14.6059 25.4376 14.5165C25.3678 14.5056 25.3355 14.426 25.3857 14.3758C26.0269 13.7341 29.0506 10.7074 30.0343 9.72314C30.0638 9.72083 30.0816 9.71968 30.1116 9.7168C31.0526 10.3315 31.8703 11.1197 32.5155 12.0388C32.5761 12.1253 32.5663 12.2424 32.4919 12.3167Z" fill="#7E6CFF"/>
<path d="M23.0847 19.3474V20.8991C23.0847 21.1245 22.9971 21.3344 22.8385 21.493L21.7412 22.5903C21.5826 22.7483 21.3716 22.8365 21.1479 22.8365H19.5956C19.3713 22.8365 19.1603 22.7488 19.0017 22.5903L17.9044 21.493C17.7458 21.3344 17.6582 21.1239 17.6582 20.8991V19.3474C17.6582 19.1231 17.7458 18.9126 17.9044 18.7541L19.0017 17.6568C19.1603 17.4988 19.3713 17.4111 19.5956 17.4111H21.1479C21.3716 17.4111 21.5826 17.4982 21.7412 17.6568L22.8385 18.7541C22.9971 18.9126 23.0847 19.1231 23.0847 19.3474Z" fill="#7E6CFF"/>
<path d="M8.3941 26.977C8.38487 26.9331 8.41889 26.8928 8.46329 26.8957C8.69509 26.9118 8.92919 26.9204 9.16561 26.9204C9.31207 26.9204 9.45737 26.917 9.60268 26.9101C9.66438 26.9078 9.72435 26.9302 9.76759 26.9741L16.6403 33.9251C16.6835 33.9684 16.6501 34.0405 16.5895 34.0381C12.5273 33.8802 9.16042 30.665 8.3941 26.977Z" fill="#7E6CFF"/>
<path d="M11.1054 26.7937C11.0679 26.7562 11.0875 26.6928 11.1394 26.683C12.0874 26.4892 12.9863 26.1173 13.8155 25.6751C13.8501 25.6578 13.8916 25.6629 13.9193 25.69L19.9708 31.7629C20.3491 32.1377 20.785 32.5702 21.0912 32.8735C21.1777 32.9594 21.1529 33.1053 21.0427 33.1578C20.2176 33.5516 19.3227 33.8203 18.3805 33.9397C18.3136 33.9489 18.2462 33.9252 18.1989 33.8774L11.1054 26.7937Z" fill="#7E6CFF"/>
<path d="M20.1044 23.9541C20.0629 23.9132 20.0923 23.8422 20.1511 23.8422H21.6676C21.844 23.8422 22.013 23.7713 22.1375 23.6468L22.6029 23.2524C22.6282 23.2264 22.6709 23.2264 22.6617 23.2178L25.8048 26.4451C25.8901 26.531 25.912 26.6031 25.8999 26.6728C25.7639 27.4709 25.5199 28.2314 25.1844 28.9412C25.1648 28.9822 25.1106 28.992 25.0783 28.9597L20.1044 23.9541Z" fill="#7E6CFF"/>
<path d="M26.0094 25.0329C26.01 25.0917 25.976 25.1056 25.9345 25.0646L23.4591 22.5956C23.4043 22.5408 23.4043 22.4526 23.4591 22.3978L23.918 21.9382C24.0426 21.8137 24.1124 21.6453 24.1124 21.4694C24.1124 21.4694 24.1147 20.258 24.1181 19.8751C24.1181 19.8342 24.1694 19.8157 24.1954 19.8463C25.3832 21.2371 25.9927 23.1779 26.0094 25.0329Z" fill="#7E6CFF"/>
<path d="M16.1572 24.0853C16.4363 23.8063 16.8145 23.6494 17.2095 23.6494C17.6045 23.6494 17.9828 23.8057 18.2618 24.0853C18.5415 24.3638 18.6983 24.7433 18.6983 25.1382C18.6983 25.5332 18.5415 25.9115 18.2618 26.19C17.9833 26.4691 17.6045 26.6259 17.2095 26.6259C16.8145 26.6259 16.4357 26.4696 16.1572 26.19L16.1566 26.1894C15.8775 25.9115 15.7207 25.5321 15.7207 25.1382C15.7207 24.7427 15.8775 24.3638 16.1572 24.0853Z" fill="#7E6CFF"/>
<path d="M21.9955 32.4014C21.3145 31.7199 18.1079 28.5104 17.4506 27.8525C17.4004 27.8023 17.431 27.7222 17.5008 27.7095C18.0647 27.608 18.5888 27.3388 18.9994 26.9288V26.9282C19.4301 26.498 19.7063 25.9428 19.7957 25.3483C19.8061 25.2779 19.8862 25.2456 19.9364 25.2958C20.5781 25.937 23.6048 28.9608 24.5891 29.9445C24.5914 29.975 24.5931 29.9918 24.5954 30.0223C23.9808 30.9633 23.1925 31.781 22.2734 32.4256C22.1875 32.4862 22.0693 32.477 21.9955 32.4014Z" fill="#7E6CFF"/>
<path d="M24.1762 18.1554C23.8971 17.8769 23.7402 17.4975 23.7402 17.1031C23.7402 16.7087 23.8971 16.3293 24.1762 16.0502C24.4552 15.7711 24.8341 15.6143 25.2291 15.6143C25.624 15.6143 26.0023 15.7711 26.2814 16.0502H26.2819C26.561 16.3293 26.7179 16.7081 26.7179 17.1025V17.1031C26.7179 17.4981 26.5605 17.8769 26.2814 18.1554C26.0023 18.4345 25.6235 18.5913 25.2291 18.5913C24.8341 18.5913 24.4558 18.4351 24.1762 18.1554Z" fill="#7E6CFF"/>
</g>
<defs>
<clipPath id="clip0">
<rect width="122" height="34.0387" fill="white"/>
</clipPath>
</defs>
</svg>
