<svg width="82" height="35" viewBox="0 0 82 35" fill="none" xmlns="http://www.w3.org/2000/svg">
<path fill-rule="evenodd" clip-rule="evenodd" d="M2.37562e-05 17.0159C0.00779001 7.58763 7.61872 -0.0077603 17.0547 5.9504e-06C26.4364 0.0155384 34.0473 7.64976 34.0318 17.0469C34.0162 26.4441 26.3898 34.055 17.0004 34.0317C7.58766 34.0162 -0.0155088 26.413 2.37562e-05 17.0159ZM8.86132 16.7518C8.86132 20.2 8.86132 23.656 8.86132 27.1042C8.86132 27.7799 9.15644 28.2769 9.72337 28.6109C10.2903 28.937 10.8728 28.9138 11.4397 28.5876C13.1017 27.6246 14.7559 26.6615 16.4179 25.6985C20.7282 23.2133 25.0384 20.7281 29.3487 18.2352C30.5991 17.5129 30.5991 15.9286 29.3409 15.1986C29.007 15.0044 28.6653 14.8102 28.3313 14.6161C25.085 12.7367 21.8232 10.8728 18.5847 8.98556C17.179 8.16233 15.8587 9.23408 15.8742 10.5543C15.9286 14.2744 15.8898 17.9866 15.8898 21.7067C15.8898 21.7688 15.8898 21.8309 15.8898 21.8931C15.8975 22.0251 15.8432 22.1183 15.7267 22.1804C14.6782 22.7862 13.6298 23.3919 12.5814 23.99C12.395 24.0987 12.2629 24.0132 12.2396 23.8036C12.2319 23.7337 12.2396 23.6638 12.2396 23.5939C12.2396 17.8624 12.2396 12.1309 12.2396 6.3994C12.2396 6.18971 12.2163 5.98002 12.1464 5.7781C11.8513 4.98594 11.0747 4.54326 10.2204 4.68305C9.45932 4.80731 8.86132 5.54511 8.86132 6.36056C8.86132 9.83208 8.86132 13.2881 8.86132 16.7518Z" fill="#00C2CF"/>
<path fill-rule="evenodd" clip-rule="evenodd" d="M67.7295 16.7827C67.7295 14.7014 67.745 12.6278 67.7217 10.5464C67.714 9.59119 68.5527 9.05532 69.1818 9.04755C71.0845 9.03979 72.995 9.00096 74.8977 9.06309C78.4547 9.17181 81.1962 11.5716 81.833 15.0742C82.2369 17.2953 81.9262 19.3922 80.7069 21.3105C79.5653 23.0967 77.9111 24.1141 75.8219 24.417C75.3715 24.4791 74.921 24.5101 74.4706 24.5024C72.762 24.5024 71.0535 24.5024 69.3371 24.5024C69.1507 24.5024 68.9643 24.4868 68.7779 24.4403C68.1023 24.2616 67.7295 23.7801 67.7295 23.0734C67.7295 20.9843 67.7295 18.8796 67.7295 16.7827ZM70.704 16.7827C70.704 18.367 70.704 19.9514 70.704 21.5357C70.704 21.7143 70.735 21.7764 70.9292 21.7764C72.133 21.7687 73.3367 21.7842 74.5327 21.7687C75.7365 21.7531 76.8082 21.3415 77.6159 20.4329C79.0372 18.833 79.34 16.9614 78.742 14.9499C78.1906 13.086 76.7772 11.9521 74.8434 11.8123C73.5464 11.7191 72.2339 11.7968 70.937 11.7735C70.7506 11.7735 70.704 11.8279 70.704 12.0065C70.704 13.5986 70.704 15.1907 70.704 16.7827Z" fill="#CDCDD0"/>
<path fill-rule="evenodd" clip-rule="evenodd" d="M43.9648 20.1388C44.2211 19.533 44.4696 18.9583 44.7181 18.3758C45.9219 15.5334 47.1567 12.7065 48.4148 9.88735C48.6711 9.31265 49.106 8.96316 49.7429 8.93987C50.3486 8.91657 50.8457 9.14955 51.1563 9.68542C51.4282 10.1592 51.3738 10.6407 51.1563 11.1222C50.3642 12.8618 49.5643 14.6015 48.7721 16.3411C47.6615 18.7797 46.5509 21.226 45.4326 23.6646C45.2151 24.1384 44.889 24.5034 44.3686 24.6432C43.8794 24.7752 43.46 24.6121 43.1027 24.2859C42.8542 24.0607 42.6756 23.7889 42.5358 23.4938C40.5709 19.3777 38.6061 15.2693 36.649 11.1532C36.3228 10.4776 36.4626 9.79415 36.9985 9.32818C37.5576 8.84667 38.3032 8.77678 38.8624 9.14955C39.1419 9.33594 39.3283 9.6 39.4681 9.90288C40.9592 13.3045 42.4504 16.7061 43.9648 20.1388Z" fill="#CDCDD0"/>
<path fill-rule="evenodd" clip-rule="evenodd" d="M64.8871 16.7682C64.8871 18.8651 64.8871 20.9542 64.8871 23.0511C64.8871 23.6414 64.6929 24.1073 64.1493 24.3792C63.5823 24.6587 63.0154 24.6354 62.4795 24.286C62.0446 23.9986 61.9126 23.5559 61.9126 23.0667C61.9126 22.1813 61.9126 21.3037 61.9126 20.4184C61.9126 17.1255 61.9126 13.8248 61.9126 10.532C61.9126 9.32819 63.0465 8.62147 64.1337 9.14957C64.6696 9.41362 64.8793 9.87183 64.8793 10.4465C64.8871 12.5512 64.8871 14.6636 64.8871 16.7682Z" fill="#CDCDD0"/>
<path fill-rule="evenodd" clip-rule="evenodd" d="M55.397 18.2818C54.4417 18.2818 53.4943 18.2896 52.539 18.2818C52.0031 18.274 51.5605 18.0488 51.3275 17.5518C51.0867 17.0392 51.1333 16.5344 51.475 16.0762C51.7313 15.7345 52.0963 15.5792 52.5079 15.5792C54.434 15.5714 56.36 15.5636 58.2938 15.5792C59.0626 15.5869 59.5364 16.1539 59.5209 16.9848C59.5053 17.7304 58.9694 18.2896 58.2472 18.2896C57.2997 18.2896 56.3522 18.2818 55.397 18.2818Z" fill="#CDCDD0"/>
<path fill-rule="evenodd" clip-rule="evenodd" d="M19.2681 16.6907C19.2681 15.7277 19.2681 14.7724 19.2681 13.8094C19.2681 13.4599 19.3923 13.3822 19.6952 13.5609C21.3883 14.5394 23.0813 15.518 24.7743 16.4965C25.0617 16.6596 25.0617 16.7994 24.7743 16.9625C23.0968 17.9333 21.4115 18.9041 19.734 19.8749C19.3846 20.0768 19.2681 20.0069 19.2681 19.5953C19.2681 18.6245 19.2681 17.6537 19.2681 16.6907Z" fill="#02C3D0"/>
</svg>
