<svg width="107" height="39" viewBox="0 0 107 39" fill="none" xmlns="http://www.w3.org/2000/svg">
<path d="M9.43576 37.0987V36.1744H6.10499V34.5378H8.95512V33.6305H6.10499V32.0872H9.31771V31.1629H5.00879V37.0987H9.43576ZM15.0887 37.0987V33.0793L18.3436 37.0987H19.2458V31.1629H18.1581V35.1823L14.9032 31.1629H14.0009V37.0987H15.0887ZM26.4672 37.0987V32.0957H28.4235V31.1629H23.4147V32.0957H25.371V37.0987H26.4672ZM37.0193 37.0987V36.1744H33.6885V34.5378H36.5387V33.6305H33.6885V32.0872H36.9013V31.1629H32.5923V37.0987H37.0193ZM42.6807 37.0987V35.3688L44.1058 35.3679C44.162 35.3667 44.2069 35.3641 44.2407 35.3604L45.4465 37.0987H46.627L45.2694 35.1484C45.6742 34.9901 45.9848 34.7498 46.2012 34.4276C46.4176 34.1054 46.5258 33.721 46.5258 33.2744C46.5258 32.8391 46.4246 32.4631 46.2223 32.1466C46.0199 31.83 45.729 31.5869 45.3495 31.4173C44.9701 31.2477 44.5246 31.1629 44.013 31.1629H41.5845V37.0987H42.6807ZM43.9624 34.4615H42.6807V32.0957H43.9624C44.4402 32.0957 44.8028 32.1974 45.0502 32.401C45.2975 32.6045 45.4212 32.8956 45.4212 33.2744C45.4212 33.6531 45.2975 33.9457 45.0502 34.152C44.8028 34.3584 44.4402 34.4615 43.9624 34.4615ZM52.1872 37.0987V35.3858H53.5195C54.0311 35.3858 54.4766 35.301 54.856 35.1314C55.2355 34.9618 55.5264 34.7173 55.7288 34.3979C55.9312 34.0785 56.0323 33.704 56.0323 33.2744C56.0323 32.8391 55.9312 32.4631 55.7288 32.1466C55.5264 31.83 55.2355 31.5869 54.856 31.4173C54.4766 31.2477 54.0311 31.1629 53.5195 31.1629H51.091V37.0987H52.1872ZM53.4689 34.453H52.1872V32.0957H53.4689C53.9468 32.0957 54.3093 32.1974 54.5567 32.401C54.804 32.6045 54.9277 32.8956 54.9277 33.2744C54.9277 33.6531 54.804 33.9443 54.5567 34.1478C54.3093 34.3513 53.9468 34.453 53.4689 34.453ZM61.5672 37.0987V35.3688L62.9923 35.3679C63.0485 35.3667 63.0935 35.3641 63.1272 35.3604L64.333 37.0987H65.5136L64.156 35.1484C64.5607 34.9901 64.8713 34.7498 65.0877 34.4276C65.3042 34.1054 65.4124 33.721 65.4124 33.2744C65.4124 32.8391 65.3112 32.4631 65.1088 32.1466C64.9064 31.83 64.6155 31.5869 64.2361 31.4173C63.8566 31.2477 63.4111 31.1629 62.8995 31.1629H60.471V37.0987H61.5672ZM62.8489 34.4615H61.5672V32.0957H62.8489C63.3268 32.0957 63.6894 32.1974 63.9367 32.401C64.1841 32.6045 64.3077 32.8956 64.3077 33.2744C64.3077 33.6531 64.1841 33.9457 63.9367 34.152C63.6894 34.3584 63.3268 34.4615 62.8489 34.4615ZM71.0737 37.0987V31.1629H69.9775V37.0987H71.0737ZM77.8398 37.1835C78.3569 37.1835 78.7954 37.1044 79.1552 36.9461C79.515 36.7878 79.7834 36.5758 79.9605 36.3101C80.1376 36.0444 80.2261 35.7476 80.2261 35.4197C80.2261 35.0353 80.1263 34.73 79.9268 34.5039C79.7272 34.2778 79.4869 34.1096 79.2058 33.9994C78.9247 33.8891 78.5649 33.7831 78.1265 33.6814C77.806 33.6022 77.5531 33.5316 77.3675 33.4694C77.182 33.4072 77.0288 33.3224 76.908 33.215C76.7871 33.1076 76.7267 32.9691 76.7267 32.7995C76.7267 32.5564 76.8321 32.3614 77.0429 32.2144C77.2537 32.0674 77.5755 31.9939 78.0084 31.9939C78.2726 31.9939 78.5453 32.0335 78.8263 32.1126C79.1074 32.1918 79.3773 32.3077 79.6358 32.4603L79.9816 31.6039C79.7286 31.4343 79.4278 31.3043 79.0793 31.2138C78.7308 31.1234 78.3766 31.0781 78.0168 31.0781C77.4997 31.0781 77.0626 31.1573 76.7056 31.3156C76.3486 31.4738 76.0816 31.6872 75.9045 31.9558C75.7275 32.2243 75.6389 32.5225 75.6389 32.8504C75.6389 33.2404 75.7387 33.55 75.9383 33.7789C76.1378 34.0079 76.3767 34.176 76.655 34.2834C76.9333 34.3909 77.2973 34.4983 77.747 34.6057C78.0674 34.6848 78.3204 34.7555 78.5059 34.8177C78.6914 34.8799 78.8446 34.9661 78.9655 35.0763C79.0863 35.1865 79.1468 35.3265 79.1468 35.496C79.1468 35.7278 79.0386 35.9144 78.8221 36.0557C78.6057 36.197 78.2782 36.2677 77.8398 36.2677C77.4856 36.2677 77.1329 36.2069 76.7815 36.0854C76.4302 35.9638 76.1336 35.807 75.8919 35.6148L75.5124 36.4712C75.7598 36.686 76.0957 36.8584 76.5201 36.9885C76.9445 37.1185 77.3844 37.1835 77.8398 37.1835ZM89.0833 37.0987V36.1744H85.7526V34.5378H88.6027V33.6305H85.7526V32.0872H88.9653V31.1629H84.6564V37.0987H89.0833Z" fill="#CDCDD0"/>
<path d="M24.231 7.11585H21.1749L20.8551 7.38195L17.7192 17.6034H17.6986L14.1829 7.38282L13.8631 7.11672H10.6672L10.3473 7.38282L6.85134 17.5473L6.79221 17.5092L6.7716 17.4911L3.63577 7.38282L3.31502 7.11499H0.199797L0 7.38282L4.89369 21.7763L5.23415 22.0614H8.30995L8.65041 21.7763L12.1446 11.4788H12.2253L15.741 21.7772L16.0814 22.0614H19.1967L19.5371 21.7763L24.4308 7.38282L24.231 7.11585ZM58.8094 7.11585H55.7327L55.3931 7.38195L51.0988 18.0207L51.0585 18.0397L46.8045 7.38282L46.4649 7.11672H43.3291L43.1293 7.38282L49.2612 21.7763L49.6214 22.0614H52.458L52.8172 21.7763L59.01 7.38282L58.8094 7.11585Z" fill="#CECDD0"/>
<path d="M74.6704 15.3848L74.9697 15.1195V14.6832C74.9697 12.3506 74.2708 10.3401 72.892 8.93709C71.5149 7.53316 69.6558 6.81262 67.3792 6.81262C65.1814 6.81262 63.3438 7.59018 61.9255 9.10729C60.5072 10.6244 59.8084 12.4637 59.8084 14.5502C59.8084 16.7688 60.5475 18.6281 62.0053 20.0881C63.4639 21.5482 65.3812 22.2878 67.6981 22.2878C69.3762 22.2878 70.8151 21.9085 71.9736 21.1309C73.1321 20.3724 74.3506 19.1205 74.7699 17.4142L74.5504 17.1291H71.6744L71.2739 17.4142C70.5553 18.7793 69.4569 19.4246 67.639 19.4246C66.4819 19.4336 65.3656 19.0125 64.522 18.2488C63.6834 17.5084 63.204 16.6176 63.084 15.3468L74.6704 15.3848ZM63.2838 12.7298C63.7837 10.9657 65.3418 9.65762 67.3783 9.65762C70.0751 9.65762 71.195 11.478 71.514 12.7298H63.2838ZM38.1344 7.11587L37.8343 7.40098V8.88007L37.7743 8.93709C37.3747 8.44377 36.8353 8.00747 36.1965 7.6472C36.0455 7.56714 35.8922 7.49109 35.7369 7.41912C34.8776 7.0217 33.8993 6.83163 32.8403 6.83163C30.8629 6.83163 29.1247 7.59018 27.6867 9.06927C26.2487 10.5484 25.5293 12.4076 25.5293 14.5882C25.5293 16.7688 26.2487 18.6281 27.6867 20.1072C29.1247 21.5862 30.8629 22.3448 32.8403 22.3448C33.8993 22.3448 34.8579 22.1547 35.7163 21.7573C35.8775 21.6813 36.0567 21.6053 36.2162 21.5102C36.8353 21.1499 37.355 20.7517 37.7545 20.2774C37.7743 20.2583 37.8352 20.2964 37.8549 20.2774V21.8135L38.1541 22.0986H40.7703L41.0705 21.8135V7.38283L40.7712 7.09773H38.1344V7.11673V7.11587ZM36.5163 18.1538C35.6374 19.0454 34.5784 19.4808 33.2999 19.4808C32.0617 19.4808 31.1424 19.0454 30.2438 18.1347C29.3452 17.2431 28.9052 16.0483 28.9052 14.5502C28.9052 13.0711 29.3649 11.8763 30.2438 10.9657C31.1424 10.0749 32.0411 9.61961 33.2999 9.61961C34.5587 9.61961 35.6168 10.0559 36.5163 10.9466C37.0951 11.5341 37.475 12.2365 37.6945 13.0893V15.9723C37.4947 16.8639 37.0951 17.5844 36.5163 18.1538Z" fill="#CECDD0"/>
<path fill-rule="evenodd" clip-rule="evenodd" d="M85.7566 13.4123C85.7566 13.4123 84.0382 13.0711 82.6208 12.7678C81.3217 12.4827 80.6622 12.1224 80.6622 11.2507C80.6622 10.3211 81.6012 9.54353 83.6189 9.54353C85.5972 9.54353 86.6956 10.3781 86.6956 11.1177L87.0352 11.4028H89.9112L90.1316 11.1367C90.1316 9.18327 88.3531 6.85059 83.6986 6.85059C78.8453 6.85059 77.3266 9.56254 77.3266 11.3069C77.3266 12.767 77.8857 14.4931 81.6012 15.3087L84.798 15.9912C86.4161 16.3334 87.0952 16.8638 87.0952 17.7554C87.0952 18.571 86.236 19.5568 83.9988 19.5568C81.9211 19.5568 80.6622 18.609 80.6031 17.4902L80.2429 17.2051H77.3069L77.0874 17.4902C77.3472 19.9931 79.304 22.3448 83.9791 22.3448C89.2724 22.3448 90.3511 19.2725 90.3511 17.6604C90.3511 15.4988 89.0519 14.0949 85.7566 13.4123Z" fill="#CECDD0"/>
<path fill-rule="evenodd" clip-rule="evenodd" d="M94.8638 0V11.6596L100.134 5.82979L94.8638 0Z" fill="#00B386"/>
<path fill-rule="evenodd" clip-rule="evenodd" d="M106.458 0V11.6596L101.188 5.82979L106.458 0Z" fill="#CDCDD0"/>
</svg>
