<svg width="127" height="24" viewBox="0 0 127 24" fill="none" xmlns="http://www.w3.org/2000/svg">
<path d="M29.3874 5.15356C30.2648 5.15356 31.1151 5.35984 31.9371 5.77325C32.7609 6.18752 33.3877 6.72298 33.8183 7.38048C34.1748 7.9168 34.4289 8.52961 34.5816 9.21977L34.6498 9.57216C34.7726 10.1437 34.834 11.0556 34.834 12.3087H25.775C25.8134 13.5687 26.1102 14.5795 26.6636 15.341C27.2179 16.1025 28.0749 16.4832 29.2373 16.4832C30.3211 16.4832 31.1867 16.124 31.8331 15.4046C32.2023 14.9869 32.4641 14.5039 32.6176 13.9547H34.66C34.6063 14.411 34.4272 14.9198 34.1228 15.4802C33.8192 16.0406 33.4789 16.4987 33.102 16.8545C32.471 17.4734 31.6907 17.8902 30.7603 18.1068C30.204 18.2369 29.6343 18.2992 29.0633 18.2925C27.5258 18.2925 26.2219 17.7295 25.1525 16.6044C24.084 15.4811 23.5493 13.9048 23.5493 11.8799C23.5493 9.88587 24.0874 8.26575 25.1645 7.02122C26.2415 5.77669 27.6494 5.15442 29.3874 5.15442V5.15356ZM29.2611 6.97395C28.3069 6.97395 27.507 7.31946 26.8606 8.0122C26.2151 8.70408 25.8723 9.58333 25.8339 10.6508H32.6986C32.6151 9.74577 32.4181 9.02295 32.1102 8.48148C31.5414 7.47588 30.5923 6.97395 29.2611 6.97395ZM36.2069 5.43118H38.8957L41.7337 9.80336L44.6075 5.43118L47.1334 5.48962L42.9685 11.4854L47.3185 17.8515H44.6647L41.5947 13.1897L38.6185 17.8515H35.9878L40.3377 11.4854L36.2069 5.43118ZM53.9649 5.07191C55.3566 5.07191 56.4891 5.41227 57.3623 6.09298C58.2356 6.77283 58.7609 7.9443 58.9374 9.60654H56.9181C56.7953 8.8416 56.5147 8.20558 56.0764 7.69849C55.6372 7.19225 54.9337 6.93871 53.9649 6.93871C52.6414 6.93871 51.6957 7.58847 51.1261 8.88715C50.7568 9.72944 50.5718 10.7694 50.5718 12.0071C50.5718 13.2516 50.8336 14.2993 51.3563 15.1493C51.8799 16.0002 52.7037 16.4248 53.8259 16.4248C54.6872 16.4248 55.3703 16.1601 55.8743 15.6306C56.3774 15.1012 56.7262 14.3758 56.9181 13.4562H58.9374C58.7072 15.1029 58.1298 16.3071 57.2063 17.0686C56.2836 17.8301 55.1034 18.2117 53.6648 18.2117C52.0488 18.2117 50.7611 17.6178 49.7992 16.4308C48.8372 15.2447 48.3571 13.7621 48.3571 11.9839C48.3571 9.80336 48.8841 8.10674 49.9373 6.89315C50.9913 5.67871 52.3336 5.07191 53.9649 5.07191ZM61.0147 0.758179H63.0912V7.11318C63.5841 6.48662 64.0259 6.04657 64.4181 5.7913C65.0876 5.35039 65.9224 5.1295 66.9219 5.1295C68.7144 5.1295 69.9296 5.76036 70.5683 7.02036C70.9145 7.70794 71.0876 8.66283 71.0876 9.88501V17.8515H68.9531V10.0234C68.9531 9.11234 68.8372 8.4428 68.6069 8.01736C68.23 7.33751 67.5222 6.99715 66.4835 6.99715C65.6222 6.99715 64.8411 7.29453 64.1418 7.89015C63.4417 8.48491 63.0912 9.60997 63.0912 11.2645V17.8515H61.0147V0.758179ZM79.003 5.13036C80.457 5.13036 81.638 5.40797 82.5454 5.96492C83.4451 6.52186 83.8953 7.38736 83.8953 8.56227V15.7174C83.8953 15.934 83.9397 16.1085 84.0275 16.2392C84.1162 16.3707 84.3029 16.4368 84.5878 16.4368C84.6799 16.4368 84.7839 16.4308 84.899 16.4196C85.0141 16.4076 85.1378 16.3904 85.2683 16.3672V17.9091L84.9178 18.0037C84.7899 18.037 84.6604 18.0637 84.5298 18.0836C84.3609 18.1068 84.129 18.118 83.8373 18.118C83.1219 18.118 82.6025 17.8627 82.2802 17.353C82.1105 17.0823 81.9911 16.6998 81.922 16.2048C81.499 16.7617 80.891 17.2447 80.0988 17.6547C79.3066 18.0638 78.4333 18.2692 77.48 18.2692C76.3338 18.2692 75.3975 17.9194 74.6701 17.2198C73.9435 16.5202 73.5803 15.6444 73.5803 14.5932C73.5803 13.4415 73.9376 12.5477 74.653 11.9142C75.3685 11.2799 76.3074 10.8897 77.468 10.7428L80.7802 10.3251C81.2569 10.2632 81.5758 10.0621 81.7378 9.72257C81.8299 9.53692 81.876 9.26962 81.876 8.92239C81.876 8.21074 81.6244 7.69505 81.1204 7.3736C80.6164 7.05302 79.895 6.8923 78.9569 6.8923C77.8722 6.8923 77.103 7.18624 76.6494 7.77412C76.3952 8.09901 76.2298 8.58204 76.1531 9.22407H74.2147C74.2531 7.69247 74.7468 6.62843 75.6968 6.02852C76.6468 5.42946 77.7494 5.13036 79.003 5.13036ZM81.818 11.5318C81.5647 11.6934 81.2381 11.8292 80.8373 11.9374C80.4373 12.0457 80.0451 12.1231 79.6605 12.1695L78.4026 12.3311C77.6488 12.4317 77.0834 12.5907 76.7065 12.8072C76.0686 13.1699 75.7488 13.7501 75.7488 14.5468C75.7488 15.1493 75.968 15.6246 76.4063 15.9736C76.8455 16.3208 77.3648 16.4944 77.9643 16.4944C78.6951 16.4944 79.4029 16.3242 80.0877 15.9847C81.2415 15.4201 81.8188 14.4961 81.8188 13.2129V11.5318H81.818ZM87.2987 5.43118H89.272V7.19397C89.857 6.46771 90.4761 5.94601 91.1293 5.62886C91.7834 5.31171 92.5108 5.15356 93.3107 5.15356C95.064 5.15356 96.2493 5.76809 96.8642 6.99715C97.2027 7.67013 97.3724 8.63189 97.3724 9.88501V17.8515H95.2601V10.0234C95.2601 9.26618 95.1493 8.65509 94.9258 8.19183C94.5566 7.4183 93.8872 7.03153 92.9184 7.03153C92.4255 7.03153 92.0222 7.08224 91.7066 7.1828C91.137 7.35298 90.6373 7.69247 90.2066 8.203C89.8604 8.61298 89.6353 9.0367 89.5312 9.47332C89.4281 9.90993 89.376 10.5339 89.376 11.3461V17.8515H87.2987V5.43204V5.43118ZM104.803 5.21115C105.772 5.21115 106.618 5.45095 107.341 5.93054C107.734 6.20041 108.133 6.59491 108.541 7.11318V5.54721H110.456V16.8425C110.456 18.4197 110.226 19.6642 109.764 20.577C108.903 22.2615 107.276 23.1047 104.884 23.1047C103.553 23.1047 102.434 22.8047 101.526 22.2057C100.618 21.6066 100.111 20.6698 100.002 19.3934H102.115C102.214 19.9504 102.414 20.3793 102.714 20.681C103.183 21.1451 103.922 21.3771 104.93 21.3771C106.522 21.3771 107.565 20.8125 108.057 19.684C108.349 19.0187 108.483 17.8318 108.46 16.124C108.045 16.7574 107.545 17.2293 106.96 17.5387C106.376 17.8481 105.602 18.0028 104.641 18.0028C103.303 18.0028 102.132 17.5249 101.127 16.5701C100.124 15.616 99.622 14.0363 99.622 11.8326C99.622 9.75265 100.128 8.12995 101.14 6.96191C102.15 5.79474 103.372 5.21115 104.803 5.21115ZM105.184 7.05474C103.722 7.05474 102.722 7.74318 102.184 9.11921C101.899 9.85407 101.757 10.8158 101.757 12.0071C101.757 13.4063 102.039 14.4712 102.605 15.2018C103.17 15.9323 103.929 16.2976 104.884 16.2976C106.376 16.2976 107.426 15.6212 108.034 14.2684C108.372 13.5034 108.541 12.6096 108.541 11.5894C108.541 10.0509 108.226 8.91036 107.595 8.16862C106.963 7.42603 106.16 7.05474 105.184 7.05474ZM118.73 5.15356C119.607 5.15356 120.457 5.35984 121.28 5.77325C122.103 6.18752 122.729 6.72298 123.16 7.38048C123.517 7.9168 123.771 8.52961 123.923 9.21977L123.992 9.57216C124.114 10.1437 124.176 11.0556 124.176 12.3087H115.118C115.157 13.5687 115.453 14.5795 116.006 15.341C116.561 16.1025 117.418 16.4832 118.58 16.4832C119.665 16.4832 120.529 16.124 121.176 15.4046C121.545 14.9869 121.807 14.5039 121.96 13.9547H124.003C123.949 14.411 123.77 14.9198 123.465 15.4802C123.163 16.0406 122.822 16.4987 122.445 16.8545C121.814 17.4734 121.033 17.8902 120.103 18.1068C119.547 18.2369 118.977 18.2992 118.406 18.2925C116.868 18.2925 115.564 17.7295 114.495 16.6044C113.426 15.4802 112.892 13.9048 112.892 11.879C112.892 9.88501 113.429 8.26489 114.506 7.02036C115.583 5.77583 116.991 5.15356 118.73 5.15356ZM118.602 6.97395C117.649 6.97395 116.849 7.31946 116.202 8.0122C115.557 8.70408 115.214 9.58333 115.176 10.6508H122.04C121.957 9.74577 121.761 9.02295 121.452 8.48148C120.883 7.47588 119.934 6.97395 118.603 6.97395H118.602Z" fill="black"/>
<path d="M29.3874 5.15356C30.2648 5.15356 31.1151 5.35984 31.9371 5.77325C32.7609 6.18752 33.3877 6.72298 33.8183 7.38048C34.1748 7.9168 34.4289 8.52961 34.5816 9.21977L34.6498 9.57216C34.7726 10.1437 34.834 11.0556 34.834 12.3087H25.775C25.8134 13.5687 26.1102 14.5795 26.6636 15.341C27.2179 16.1025 28.0749 16.4832 29.2373 16.4832C30.3211 16.4832 31.1867 16.124 31.8331 15.4046C32.2023 14.9869 32.4641 14.5039 32.6176 13.9547H34.66C34.6063 14.411 34.4272 14.9198 34.1228 15.4802C33.8192 16.0406 33.4789 16.4987 33.102 16.8545C32.471 17.4734 31.6907 17.8902 30.7603 18.1068C30.204 18.2369 29.6343 18.2992 29.0633 18.2925C27.5258 18.2925 26.2219 17.7295 25.1525 16.6044C24.084 15.4811 23.5493 13.9048 23.5493 11.8799C23.5493 9.88587 24.0874 8.26575 25.1645 7.02122C26.2415 5.77669 27.6494 5.15442 29.3874 5.15442V5.15356ZM29.2611 6.97395C28.3069 6.97395 27.507 7.31946 26.8606 8.0122C26.2151 8.70408 25.8723 9.58333 25.8339 10.6508H32.6986C32.6151 9.74577 32.4181 9.02295 32.1102 8.48148C31.5414 7.47588 30.5923 6.97395 29.2611 6.97395ZM36.2069 5.43118H38.8957L41.7337 9.80336L44.6075 5.43118L47.1334 5.48962L42.9685 11.4854L47.3185 17.8515H44.6647L41.5947 13.1897L38.6185 17.8515H35.9878L40.3377 11.4854L36.2069 5.43118ZM53.9649 5.07191C55.3566 5.07191 56.4891 5.41227 57.3623 6.09298C58.2356 6.77283 58.7609 7.9443 58.9374 9.60654H56.9181C56.7953 8.8416 56.5147 8.20558 56.0764 7.69849C55.6372 7.19225 54.9337 6.93871 53.9649 6.93871C52.6414 6.93871 51.6957 7.58847 51.1261 8.88715C50.7568 9.72944 50.5718 10.7694 50.5718 12.0071C50.5718 13.2516 50.8336 14.2993 51.3563 15.1493C51.8799 16.0002 52.7037 16.4248 53.8259 16.4248C54.6872 16.4248 55.3703 16.1601 55.8743 15.6306C56.3774 15.1012 56.7262 14.3758 56.9181 13.4562H58.9374C58.7072 15.1029 58.1298 16.3071 57.2063 17.0686C56.2836 17.8301 55.1034 18.2117 53.6648 18.2117C52.0488 18.2117 50.7611 17.6178 49.7992 16.4308C48.8372 15.2447 48.3571 13.7621 48.3571 11.9839C48.3571 9.80336 48.8841 8.10674 49.9373 6.89315C50.9913 5.67871 52.3336 5.07191 53.9649 5.07191ZM61.0147 0.758179H63.0912V7.11318C63.5841 6.48662 64.0259 6.04657 64.4181 5.7913C65.0876 5.35039 65.9224 5.1295 66.9219 5.1295C68.7144 5.1295 69.9296 5.76036 70.5683 7.02036C70.9145 7.70794 71.0876 8.66283 71.0876 9.88501V17.8515H68.9531V10.0234C68.9531 9.11234 68.8372 8.4428 68.6069 8.01736C68.23 7.33751 67.5222 6.99715 66.4835 6.99715C65.6222 6.99715 64.8411 7.29453 64.1418 7.89015C63.4417 8.48491 63.0912 9.60997 63.0912 11.2645V17.8515H61.0147V0.758179ZM79.003 5.13036C80.457 5.13036 81.638 5.40797 82.5454 5.96492C83.4451 6.52186 83.8953 7.38736 83.8953 8.56227V15.7174C83.8953 15.934 83.9397 16.1085 84.0275 16.2392C84.1162 16.3707 84.3029 16.4368 84.5878 16.4368C84.6799 16.4368 84.7839 16.4308 84.899 16.4196C85.0141 16.4076 85.1378 16.3904 85.2683 16.3672V17.9091L84.9178 18.0037C84.7899 18.037 84.6604 18.0637 84.5298 18.0836C84.3609 18.1068 84.129 18.118 83.8373 18.118C83.1219 18.118 82.6025 17.8627 82.2802 17.353C82.1105 17.0823 81.9911 16.6998 81.922 16.2048C81.499 16.7617 80.891 17.2447 80.0988 17.6547C79.3066 18.0638 78.4333 18.2692 77.48 18.2692C76.3338 18.2692 75.3975 17.9194 74.6701 17.2198C73.9435 16.5202 73.5803 15.6444 73.5803 14.5932C73.5803 13.4415 73.9376 12.5477 74.653 11.9142C75.3685 11.2799 76.3074 10.8897 77.468 10.7428L80.7802 10.3251C81.2569 10.2632 81.5758 10.0621 81.7378 9.72257C81.8299 9.53692 81.876 9.26962 81.876 8.92239C81.876 8.21074 81.6244 7.69505 81.1204 7.3736C80.6164 7.05302 79.895 6.8923 78.9569 6.8923C77.8722 6.8923 77.103 7.18624 76.6494 7.77412C76.3952 8.09901 76.2298 8.58204 76.1531 9.22407H74.2147C74.2531 7.69247 74.7468 6.62843 75.6968 6.02852C76.6468 5.42946 77.7494 5.13036 79.003 5.13036ZM81.818 11.5318C81.5647 11.6934 81.2381 11.8292 80.8373 11.9374C80.4373 12.0457 80.0451 12.1231 79.6605 12.1695L78.4026 12.3311C77.6488 12.4317 77.0834 12.5907 76.7065 12.8072C76.0686 13.1699 75.7488 13.7501 75.7488 14.5468C75.7488 15.1493 75.968 15.6246 76.4063 15.9736C76.8455 16.3208 77.3648 16.4944 77.9643 16.4944C78.6951 16.4944 79.4029 16.3242 80.0877 15.9847C81.2415 15.4201 81.8188 14.4961 81.8188 13.2129V11.5318H81.818ZM87.2987 5.43118H89.272V7.19397C89.857 6.46771 90.4761 5.94601 91.1293 5.62886C91.7834 5.31171 92.5108 5.15356 93.3107 5.15356C95.064 5.15356 96.2493 5.76809 96.8642 6.99715C97.2027 7.67013 97.3724 8.63189 97.3724 9.88501V17.8515H95.2601V10.0234C95.2601 9.26618 95.1493 8.65509 94.9258 8.19183C94.5566 7.4183 93.8872 7.03153 92.9184 7.03153C92.4255 7.03153 92.0222 7.08224 91.7066 7.1828C91.137 7.35298 90.6373 7.69247 90.2066 8.203C89.8604 8.61298 89.6353 9.0367 89.5312 9.47332C89.4281 9.90993 89.376 10.5339 89.376 11.3461V17.8515H87.2987V5.43204V5.43118ZM104.803 5.21115C105.772 5.21115 106.618 5.45095 107.341 5.93054C107.734 6.20041 108.133 6.59491 108.541 7.11318V5.54721H110.456V16.8425C110.456 18.4197 110.226 19.6642 109.764 20.577C108.903 22.2615 107.276 23.1047 104.884 23.1047C103.553 23.1047 102.434 22.8047 101.526 22.2057C100.618 21.6066 100.111 20.6698 100.002 19.3934H102.115C102.214 19.9504 102.414 20.3793 102.714 20.681C103.183 21.1451 103.922 21.3771 104.93 21.3771C106.522 21.3771 107.565 20.8125 108.057 19.684C108.349 19.0187 108.483 17.8318 108.46 16.124C108.045 16.7574 107.545 17.2293 106.96 17.5387C106.376 17.8481 105.602 18.0028 104.641 18.0028C103.303 18.0028 102.132 17.5249 101.127 16.5701C100.124 15.616 99.622 14.0363 99.622 11.8326C99.622 9.75265 100.128 8.12995 101.14 6.96191C102.15 5.79474 103.372 5.21115 104.803 5.21115ZM105.184 7.05474C103.722 7.05474 102.722 7.74318 102.184 9.11921C101.899 9.85407 101.757 10.8158 101.757 12.0071C101.757 13.4063 102.039 14.4712 102.605 15.2018C103.17 15.9323 103.929 16.2976 104.884 16.2976C106.376 16.2976 107.426 15.6212 108.034 14.2684C108.372 13.5034 108.541 12.6096 108.541 11.5894C108.541 10.0509 108.226 8.91036 107.595 8.16862C106.963 7.42603 106.16 7.05474 105.184 7.05474ZM118.73 5.15356C119.607 5.15356 120.457 5.35984 121.28 5.77325C122.103 6.18752 122.729 6.72298 123.16 7.38048C123.517 7.9168 123.771 8.52961 123.923 9.21977L123.992 9.57216C124.114 10.1437 124.176 11.0556 124.176 12.3087H115.118C115.157 13.5687 115.453 14.5795 116.006 15.341C116.561 16.1025 117.418 16.4832 118.58 16.4832C119.665 16.4832 120.529 16.124 121.176 15.4046C121.545 14.9869 121.807 14.5039 121.96 13.9547H124.003C123.949 14.411 123.77 14.9198 123.465 15.4802C123.163 16.0406 122.822 16.4987 122.445 16.8545C121.814 17.4734 121.033 17.8902 120.103 18.1068C119.547 18.2369 118.977 18.2992 118.406 18.2925C116.868 18.2925 115.564 17.7295 114.495 16.6044C113.426 15.4802 112.892 13.9048 112.892 11.879C112.892 9.88501 113.429 8.26489 114.506 7.02036C115.583 5.77583 116.991 5.15356 118.73 5.15356ZM118.602 6.97395C117.649 6.97395 116.849 7.31946 116.202 8.0122C115.557 8.70408 115.214 9.58333 115.176 10.6508H122.04C121.957 9.74577 121.761 9.02295 121.452 8.48148C120.883 7.47588 119.934 6.97395 118.603 6.97395H118.602Z" fill="#CDCDD0"/>
<path d="M9.90484 11.9314L19.2853 21.3857H0.524414L9.90484 11.9314Z" fill="#5375DD"/>
<path d="M9.90484 11.9315L19.2853 2.47717H0.524414L9.90484 11.9315Z" fill="#E14B51"/>
</svg>
