<svg width="130" height="27" viewBox="0 0 130 27" fill="none" xmlns="http://www.w3.org/2000/svg">
<path fill-rule="evenodd" clip-rule="evenodd" d="M39.7077 0.629272L31.9028 8.47042L24.0617 0.629272L16.2212 8.47042L8.41572 0.629272L0.575195 8.47042L8.41634 16.2746L16.2205 24.1158L24.0617 16.2753L31.9035 24.1158L39.7083 16.2753L47.5488 8.47042L39.7077 0.629272Z" fill="#CDCDD0"/>
<path fill-rule="evenodd" clip-rule="evenodd" d="M47.5396 8.47412L39.7109 16.3027L47.5396 24.1314L55.3682 16.3027L47.5396 8.47412Z" fill="#0056FF"/>
<path d="M63.8981 11.0552L65.3408 6.6651L66.7217 11.0552H68.9065L71.2458 3.84143H69.2981L67.7832 8.48914L66.3301 3.84143H64.4546L62.9294 8.44792L61.4763 3.84143H59.374L61.7133 11.0552H63.8981ZM73.8015 11.1479C74.6191 11.1479 75.1687 10.8765 75.4504 10.3338V11.0552H77.2744V7.95327C77.2744 7.08075 77.0305 6.43323 76.5427 6.01071C76.055 5.58819 75.3473 5.37693 74.4198 5.37693C73.9733 5.37693 73.5284 5.43361 73.0853 5.54697C72.6422 5.66033 72.266 5.82006 71.9569 6.02616L72.6164 7.35555C72.8088 7.20441 73.0424 7.0859 73.3172 7.00002C73.592 6.91414 73.8633 6.8712 74.1313 6.8712C74.887 6.8712 75.282 7.16662 75.3164 7.75746H74.2034C73.3584 7.75746 72.7332 7.90346 72.3279 8.19544C71.9225 8.48743 71.7198 8.89792 71.7198 9.42693C71.7198 9.7567 71.8006 10.0504 71.962 10.308C72.1235 10.5657 72.3622 10.7701 72.6782 10.9212C72.9943 11.0724 73.3687 11.1479 73.8015 11.1479ZM74.3477 9.91128C74.121 9.91128 73.9424 9.85976 73.8118 9.7567C73.6813 9.65365 73.616 9.51624 73.616 9.34449C73.616 8.96662 73.9011 8.77769 74.4714 8.77769H75.3164V9.26204C75.2408 9.47502 75.1172 9.63647 74.9454 9.7464C74.7737 9.85632 74.5744 9.91128 74.3477 9.91128ZM82.087 11.0552L84.3954 5.46968H82.5301L81.1183 8.88075L79.7786 5.46968H77.7691L80.0672 11.0552H82.087ZM87.8271 11.1479C88.8714 11.1479 89.6649 10.8456 90.2076 10.2411L89.1771 9.1693C88.9779 9.34105 88.7803 9.46472 88.5845 9.54029C88.3887 9.61586 88.1569 9.65365 87.8889 9.65365C87.5317 9.65365 87.2345 9.57636 86.9975 9.42178C86.7605 9.2672 86.6008 9.04563 86.5183 8.75708H90.5786C90.5992 8.44792 90.6095 8.28647 90.6095 8.27273C90.6095 7.67502 90.4773 7.15804 90.2128 6.72178C89.9483 6.28552 89.5893 5.95231 89.1359 5.72216C88.6824 5.492 88.1775 5.37693 87.621 5.37693C87.037 5.37693 86.5114 5.50059 86.0443 5.74792C85.5771 5.99525 85.2113 6.33704 84.9468 6.7733C84.6823 7.20956 84.55 7.7025 84.55 8.25212C84.55 8.80861 84.6857 9.3067 84.9571 9.7464C85.2284 10.1861 85.6114 10.5296 86.1061 10.7769C86.6008 11.0243 87.1744 11.1479 87.8271 11.1479ZM88.7752 7.72655H86.4874C86.5424 7.43113 86.6712 7.19754 86.8739 7.02578C87.0765 6.85403 87.329 6.76815 87.6313 6.76815C87.9336 6.76815 88.1861 6.85403 88.3887 7.02578C88.5914 7.19754 88.7202 7.43113 88.7752 7.72655ZM93.5466 11.1479C94.1305 11.1479 94.6303 11.0689 95.046 10.9109C95.4616 10.7529 95.776 10.5348 95.9889 10.2565C96.2019 9.97827 96.3084 9.66395 96.3084 9.31357C96.3084 8.88762 96.1968 8.55613 95.9735 8.31911C95.7502 8.08208 95.4874 7.91891 95.1851 7.8296C94.8828 7.74029 94.5015 7.66128 94.0412 7.59258C93.6771 7.53762 93.416 7.48437 93.258 7.43285C93.1 7.38132 93.021 7.29029 93.021 7.15975C93.021 7.04296 93.0931 6.94849 93.2374 6.87636C93.3817 6.80422 93.6084 6.76815 93.9176 6.76815C94.4947 6.76815 95.0305 6.90555 95.5252 7.18036L96.1126 5.85097C95.8447 5.69983 95.5114 5.58303 95.113 5.50059C94.7145 5.41815 94.3126 5.37693 93.9073 5.37693C93.337 5.37693 92.8475 5.45765 92.4387 5.6191C92.03 5.78055 91.7191 6.0004 91.5061 6.27865C91.2931 6.55689 91.1866 6.87464 91.1866 7.23189C91.1866 7.66472 91.3 8.00136 91.5267 8.24181C91.7534 8.48227 92.0231 8.64716 92.3357 8.73647C92.6483 8.82579 93.0279 8.89792 93.4744 8.95288C93.8248 9.00098 94.0807 9.05079 94.2422 9.10231C94.4036 9.15384 94.4844 9.24143 94.4844 9.3651C94.4844 9.48876 94.4174 9.58323 94.2834 9.6485C94.1494 9.71376 93.9244 9.7464 93.6084 9.7464C93.2649 9.7464 92.9179 9.70002 92.5676 9.60727C92.2172 9.51453 91.9149 9.38914 91.6607 9.23113L91.0733 10.5708C91.3481 10.7426 91.7122 10.8817 92.1656 10.9882C92.6191 11.0947 93.0794 11.1479 93.5466 11.1479Z" fill="#CDCDD0"/>
<path d="M61.8006 22.6985L62.4831 21.0472H66.0609L66.7434 22.6985H68.6148L65.1692 14.9925H63.4078L59.9731 22.6985H61.8006ZM65.4994 19.6932H63.0555L64.2775 16.7429L65.4994 19.6932ZM71.2899 22.7866C71.8697 22.7866 72.3706 22.7077 72.7926 22.5499C73.2146 22.3921 73.5357 22.1701 73.7558 21.8839C73.976 21.5977 74.0861 21.2711 74.0861 20.9041C74.0861 20.4711 73.9723 20.1335 73.7448 19.8913C73.5173 19.6491 73.2494 19.4822 72.9412 19.3904C72.633 19.2987 72.2367 19.2125 71.7523 19.1317C71.3193 19.0657 71.0037 18.996 70.8055 18.9226C70.6074 18.8492 70.5083 18.7208 70.5083 18.5373C70.5083 18.3758 70.6001 18.2437 70.7835 18.141C70.967 18.0382 71.2422 17.9869 71.6092 17.9869C72.2257 17.9869 72.7944 18.1336 73.3155 18.4272L73.8879 17.2052C73.6164 17.0438 73.2733 16.9172 72.8586 16.8255C72.444 16.7337 72.0275 16.6878 71.6092 16.6878C71.0441 16.6878 70.5542 16.7686 70.1395 16.93C69.7249 17.0915 69.4093 17.3172 69.1928 17.6071C68.9763 17.897 68.868 18.229 68.868 18.6033C68.868 19.051 68.9836 19.3959 69.2148 19.6381C69.446 19.8803 69.7194 20.0491 70.035 20.1445C70.3505 20.2399 70.7505 20.3243 71.2349 20.3977C71.6459 20.4491 71.9504 20.5115 72.1486 20.5849C72.3467 20.6583 72.4458 20.7794 72.4458 20.9482C72.4458 21.3078 72.0825 21.4876 71.356 21.4876C70.9964 21.4876 70.6294 21.4344 70.2551 21.3279C69.8808 21.2215 69.5616 21.0839 69.2974 20.9151L68.7249 22.1481C69.0038 22.3316 69.3781 22.4838 69.8478 22.6049C70.3175 22.726 70.7982 22.7866 71.2899 22.7866ZM77.1355 22.7866C77.7152 22.7866 78.2161 22.7077 78.6381 22.5499C79.0601 22.3921 79.3812 22.1701 79.6014 21.8839C79.8215 21.5977 79.9316 21.2711 79.9316 20.9041C79.9316 20.4711 79.8179 20.1335 79.5904 19.8913C79.3629 19.6491 79.095 19.4822 78.7867 19.3904C78.4785 19.2987 78.0822 19.2125 77.5978 19.1317C77.1648 19.0657 76.8492 18.996 76.6511 18.9226C76.4529 18.8492 76.3539 18.7208 76.3539 18.5373C76.3539 18.3758 76.4456 18.2437 76.6291 18.141C76.8125 18.0382 77.0878 17.9869 77.4547 17.9869C78.0712 17.9869 78.64 18.1336 79.161 18.4272L79.7335 17.2052C79.4619 17.0438 79.1188 16.9172 78.7042 16.8255C78.2895 16.7337 77.873 16.6878 77.4547 16.6878C76.8896 16.6878 76.3997 16.7686 75.9851 16.93C75.5704 17.0915 75.2548 17.3172 75.0383 17.6071C74.8218 17.897 74.7136 18.229 74.7136 18.6033C74.7136 19.051 74.8292 19.3959 75.0604 19.6381C75.2915 19.8803 75.5649 20.0491 75.8805 20.1445C76.1961 20.2399 76.596 20.3243 77.0804 20.3977C77.4914 20.4491 77.796 20.5115 77.9941 20.5849C78.1923 20.6583 78.2914 20.7794 78.2914 20.9482C78.2914 21.3078 77.9281 21.4876 77.2015 21.4876C76.8419 21.4876 76.4749 21.4344 76.1007 21.3279C75.7264 21.2215 75.4071 21.0839 75.1429 20.9151L74.5705 22.1481C74.8494 22.3316 75.2236 22.4838 75.6933 22.6049C76.163 22.726 76.6437 22.7866 77.1355 22.7866ZM83.8066 22.7866C84.4305 22.7866 84.9882 22.6563 85.4799 22.3958C85.9716 22.1352 86.3569 21.7738 86.6358 21.3114C86.9147 20.8491 87.0542 20.3243 87.0542 19.7372C87.0542 19.1501 86.9147 18.6254 86.6358 18.163C86.3569 17.7006 85.9716 17.3392 85.4799 17.0787C84.9882 16.8181 84.4305 16.6878 83.8066 16.6878C83.1828 16.6878 82.6232 16.8181 82.1278 17.0787C81.6325 17.3392 81.2453 17.7006 80.9664 18.163C80.6876 18.6254 80.5481 19.1501 80.5481 19.7372C80.5481 20.3243 80.6876 20.8491 80.9664 21.3114C81.2453 21.7738 81.6325 22.1352 82.1278 22.3958C82.6232 22.6563 83.1828 22.7866 83.8066 22.7866ZM83.8066 21.3775C83.3663 21.3775 83.003 21.2289 82.7168 20.9316C82.4306 20.6344 82.2875 20.2363 82.2875 19.7372C82.2875 19.2382 82.4306 18.84 82.7168 18.5428C83.003 18.2456 83.3663 18.0969 83.8066 18.0969C84.247 18.0969 84.6084 18.2456 84.891 18.5428C85.1735 18.84 85.3148 19.2382 85.3148 19.7372C85.3148 20.2363 85.1735 20.6344 84.891 20.9316C84.6084 21.2289 84.247 21.3775 83.8066 21.3775ZM91.0613 22.7866C91.6851 22.7866 92.23 22.6545 92.696 22.3903C93.1621 22.1261 93.5015 21.7591 93.7143 21.2894L92.3823 20.5629C92.0814 21.1059 91.6374 21.3775 91.0503 21.3775C90.6026 21.3775 90.232 21.2307 89.9384 20.9371C89.6448 20.6436 89.4981 20.2436 89.4981 19.7372C89.4981 19.2308 89.6448 18.8308 89.9384 18.5373C90.232 18.2437 90.6026 18.0969 91.0503 18.0969C91.63 18.0969 92.0741 18.3685 92.3823 18.9116L93.7143 18.196C93.5015 17.7116 93.1621 17.3392 92.696 17.0787C92.23 16.8181 91.6851 16.6878 91.0613 16.6878C90.4301 16.6878 89.8632 16.8181 89.3604 17.0787C88.8577 17.3392 88.4651 17.7006 88.1825 18.163C87.9 18.6254 87.7587 19.1501 87.7587 19.7372C87.7587 20.3243 87.9 20.8491 88.1825 21.3114C88.4651 21.7738 88.8577 22.1352 89.3604 22.3958C89.8632 22.6563 90.4301 22.7866 91.0613 22.7866ZM95.5638 15.9503C95.8793 15.9503 96.1362 15.8567 96.3344 15.6696C96.5325 15.4824 96.6316 15.2457 96.6316 14.9595C96.6316 14.6953 96.5325 14.4751 96.3344 14.299C96.1362 14.1229 95.8793 14.0348 95.5638 14.0348C95.2482 14.0348 94.9913 14.1265 94.7932 14.31C94.595 14.4935 94.4959 14.721 94.4959 14.9925C94.4959 15.2641 94.595 15.4916 94.7932 15.6751C94.9913 15.8585 95.2482 15.9503 95.5638 15.9503ZM96.4224 22.6985V16.7759H94.7051V22.6985H96.4224ZM99.8461 22.7866C100.727 22.7866 101.329 22.5114 101.651 21.9609V22.6985H103.259V19.3189C103.259 18.4382 103.013 17.7795 102.521 17.3429C102.029 16.9062 101.325 16.6878 100.408 16.6878C99.9305 16.6878 99.4663 16.7502 99.0149 16.875C98.5636 16.9998 98.1765 17.1759 97.8535 17.4034L98.47 18.6033C98.6828 18.4345 98.9415 18.3006 99.2461 18.2015C99.5507 18.1024 99.8608 18.0529 100.176 18.0529C100.631 18.0529 100.973 18.1538 101.2 18.3556C101.428 18.5575 101.541 18.8455 101.541 19.2198H100.176C99.3103 19.2198 98.67 19.3776 98.2553 19.6932C97.8407 20.0088 97.6334 20.4418 97.6334 20.9922C97.6334 21.3371 97.7214 21.6454 97.8976 21.9169C98.0737 22.1885 98.3287 22.4013 98.6627 22.5554C98.9966 22.7095 99.3911 22.7866 99.8461 22.7866ZM100.275 21.6307C99.9745 21.6307 99.7378 21.5665 99.5654 21.438C99.3929 21.3096 99.3067 21.1353 99.3067 20.9151C99.3067 20.4528 99.6589 20.2216 100.363 20.2216H101.541V20.8271C101.446 21.0913 101.285 21.2913 101.057 21.427C100.83 21.5628 100.569 21.6307 100.275 21.6307ZM107.233 22.7866C107.504 22.7866 107.763 22.7554 108.009 22.693C108.255 22.6306 108.462 22.5371 108.631 22.4123L108.169 21.2014C107.978 21.3481 107.747 21.4215 107.475 21.4215C107.24 21.4215 107.059 21.3536 106.93 21.2179C106.802 21.0821 106.737 20.8894 106.737 20.6399V18.229H108.213V16.908H106.737V15.4659H105.02V16.908H104.106V18.229H105.02V20.6619C105.02 21.3591 105.213 21.8875 105.598 22.2472C105.983 22.6068 106.528 22.7866 107.233 22.7866ZM110.458 15.9503C110.774 15.9503 111.031 15.8567 111.229 15.6696C111.427 15.4824 111.526 15.2457 111.526 14.9595C111.526 14.6953 111.427 14.4751 111.229 14.299C111.031 14.1229 110.774 14.0348 110.458 14.0348C110.143 14.0348 109.886 14.1265 109.688 14.31C109.49 14.4935 109.39 14.721 109.39 14.9925C109.39 15.2641 109.49 15.4916 109.688 15.6751C109.886 15.8585 110.143 15.9503 110.458 15.9503ZM111.317 22.6985V16.7759H109.6V22.6985H111.317ZM115.731 22.7866C116.355 22.7866 116.913 22.6563 117.405 22.3958C117.896 22.1352 118.282 21.7738 118.561 21.3114C118.839 20.8491 118.979 20.3243 118.979 19.7372C118.979 19.1501 118.839 18.6254 118.561 18.163C118.282 17.7006 117.896 17.3392 117.405 17.0787C116.913 16.8181 116.355 16.6878 115.731 16.6878C115.108 16.6878 114.548 16.8181 114.053 17.0787C113.557 17.3392 113.17 17.7006 112.891 18.163C112.612 18.6254 112.473 19.1501 112.473 19.7372C112.473 20.3243 112.612 20.8491 112.891 21.3114C113.17 21.7738 113.557 22.1352 114.053 22.3958C114.548 22.6563 115.108 22.7866 115.731 22.7866ZM115.731 21.3775C115.291 21.3775 114.928 21.2289 114.642 20.9316C114.355 20.6344 114.212 20.2363 114.212 19.7372C114.212 19.2382 114.355 18.84 114.642 18.5428C114.928 18.2456 115.291 18.0969 115.731 18.0969C116.172 18.0969 116.533 18.2456 116.816 18.5428C117.098 18.84 117.24 19.2382 117.24 19.7372C117.24 20.2363 117.098 20.6344 116.816 20.9316C116.533 21.2289 116.172 21.3775 115.731 21.3775ZM121.841 22.6985V19.7702C121.841 19.2418 121.97 18.8437 122.226 18.5758C122.483 18.3079 122.828 18.174 123.261 18.174C123.65 18.174 123.947 18.2896 124.153 18.5208C124.358 18.752 124.461 19.1024 124.461 19.5721V22.6985H126.179V19.3079C126.179 18.4419 125.953 17.7887 125.501 17.3484C125.05 16.908 124.458 16.6878 123.724 16.6878C123.32 16.6878 122.949 16.7557 122.612 16.8915C122.274 17.0273 121.992 17.2199 121.764 17.4695V16.7759H120.124V22.6985H121.841Z" fill="#0056FF"/>
</svg>
